<?xml version="1.0" encoding="utf-8" standalone="no"?>
<!DOCTYPE svg PUBLIC "-//W3C//DTD SVG 1.1//EN"
  "http://www.w3.org/Graphics/SVG/1.1/DTD/svg11.dtd">
<svg xmlns:xlink="http://www.w3.org/1999/xlink" width="417.4095pt" height="420.247pt" viewBox="0 0 417.4095 420.247" xmlns="http://www.w3.org/2000/svg" version="1.1">
 <metadata>
  <rdf:RDF xmlns:dc="http://purl.org/dc/elements/1.1/" xmlns:cc="http://creativecommons.org/ns#" xmlns:rdf="http://www.w3.org/1999/02/22-rdf-syntax-ns#">
   <cc:Work>
    <dc:type rdf:resource="http://purl.org/dc/dcmitype/StillImage"/>
    <dc:date>2025-03-10T14:44:41.435480</dc:date>
    <dc:format>image/svg+xml</dc:format>
    <dc:creator>
     <cc:Agent>
      <dc:title>Matplotlib v3.7.5, https://matplotlib.org/</dc:title>
     </cc:Agent>
    </dc:creator>
   </cc:Work>
  </rdf:RDF>
 </metadata>
 <defs>
  <style type="text/css">*{stroke-linejoin: round; stroke-linecap: butt}</style>
 </defs>
 <g id="figure_1">
  <g id="patch_1">
   <path d="M 0 420.247 
L 417.4095 420.247 
L 417.4095 0 
L 0 0 
z
" style="fill: #ffffff"/>
  </g>
  <g id="axes_1">
   <g id="patch_2">
    <path d="M 173.9895 112.382562 
C 173.9895 103.283516 172.197186 94.272946 168.715132 85.866523 
C 165.233077 77.4601 160.129 69.821308 153.695002 63.38731 
C 147.261005 56.953313 139.622212 51.849235 131.215789 48.367181 
C 122.809366 44.885126 113.798797 43.092813 104.69975 43.092813 
C 95.600703 43.092813 86.590134 44.885126 78.183711 48.367181 
C 69.777288 51.849235 62.138495 56.953313 55.704498 63.38731 
C 49.2705 69.821308 44.166423 77.4601 40.684368 85.866523 
C 37.202314 94.272946 35.41 103.283516 35.41 112.382562 
C 35.41 121.481609 37.202314 130.492179 40.684368 138.898602 
C 44.166423 147.305025 49.2705 154.943817 55.704498 161.377815 
C 62.138495 167.811812 69.777288 172.91589 78.183711 176.397944 
C 86.590134 179.879999 95.600703 181.672312 104.69975 181.672312 
C 113.798797 181.672312 122.809366 179.879999 131.215789 176.397944 
C 139.622212 172.91589 147.261005 167.811812 153.695002 161.377815 
C 160.129 154.943817 165.233077 147.305025 168.715132 138.898602 
C 172.197186 130.492179 173.9895 121.481609 173.9895 112.382563 
M 104.69975 112.382562 
C 104.69975 112.382562 104.69975 112.382562 104.69975 112.382562 
C 104.69975 112.382562 104.69975 112.382562 104.69975 112.382562 
C 104.69975 112.382562 104.69975 112.382562 104.69975 112.382562 
C 104.69975 112.382562 104.69975 112.382562 104.69975 112.382562 
C 104.69975 112.382562 104.69975 112.382562 104.69975 112.382562 
C 104.69975 112.382562 104.69975 112.382562 104.69975 112.382562 
C 104.69975 112.382562 104.69975 112.382562 104.69975 112.382562 
C 104.69975 112.382562 104.69975 112.382562 104.69975 112.382562 
C 104.69975 112.382562 104.69975 112.382562 104.69975 112.382562 
C 104.69975 112.382562 104.69975 112.382562 104.69975 112.382562 
C 104.69975 112.382562 104.69975 112.382562 104.69975 112.382562 
C 104.69975 112.382562 104.69975 112.382562 104.69975 112.382562 
C 104.69975 112.382562 104.69975 112.382562 104.69975 112.382562 
C 104.69975 112.382562 104.69975 112.382562 104.69975 112.382562 
C 104.69975 112.382562 104.69975 112.382562 104.69975 112.382562 
C 104.69975 112.382562 104.69975 112.382562 104.69975 112.382562 
z
" style="fill: #ffffff"/>
   </g>
   <g id="PathCollection_1">
    <defs>
     <path id="me44798c009" d="M 0 2.738613 
C 0.726289 2.738613 1.422928 2.450055 1.936492 1.936492 
C 2.450055 1.422928 2.738613 0.726289 2.738613 0 
C 2.738613 -0.726289 2.450055 -1.422928 1.936492 -1.936492 
C 1.422928 -2.450055 0.726289 -2.738613 0 -2.738613 
C -0.726289 -2.738613 -1.422928 -2.450055 -1.936492 -1.936492 
C -2.450055 -1.422928 -2.738613 -0.726289 -2.738613 0 
C -2.738613 0.726289 -2.450055 1.422928 -1.936492 1.936492 
C -1.422928 2.450055 -0.726289 2.738613 0 2.738613 
z
" style="stroke: #000000"/>
    </defs>
    <g clip-path="url(#pd115123373)">
     <use xlink:href="#me44798c009" x="52.525977" y="82.246277" style="fill: #1f77b4; stroke: #000000"/>
     <use xlink:href="#me44798c009" x="57.743355" y="85.259905" style="fill: #1f77b4; stroke: #000000"/>
     <use xlink:href="#me44798c009" x="55.376436" y="77.777521" style="fill: #1f77b4; stroke: #000000"/>
     <use xlink:href="#me44798c009" x="62.11215" y="69.761035" style="fill: #1f77b4; stroke: #000000"/>
     <use xlink:href="#me44798c009" x="65.976618" y="66.221786" style="fill: #1f77b4; stroke: #000000"/>
     <use xlink:href="#me44798c009" x="70.183365" y="62.997166" style="fill: #1f77b4; stroke: #000000"/>
     <use xlink:href="#me44798c009" x="74.605021" y="60.184808" style="fill: #1f77b4; stroke: #000000"/>
     <use xlink:href="#me44798c009" x="84.096096" y="55.762887" style="fill: #1f77b4; stroke: #000000"/>
     <use xlink:href="#me44798c009" x="94.268731" y="53.040401" style="fill: #1f77b4; stroke: #000000"/>
     <use xlink:href="#me44798c009" x="95.311833" y="58.974617" style="fill: #1f77b4; stroke: #000000"/>
     <use xlink:href="#me44798c009" x="96.354935" y="64.908833" style="fill: #1f77b4; stroke: #000000"/>
     <use xlink:href="#me44798c009" x="97.398037" y="70.84305" style="fill: #1f77b4; stroke: #000000"/>
     <use xlink:href="#me44798c009" x="104.69975" y="52.130606" style="fill: #1f77b4; stroke: #000000"/>
     <use xlink:href="#me44798c009" x="109.93506" y="52.358486" style="fill: #1f77b4; stroke: #000000"/>
     <use xlink:href="#me44798c009" x="115.130769" y="53.040401" style="fill: #1f77b4; stroke: #000000"/>
     <use xlink:href="#me44798c009" x="125.303404" y="55.762887" style="fill: #1f77b4; stroke: #000000"/>
     <use xlink:href="#me44798c009" x="123.243039" y="61.424854" style="fill: #1f77b4; stroke: #000000"/>
     <use xlink:href="#me44798c009" x="134.794479" y="60.184808" style="fill: #1f77b4; stroke: #000000"/>
     <use xlink:href="#me44798c009" x="143.422882" y="66.221786" style="fill: #1f77b4; stroke: #000000"/>
     <use xlink:href="#me44798c009" x="156.873523" y="82.246277" style="fill: #1f77b4; stroke: #000000"/>
    </g>
   </g>
   <g id="matplotlib.axis_1">
    <g id="xtick_1">
     <g id="line2d_1">
      <path d="M 104.69975 112.382563 
L 104.69975 43.092813 
" clip-path="url(#pd115123373)" style="fill: none; stroke: #b0b0b0; stroke-width: 0.8; stroke-linecap: square"/>
     </g>
     <g id="text_1">
      <!-- 0$^\degree$ -->
      <g transform="translate(97.48975 32.955938)">
       <text>
        <tspan style="font: 14px 'DejaVu Sans'" x="0" y="-0.3671875">0</tspan>
        <tspan style="font: 9.8px 'DejaVu Sans'" x="9.041211" y="-5.7265625">°</tspan>
       </text>
      </g>
     </g>
    </g>
    <g id="xtick_2">
     <g id="line2d_2">
      <path d="M 104.69975 112.382563 
L 173.9895 112.382563 
" clip-path="url(#pd115123373)" style="fill: none; stroke: #b0b0b0; stroke-width: 0.8; stroke-linecap: square"/>
     </g>
     <g id="text_2">
      <!-- 90$^\degree$ -->
      <g transform="translate(176.3695 116.245688)">
       <text>
        <tspan style="font: 14px 'DejaVu Sans'" x="0 8.907227" y="-0.3671875">90</tspan>
        <tspan style="font: 9.8px 'DejaVu Sans'" x="17.948438" y="-5.7265625">°</tspan>
       </text>
      </g>
     </g>
    </g>
    <g id="xtick_3">
     <g id="line2d_3">
      <path d="M 104.69975 112.382563 
L 104.69975 181.672312 
" clip-path="url(#pd115123373)" style="fill: none; stroke: #b0b0b0; stroke-width: 0.8; stroke-linecap: square"/>
     </g>
     <g id="text_3">
      <!-- 180$^\degree$ -->
      <g transform="translate(88.59975 199.535437)">
       <text>
        <tspan style="font: 14px 'DejaVu Sans'" x="0 8.907227 17.814453" y="-0.3671875">180</tspan>
        <tspan style="font: 9.8px 'DejaVu Sans'" x="26.855664" y="-5.7265625">°</tspan>
       </text>
      </g>
     </g>
    </g>
    <g id="xtick_4">
     <g id="line2d_4">
      <path d="M 104.69975 112.382563 
L 35.41 112.382563 
" clip-path="url(#pd115123373)" style="fill: none; stroke: #b0b0b0; stroke-width: 0.8; stroke-linecap: square"/>
     </g>
     <g id="text_4">
      <!-- -90$^\degree$ -->
      <g transform="translate(7.2 116.245688)">
       <text>
        <tspan style="font: 14px 'DejaVu Sans'" x="0 5.051758 13.958984" y="-0.3671875">-90</tspan>
        <tspan style="font: 9.8px 'DejaVu Sans'" x="23.000195" y="-5.7265625">°</tspan>
       </text>
      </g>
     </g>
    </g>
   </g>
   <g id="matplotlib.axis_2"/>
   <g id="line2d_5">
    <path d="M 104.69975 112.382563 
L 104.578635 111.724143 
L 104.45752 111.065724 
L 104.336406 110.407304 
L 104.215291 109.748885 
L 104.094176 109.090465 
L 103.973061 108.432046 
L 103.851946 107.773626 
L 103.730832 107.115207 
L 103.609717 106.456787 
L 103.488602 105.798368 
L 103.367487 105.139949 
L 103.246372 104.481529 
L 103.125258 103.82311 
L 103.004143 103.16469 
L 102.883028 102.506271 
L 102.761913 101.847851 
L 102.640798 101.189432 
L 102.519684 100.531012 
L 102.398569 99.872593 
L 102.277454 99.214173 
L 102.156339 98.555754 
L 102.035224 97.897335 
L 101.91411 97.238915 
L 101.792995 96.580496 
L 101.67188 95.922076 
L 101.550765 95.263657 
L 101.42965 94.605237 
L 101.308536 93.946818 
L 101.187421 93.288398 
L 101.066306 92.629979 
L 100.945191 91.971559 
L 100.824076 91.31314 
L 100.702962 90.654721 
L 100.581847 89.996301 
L 100.460732 89.337882 
L 100.339617 88.679462 
L 100.218502 88.021043 
L 100.097388 87.362623 
L 99.976273 86.704204 
L 99.855158 86.045784 
L 99.734043 85.387365 
L 99.612928 84.728945 
L 99.491814 84.070526 
L 99.370699 83.412107 
L 99.249584 82.753687 
L 99.128469 82.095268 
L 99.007354 81.436848 
L 98.88624 80.778429 
L 98.765125 80.120009 
L 98.64401 79.46159 
L 98.522895 78.80317 
L 98.40178 78.144751 
L 98.280666 77.486331 
L 98.159551 76.827912 
L 98.038436 76.169493 
L 97.917321 75.511073 
L 97.796206 74.852654 
L 97.675092 74.194234 
L 97.553977 73.535815 
L 97.432862 72.877395 
L 97.311747 72.218976 
L 97.190632 71.560556 
L 97.069518 70.902137 
L 96.948403 70.243718 
L 96.827288 69.585298 
L 96.706173 68.926879 
L 96.585058 68.268459 
L 96.463944 67.61004 
L 96.342829 66.95162 
L 96.221714 66.293201 
L 96.100599 65.634781 
L 95.979484 64.976362 
L 95.85837 64.317942 
L 95.737255 63.659523 
L 95.61614 63.001104 
L 95.495025 62.342684 
L 95.37391 61.684265 
L 95.252796 61.025845 
L 95.131681 60.367426 
L 95.010566 59.709006 
L 94.889451 59.050587 
L 94.768336 58.392167 
L 94.647222 57.733748 
L 94.526107 57.075328 
L 94.404992 56.416909 
L 94.283877 55.75849 
L 94.162762 55.10007 
L 94.041648 54.441651 
L 93.920533 53.783231 
L 93.799418 53.124812 
L 93.678303 52.466392 
L 93.557188 51.807973 
L 93.436074 51.149553 
L 93.314959 50.491134 
L 93.193844 49.832714 
L 93.072729 49.174295 
L 92.951614 48.515876 
L 92.8305 47.857456 
L 92.709385 47.199037 
" clip-path="url(#pd115123373)" style="fill: none; stroke: #000000; stroke-width: 1.5; stroke-linecap: square"/>
   </g>
   <g id="line2d_6">
    <path d="M 82.896686 49.794326 
L 83.09062 49.727105 
L 83.28476 49.660484 
L 83.479107 49.594465 
L 83.673656 49.529048 
L 83.868408 49.464234 
L 84.063359 49.400023 
L 84.258508 49.336417 
L 84.453853 49.273415 
L 84.649392 49.211018 
L 84.845124 49.149227 
L 85.041046 49.088043 
L 85.237156 49.027465 
L 85.433454 48.967495 
L 85.629936 48.908134 
L 85.826601 48.849381 
L 86.023446 48.791238 
L 86.220471 48.733704 
L 86.417674 48.676781 
L 86.615051 48.620469 
L 86.812602 48.564768 
L 87.010325 48.50968 
L 87.208217 48.455204 
L 87.406277 48.401341 
L 87.604503 48.348092 
L 87.802893 48.295457 
L 88.001445 48.243436 
L 88.200157 48.192031 
L 88.399027 48.141241 
L 88.598053 48.091068 
L 88.797234 48.041511 
L 88.996568 47.992571 
L 89.196052 47.944249 
L 89.395685 47.896545 
L 89.595465 47.849459 
L 89.795389 47.802992 
L 89.995456 47.757145 
L 90.195665 47.711917 
L 90.396012 47.667309 
L 90.596497 47.623323 
L 90.797117 47.579957 
L 90.99787 47.537213 
L 91.198755 47.49509 
L 91.399769 47.45359 
L 91.600911 47.412713 
L 91.802179 47.372459 
L 92.00357 47.332828 
L 92.205083 47.293822 
L 92.406715 47.255439 
L 92.608466 47.217681 
L 92.810332 47.180548 
L 93.012313 47.144041 
L 93.214406 47.108159 
L 93.416609 47.072903 
L 93.61892 47.038274 
L 93.821337 47.004271 
L 94.023859 46.970895 
L 94.226483 46.938147 
L 94.429207 46.906026 
L 94.63203 46.874533 
L 94.83495 46.843669 
L 95.037964 46.813433 
L 95.241071 46.783826 
L 95.444268 46.754848 
L 95.647555 46.726499 
L 95.850928 46.69878 
L 96.054386 46.671691 
L 96.257927 46.645233 
L 96.461549 46.619405 
L 96.665249 46.594207 
L 96.869027 46.569641 
L 97.07288 46.545705 
L 97.276807 46.522401 
L 97.480804 46.499729 
L 97.684871 46.477689 
L 97.889005 46.456281 
L 98.093204 46.435505 
L 98.297466 46.415361 
L 98.50179 46.39585 
L 98.706174 46.376972 
L 98.910615 46.358727 
L 99.115111 46.341116 
L 99.319661 46.324137 
L 99.524263 46.307792 
L 99.728914 46.292081 
L 99.933613 46.277004 
L 100.138357 46.262561 
L 100.343146 46.248752 
L 100.547976 46.235577 
L 100.752846 46.223037 
L 100.957754 46.211131 
L 101.162697 46.19986 
L 101.367675 46.189223 
L 101.572685 46.179221 
L 101.777724 46.169855 
L 101.982792 46.161123 
L 102.187885 46.153027 
L 102.393003 46.145565 
L 102.598143 46.138739 
L 102.803303 46.132548 
" clip-path="url(#pd115123373)" style="fill: none; stroke: #000000; stroke-width: 1.5; stroke-linecap: square"/>
   </g>
   <g id="patch_3">
    <path d="M 104.69975 43.092813 
C 95.600703 43.092813 86.590134 44.885126 78.183711 48.367181 
C 69.777288 51.849235 62.138495 56.953313 55.704498 63.38731 
C 49.2705 69.821308 44.166423 77.4601 40.684368 85.866523 
C 37.202314 94.272946 35.41 103.283516 35.41 112.382563 
C 35.41 121.481609 37.202314 130.492179 40.684368 138.898602 
C 44.166423 147.305025 49.2705 154.943817 55.704498 161.377815 
C 62.138495 167.811812 69.777288 172.91589 78.183711 176.397944 
C 86.590134 179.879999 95.600703 181.672312 104.69975 181.672312 
C 113.798797 181.672312 122.809366 179.879999 131.215789 176.397944 
C 139.622212 172.91589 147.261005 167.811812 153.695002 161.377815 
C 160.129 154.943817 165.233077 147.305025 168.715132 138.898602 
C 172.197186 130.492179 173.9895 121.481609 173.9895 112.382563 
C 173.9895 103.283516 172.197186 94.272946 168.715132 85.866523 
C 165.233077 77.4601 160.129 69.821308 153.695002 63.38731 
C 147.261005 56.953313 139.622212 51.849235 131.215789 48.367181 
C 122.809366 44.885126 113.798797 43.092813 104.69975 43.092813 
" style="fill: none; stroke: #000000; stroke-width: 0.8; stroke-linejoin: miter; stroke-linecap: square"/>
   </g>
   <g id="text_5">
    <g id="patch_4">
     <path d="M 73.74975 136.289438 
L 135.64975 136.289438 
L 135.64975 88.475688 
L 73.74975 88.475688 
z
" style="fill: #ffffff; stroke: #000000; stroke-linejoin: miter"/>
    </g>
    <!-- $\mu$ = -10.42$^\degree$ -->
    <g transform="translate(76.04975 99.075688)">
     <text>
      <tspan style="font: oblique 10px 'DejaVu Sans'" x="0" y="-0.9765625">μ</tspan>
      <tspan style="font: 10px 'DejaVu Sans'" x="6.362305 9.541016 17.919922 21.098633 24.707031 31.069336 37.431641 40.610352 46.972656" y="-0.9765625"> = -10.42</tspan>
      <tspan style="font: 7px 'DejaVu Sans'" x="53.430664" y="-4.8046875">°</tspan>
     </text>
    </g>
    <!-- $s0$ = 33.34$^\degree$ -->
    <g transform="translate(75.24975 110.293813)">
     <text>
      <tspan style="font: oblique 10px 'DejaVu Sans'" x="0" y="-0.9765625">s</tspan>
      <tspan style="font: 10px 'DejaVu Sans'" x="5.209961 11.572266 14.750977 23.129883 26.308594 32.670898 39.033203 42.211914 48.574219" y="-0.9765625">0 = 33.34</tspan>
      <tspan style="font: 7px 'DejaVu Sans'" x="55.032227" y="-4.8046875">°</tspan>
     </text>
    </g>
    <!-- $V = 0.83$ -->
    <g transform="translate(84.09975 121.491625)">
     <text>
      <tspan style="font: oblique 10px 'DejaVu Sans'" x="0" y="-0.578125">V</tspan>
      <tspan style="font: 10px 'DejaVu Sans'" x="8.789062 19.116211 25.478516 28.407227 34.769531" y="-0.578125">=0.83</tspan>
     </text>
    </g>
    <!-- $p$ &lt; 1e-06 -->
    <g transform="translate(79.69975 132.689437)">
     <text>
      <tspan style="font: oblique 10px 'DejaVu Sans'" x="0" y="-0.578125">p</tspan>
      <tspan style="font: 10px 'DejaVu Sans'" x="6.347656 9.526367 17.905273 21.083984 27.446289 33.598633 37.207031 43.569336" y="-0.578125"> &lt; 1e-06</tspan>
     </text>
    </g>
   </g>
   <g id="text_6">
    <!-- A) Exit 1 $\rightarrow$ Exit 2 -->
    <g transform="translate(50.93975 16.318125)">
     <text>
      <tspan style="font: 12px 'DejaVu Sans'" x="0 8.208984 12.890625 16.705078 24.287109 31.388672 34.722656 39.427734 43.242188 50.876953 57.029297 69.421875 73.236328 80.818359 87.919922 91.253906 95.958984 99.773438" y="-0.875">A) Exit 1 → Exit 2</tspan>
     </text>
    </g>
   </g>
  </g>
  <g id="axes_2">
   <g id="patch_5">
    <path d="M 384.5895 112.382562 
C 384.5895 103.283516 382.797186 94.272946 379.315132 85.866523 
C 375.833077 77.4601 370.729 69.821308 364.295002 63.38731 
C 357.861005 56.953313 350.222212 51.849235 341.815789 48.367181 
C 333.409366 44.885126 324.398797 43.092813 315.29975 43.092813 
C 306.200703 43.092813 297.190134 44.885126 288.783711 48.367181 
C 280.377288 51.849235 272.738495 56.953313 266.304498 63.38731 
C 259.8705 69.821308 254.766423 77.4601 251.284368 85.866523 
C 247.802314 94.272946 246.01 103.283516 246.01 112.382562 
C 246.01 121.481609 247.802314 130.492179 251.284368 138.898602 
C 254.766423 147.305025 259.8705 154.943817 266.304498 161.377815 
C 272.738495 167.811812 280.377288 172.91589 288.783711 176.397944 
C 297.190134 179.879999 306.200703 181.672312 315.29975 181.672312 
C 324.398797 181.672312 333.409366 179.879999 341.815789 176.397944 
C 350.222212 172.91589 357.861005 167.811812 364.295002 161.377815 
C 370.729 154.943817 375.833077 147.305025 379.315132 138.898602 
C 382.797186 130.492179 384.5895 121.481609 384.5895 112.382563 
M 315.29975 112.382562 
C 315.29975 112.382562 315.29975 112.382562 315.29975 112.382562 
C 315.29975 112.382562 315.29975 112.382562 315.29975 112.382562 
C 315.29975 112.382562 315.29975 112.382562 315.29975 112.382562 
C 315.29975 112.382562 315.29975 112.382562 315.29975 112.382562 
C 315.29975 112.382562 315.29975 112.382562 315.29975 112.382562 
C 315.29975 112.382562 315.29975 112.382562 315.29975 112.382562 
C 315.29975 112.382562 315.29975 112.382562 315.29975 112.382562 
C 315.29975 112.382562 315.29975 112.382562 315.29975 112.382562 
C 315.29975 112.382562 315.29975 112.382562 315.29975 112.382562 
C 315.29975 112.382562 315.29975 112.382562 315.29975 112.382562 
C 315.29975 112.382562 315.29975 112.382562 315.29975 112.382562 
C 315.29975 112.382562 315.29975 112.382562 315.29975 112.382562 
C 315.29975 112.382562 315.29975 112.382562 315.29975 112.382562 
C 315.29975 112.382562 315.29975 112.382562 315.29975 112.382562 
C 315.29975 112.382562 315.29975 112.382562 315.29975 112.382562 
C 315.29975 112.382562 315.29975 112.382562 315.29975 112.382562 
z
" style="fill: #ffffff"/>
   </g>
   <g id="PathCollection_2">
    <g clip-path="url(#p348a861194)">
     <use xlink:href="#me44798c009" x="260.704754" y="86.89365" style="fill: #1f77b4; stroke: #000000"/>
     <use xlink:href="#me44798c009" x="276.576618" y="66.221786" style="fill: #1f77b4; stroke: #000000"/>
     <use xlink:href="#me44798c009" x="280.783365" y="62.997166" style="fill: #1f77b4; stroke: #000000"/>
     <use xlink:href="#me44798c009" x="294.696096" y="55.762887" style="fill: #1f77b4; stroke: #000000"/>
     <use xlink:href="#me44798c009" x="299.751925" y="54.171194" style="fill: #1f77b4; stroke: #000000"/>
     <use xlink:href="#me44798c009" x="304.868731" y="53.040401" style="fill: #1f77b4; stroke: #000000"/>
     <use xlink:href="#me44798c009" x="305.911833" y="58.974617" style="fill: #1f77b4; stroke: #000000"/>
     <use xlink:href="#me44798c009" x="306.954935" y="64.908833" style="fill: #1f77b4; stroke: #000000"/>
     <use xlink:href="#me44798c009" x="307.998037" y="70.84305" style="fill: #1f77b4; stroke: #000000"/>
     <use xlink:href="#me44798c009" x="309.041139" y="76.777266" style="fill: #1f77b4; stroke: #000000"/>
     <use xlink:href="#me44798c009" x="310.06444" y="52.358486" style="fill: #1f77b4; stroke: #000000"/>
     <use xlink:href="#me44798c009" x="315.29975" y="52.130606" style="fill: #1f77b4; stroke: #000000"/>
     <use xlink:href="#me44798c009" x="320.53506" y="52.358486" style="fill: #1f77b4; stroke: #000000"/>
     <use xlink:href="#me44798c009" x="325.730769" y="53.040401" style="fill: #1f77b4; stroke: #000000"/>
     <use xlink:href="#me44798c009" x="330.847575" y="54.171194" style="fill: #1f77b4; stroke: #000000"/>
     <use xlink:href="#me44798c009" x="335.903404" y="55.762887" style="fill: #1f77b4; stroke: #000000"/>
     <use xlink:href="#me44798c009" x="345.394479" y="60.184808" style="fill: #1f77b4; stroke: #000000"/>
     <use xlink:href="#me44798c009" x="342.385006" y="65.404584" style="fill: #1f77b4; stroke: #000000"/>
     <use xlink:href="#me44798c009" x="349.816135" y="62.997166" style="fill: #1f77b4; stroke: #000000"/>
     <use xlink:href="#me44798c009" x="346.364497" y="67.935705" style="fill: #1f77b4; stroke: #000000"/>
    </g>
   </g>
   <g id="matplotlib.axis_3">
    <g id="xtick_5">
     <g id="line2d_7">
      <path d="M 315.29975 112.382563 
L 315.29975 43.092813 
" clip-path="url(#p348a861194)" style="fill: none; stroke: #b0b0b0; stroke-width: 0.8; stroke-linecap: square"/>
     </g>
     <g id="text_7">
      <!-- 0$^\degree$ -->
      <g transform="translate(308.08975 32.955938)">
       <text>
        <tspan style="font: 14px 'DejaVu Sans'" x="0" y="-0.3671875">0</tspan>
        <tspan style="font: 9.8px 'DejaVu Sans'" x="9.041211" y="-5.7265625">°</tspan>
       </text>
      </g>
     </g>
    </g>
    <g id="xtick_6">
     <g id="line2d_8">
      <path d="M 315.29975 112.382563 
L 384.5895 112.382563 
" clip-path="url(#p348a861194)" style="fill: none; stroke: #b0b0b0; stroke-width: 0.8; stroke-linecap: square"/>
     </g>
     <g id="text_8">
      <!-- 90$^\degree$ -->
      <g transform="translate(386.9695 116.245688)">
       <text>
        <tspan style="font: 14px 'DejaVu Sans'" x="0 8.907227" y="-0.3671875">90</tspan>
        <tspan style="font: 9.8px 'DejaVu Sans'" x="17.948438" y="-5.7265625">°</tspan>
       </text>
      </g>
     </g>
    </g>
    <g id="xtick_7">
     <g id="line2d_9">
      <path d="M 315.29975 112.382563 
L 315.29975 181.672312 
" clip-path="url(#p348a861194)" style="fill: none; stroke: #b0b0b0; stroke-width: 0.8; stroke-linecap: square"/>
     </g>
     <g id="text_9">
      <!-- 180$^\degree$ -->
      <g transform="translate(299.19975 199.535437)">
       <text>
        <tspan style="font: 14px 'DejaVu Sans'" x="0 8.907227 17.814453" y="-0.3671875">180</tspan>
        <tspan style="font: 9.8px 'DejaVu Sans'" x="26.855664" y="-5.7265625">°</tspan>
       </text>
      </g>
     </g>
    </g>
    <g id="xtick_8">
     <g id="line2d_10">
      <path d="M 315.29975 112.382563 
L 246.01 112.382563 
" clip-path="url(#p348a861194)" style="fill: none; stroke: #b0b0b0; stroke-width: 0.8; stroke-linecap: square"/>
     </g>
     <g id="text_10">
      <!-- -90$^\degree$ -->
      <g transform="translate(217.8 116.245688)">
       <text>
        <tspan style="font: 14px 'DejaVu Sans'" x="0 5.051758 13.958984" y="-0.3671875">-90</tspan>
        <tspan style="font: 9.8px 'DejaVu Sans'" x="23.000195" y="-5.7265625">°</tspan>
       </text>
      </g>
     </g>
    </g>
   </g>
   <g id="matplotlib.axis_4"/>
   <g id="line2d_11">
    <path d="M 315.29975 112.382563 
L 315.274998 111.713554 
L 315.250245 111.044546 
L 315.225493 110.375537 
L 315.200741 109.706529 
L 315.175989 109.03752 
L 315.151236 108.368512 
L 315.126484 107.699503 
L 315.101732 107.030495 
L 315.076979 106.361487 
L 315.052227 105.692478 
L 315.027475 105.02347 
L 315.002722 104.354461 
L 314.97797 103.685453 
L 314.953218 103.016444 
L 314.928466 102.347436 
L 314.903713 101.678427 
L 314.878961 101.009419 
L 314.854209 100.340411 
L 314.829456 99.671402 
L 314.804704 99.002394 
L 314.779952 98.333385 
L 314.755199 97.664377 
L 314.730447 96.995368 
L 314.705695 96.32636 
L 314.680943 95.657351 
L 314.65619 94.988343 
L 314.631438 94.319335 
L 314.606686 93.650326 
L 314.581933 92.981318 
L 314.557181 92.312309 
L 314.532429 91.643301 
L 314.507676 90.974292 
L 314.482924 90.305284 
L 314.458172 89.636275 
L 314.43342 88.967267 
L 314.408667 88.298259 
L 314.383915 87.62925 
L 314.359163 86.960242 
L 314.33441 86.291233 
L 314.309658 85.622225 
L 314.284906 84.953216 
L 314.260153 84.284208 
L 314.235401 83.6152 
L 314.210649 82.946191 
L 314.185897 82.277183 
L 314.161144 81.608174 
L 314.136392 80.939166 
L 314.11164 80.270157 
L 314.086887 79.601149 
L 314.062135 78.93214 
L 314.037383 78.263132 
L 314.01263 77.594124 
L 313.987878 76.925115 
L 313.963126 76.256107 
L 313.938374 75.587098 
L 313.913621 74.91809 
L 313.888869 74.249081 
L 313.864117 73.580073 
L 313.839364 72.911064 
L 313.814612 72.242056 
L 313.78986 71.573048 
L 313.765107 70.904039 
L 313.740355 70.235031 
L 313.715603 69.566022 
L 313.690851 68.897014 
L 313.666098 68.228005 
L 313.641346 67.558997 
L 313.616594 66.889988 
L 313.591841 66.22098 
L 313.567089 65.551972 
L 313.542337 64.882963 
L 313.517584 64.213955 
L 313.492832 63.544946 
L 313.46808 62.875938 
L 313.443328 62.206929 
L 313.418575 61.537921 
L 313.393823 60.868913 
L 313.369071 60.199904 
L 313.344318 59.530896 
L 313.319566 58.861887 
L 313.294814 58.192879 
L 313.270061 57.52387 
L 313.245309 56.854862 
L 313.220557 56.185853 
L 313.195805 55.516845 
L 313.171052 54.847837 
L 313.1463 54.178828 
L 313.121548 53.50982 
L 313.096795 52.840811 
L 313.072043 52.171803 
L 313.047291 51.502794 
L 313.022539 50.833786 
L 312.997786 50.164777 
L 312.973034 49.495769 
L 312.948282 48.826761 
L 312.923529 48.157752 
L 312.898777 47.488744 
L 312.874025 46.819735 
L 312.849272 46.150727 
" clip-path="url(#p348a861194)" style="fill: none; stroke: #000000; stroke-width: 1.5; stroke-linecap: square"/>
   </g>
   <g id="line2d_12">
    <path d="M 305.672459 46.808359 
L 305.816603 46.787358 
L 305.960792 46.766674 
L 306.105026 46.746308 
L 306.249305 46.726258 
L 306.393628 46.706525 
L 306.537993 46.68711 
L 306.682401 46.668012 
L 306.826851 46.649231 
L 306.971342 46.630768 
L 307.115872 46.612622 
L 307.260443 46.594794 
L 307.405052 46.577284 
L 307.549699 46.560092 
L 307.694384 46.543218 
L 307.839105 46.526662 
L 307.983862 46.510424 
L 308.128655 46.494504 
L 308.273483 46.478902 
L 308.418344 46.463619 
L 308.563239 46.448654 
L 308.708166 46.434007 
L 308.853125 46.41968 
L 308.998115 46.40567 
L 309.143135 46.39198 
L 309.288186 46.378608 
L 309.433265 46.365555 
L 309.578373 46.352821 
L 309.723508 46.340406 
L 309.86867 46.32831 
L 310.013859 46.316533 
L 310.159073 46.305075 
L 310.304312 46.293936 
L 310.449575 46.283117 
L 310.594861 46.272617 
L 310.74017 46.262436 
L 310.885501 46.252575 
L 311.030854 46.243033 
L 311.176227 46.23381 
L 311.32162 46.224907 
L 311.467032 46.216324 
L 311.612463 46.20806 
L 311.757911 46.200116 
L 311.903377 46.192491 
L 312.048859 46.185186 
L 312.194357 46.178201 
L 312.33987 46.171536 
L 312.485397 46.165191 
L 312.630937 46.159165 
L 312.776491 46.15346 
L 312.922057 46.148074 
L 313.067634 46.143008 
L 313.213222 46.138262 
L 313.35882 46.133837 
L 313.504428 46.129731 
L 313.650044 46.125945 
L 313.795668 46.122479 
L 313.941299 46.119334 
L 314.086937 46.116508 
L 314.232581 46.114002 
L 314.37823 46.111817 
L 314.523883 46.109952 
L 314.66954 46.108407 
L 314.815201 46.107182 
L 314.960863 46.106277 
L 315.106527 46.105692 
L 315.252192 46.105427 
L 315.397858 46.105483 
L 315.543523 46.105859 
L 315.689186 46.106554 
L 315.834848 46.10757 
L 315.980507 46.108907 
L 316.126163 46.110563 
L 316.271815 46.112539 
L 316.417463 46.114836 
L 316.563104 46.117452 
L 316.70874 46.120389 
L 316.854369 46.123646 
L 316.99999 46.127222 
L 317.145604 46.131119 
L 317.291208 46.135336 
L 317.436803 46.139873 
L 317.582387 46.14473 
L 317.72796 46.149907 
L 317.873522 46.155403 
L 318.019071 46.16122 
L 318.164607 46.167357 
L 318.310129 46.173813 
L 318.455637 46.180589 
L 318.601129 46.187685 
L 318.746606 46.195101 
L 318.892066 46.202836 
L 319.037508 46.210891 
L 319.182933 46.219266 
L 319.328338 46.22796 
L 319.473724 46.236974 
L 319.61909 46.246308 
L 319.764436 46.255961 
L 319.909759 46.265933 
L 320.05506 46.276225 
" clip-path="url(#p348a861194)" style="fill: none; stroke: #000000; stroke-width: 1.5; stroke-linecap: square"/>
   </g>
   <g id="patch_6">
    <path d="M 315.29975 43.092813 
C 306.200703 43.092813 297.190134 44.885126 288.783711 48.367181 
C 280.377288 51.849235 272.738495 56.953313 266.304498 63.38731 
C 259.8705 69.821308 254.766423 77.4601 251.284368 85.866523 
C 247.802314 94.272946 246.01 103.283516 246.01 112.382563 
C 246.01 121.481609 247.802314 130.492179 251.284368 138.898602 
C 254.766423 147.305025 259.8705 154.943817 266.304498 161.377815 
C 272.738495 167.811812 280.377288 172.91589 288.783711 176.397944 
C 297.190134 179.879999 306.200703 181.672312 315.29975 181.672312 
C 324.398797 181.672312 333.409366 179.879999 341.815789 176.397944 
C 350.222212 172.91589 357.861005 167.811812 364.295002 161.377815 
C 370.729 154.943817 375.833077 147.305025 379.315132 138.898602 
C 382.797186 130.492179 384.5895 121.481609 384.5895 112.382563 
C 384.5895 103.283516 382.797186 94.272946 379.315132 85.866523 
C 375.833077 77.4601 370.729 69.821308 364.295002 63.38731 
C 357.861005 56.953313 350.222212 51.849235 341.815789 48.367181 
C 333.409366 44.885126 324.398797 43.092813 315.29975 43.092813 
" style="fill: none; stroke: #000000; stroke-width: 0.8; stroke-linejoin: miter; stroke-linecap: square"/>
   </g>
   <g id="text_11">
    <g id="patch_7">
     <path d="M 284.34975 136.289438 
L 346.24975 136.289438 
L 346.24975 88.475688 
L 284.34975 88.475688 
z
" style="fill: #ffffff; stroke: #000000; stroke-linejoin: miter"/>
    </g>
    <!-- $\mu$ = -2.12$^\degree$ -->
    <g transform="translate(289.84975 99.075688)">
     <text>
      <tspan style="font: oblique 10px 'DejaVu Sans'" x="0" y="-0.9765625">μ</tspan>
      <tspan style="font: 10px 'DejaVu Sans'" x="6.362305 9.541016 17.919922 21.098633 24.707031 31.069336 34.248047 40.610352" y="-0.9765625"> = -2.12</tspan>
      <tspan style="font: 7px 'DejaVu Sans'" x="47.068359" y="-4.8046875">°</tspan>
     </text>
    </g>
    <!-- $s0$ = 25.55$^\degree$ -->
    <g transform="translate(285.84975 110.293813)">
     <text>
      <tspan style="font: oblique 10px 'DejaVu Sans'" x="0" y="-0.9765625">s</tspan>
      <tspan style="font: 10px 'DejaVu Sans'" x="5.209961 11.572266 14.750977 23.129883 26.308594 32.670898 39.033203 42.211914 48.574219" y="-0.9765625">0 = 25.55</tspan>
      <tspan style="font: 7px 'DejaVu Sans'" x="55.032227" y="-4.8046875">°</tspan>
     </text>
    </g>
    <!-- $V = 0.90$ -->
    <g transform="translate(294.59975 121.491625)">
     <text>
      <tspan style="font: oblique 10px 'DejaVu Sans'" x="0" y="-0.578125">V</tspan>
      <tspan style="font: 10px 'DejaVu Sans'" x="8.789062 19.116211 25.478516 28.657227 35.019531" y="-0.578125">=0.90</tspan>
     </text>
    </g>
    <!-- $p$ &lt; 1e-06 -->
    <g transform="translate(290.29975 132.689437)">
     <text>
      <tspan style="font: oblique 10px 'DejaVu Sans'" x="0" y="-0.578125">p</tspan>
      <tspan style="font: 10px 'DejaVu Sans'" x="6.347656 9.526367 17.905273 21.083984 27.446289 33.598633 37.207031 43.569336" y="-0.578125"> &lt; 1e-06</tspan>
     </text>
    </g>
   </g>
   <g id="text_12">
    <!-- B) Exit 1 $\rightarrow$ Exit 3 -->
    <g transform="translate(261.53975 16.318125)">
     <text>
      <tspan style="font: 12px 'DejaVu Sans'" x="0 8.232422 12.914062 16.728516 24.310547 31.412109 34.746094 39.451172 43.265625 50.900391 57.052734 69.445312 73.259766 80.841797 87.943359 91.277344 95.982422 99.796875" y="-0.875">B) Exit 1 → Exit 3</tspan>
     </text>
    </g>
   </g>
  </g>
  <g id="axes_3">
   <g id="patch_8">
    <path d="M 173.9895 322.982562 
C 173.9895 313.883516 172.197186 304.872946 168.715132 296.466523 
C 165.233077 288.0601 160.129 280.421308 153.695002 273.98731 
C 147.261005 267.553313 139.622212 262.449235 131.215789 258.967181 
C 122.809366 255.485126 113.798797 253.692812 104.69975 253.692812 
C 95.600703 253.692812 86.590134 255.485126 78.183711 258.967181 
C 69.777288 262.449235 62.138495 267.553313 55.704498 273.98731 
C 49.2705 280.421308 44.166423 288.0601 40.684368 296.466523 
C 37.202314 304.872946 35.41 313.883516 35.41 322.982562 
C 35.41 332.081609 37.202314 341.092179 40.684368 349.498602 
C 44.166423 357.905025 49.2705 365.543817 55.704498 371.977815 
C 62.138495 378.411812 69.777288 383.51589 78.183711 386.997944 
C 86.590134 390.479999 95.600703 392.272312 104.69975 392.272312 
C 113.798797 392.272312 122.809366 390.479999 131.215789 386.997944 
C 139.622212 383.51589 147.261005 378.411812 153.695002 371.977815 
C 160.129 365.543817 165.233077 357.905025 168.715132 349.498602 
C 172.197186 341.092179 173.9895 332.081609 173.9895 322.982562 
M 104.69975 322.982562 
C 104.69975 322.982562 104.69975 322.982562 104.69975 322.982562 
C 104.69975 322.982562 104.69975 322.982562 104.69975 322.982562 
C 104.69975 322.982562 104.69975 322.982562 104.69975 322.982562 
C 104.69975 322.982562 104.69975 322.982562 104.69975 322.982562 
C 104.69975 322.982562 104.69975 322.982562 104.69975 322.982562 
C 104.69975 322.982562 104.69975 322.982562 104.69975 322.982562 
C 104.69975 322.982562 104.69975 322.982562 104.69975 322.982562 
C 104.69975 322.982562 104.69975 322.982562 104.69975 322.982562 
C 104.69975 322.982562 104.69975 322.982562 104.69975 322.982562 
C 104.69975 322.982562 104.69975 322.982562 104.69975 322.982562 
C 104.69975 322.982562 104.69975 322.982562 104.69975 322.982562 
C 104.69975 322.982562 104.69975 322.982562 104.69975 322.982562 
C 104.69975 322.982562 104.69975 322.982562 104.69975 322.982562 
C 104.69975 322.982562 104.69975 322.982562 104.69975 322.982562 
C 104.69975 322.982562 104.69975 322.982562 104.69975 322.982562 
C 104.69975 322.982562 104.69975 322.982562 104.69975 322.982562 
z
" style="fill: #ffffff"/>
   </g>
   <g id="PathCollection_3">
    <g clip-path="url(#p2e5a75e122)">
     <use xlink:href="#me44798c009" x="46.516405" y="307.330196" style="fill: #1f77b4; stroke: #000000"/>
     <use xlink:href="#me44798c009" x="52.334739" y="308.895432" style="fill: #1f77b4; stroke: #000000"/>
     <use xlink:href="#me44798c009" x="50.104754" y="297.49365" style="fill: #1f77b4; stroke: #000000"/>
     <use xlink:href="#me44798c009" x="55.564254" y="300.042541" style="fill: #1f77b4; stroke: #000000"/>
     <use xlink:href="#me44798c009" x="55.376436" y="288.377521" style="fill: #1f77b4; stroke: #000000"/>
     <use xlink:href="#me44798c009" x="58.569824" y="284.222684" style="fill: #1f77b4; stroke: #000000"/>
     <use xlink:href="#me44798c009" x="63.182817" y="288.098672" style="fill: #1f77b4; stroke: #000000"/>
     <use xlink:href="#me44798c009" x="67.795809" y="291.974659" style="fill: #1f77b4; stroke: #000000"/>
     <use xlink:href="#me44798c009" x="72.408802" y="295.850647" style="fill: #1f77b4; stroke: #000000"/>
     <use xlink:href="#me44798c009" x="62.11215" y="280.361035" style="fill: #1f77b4; stroke: #000000"/>
     <use xlink:href="#me44798c009" x="70.183365" y="273.597166" style="fill: #1f77b4; stroke: #000000"/>
     <use xlink:href="#me44798c009" x="74.605021" y="270.784808" style="fill: #1f77b4; stroke: #000000"/>
     <use xlink:href="#me44798c009" x="79.254321" y="268.367286" style="fill: #1f77b4; stroke: #000000"/>
     <use xlink:href="#me44798c009" x="84.096096" y="266.362887" style="fill: #1f77b4; stroke: #000000"/>
     <use xlink:href="#me44798c009" x="89.151925" y="264.771194" style="fill: #1f77b4; stroke: #000000"/>
     <use xlink:href="#me44798c009" x="94.268731" y="263.640401" style="fill: #1f77b4; stroke: #000000"/>
     <use xlink:href="#me44798c009" x="99.46444" y="262.958486" style="fill: #1f77b4; stroke: #000000"/>
     <use xlink:href="#me44798c009" x="104.69975" y="262.730606" style="fill: #1f77b4; stroke: #000000"/>
     <use xlink:href="#me44798c009" x="130.145179" y="268.367286" style="fill: #1f77b4; stroke: #000000"/>
     <use xlink:href="#me44798c009" x="143.422882" y="276.821786" style="fill: #1f77b4; stroke: #000000"/>
    </g>
   </g>
   <g id="matplotlib.axis_5">
    <g id="xtick_9">
     <g id="line2d_13">
      <path d="M 104.69975 322.982562 
L 104.69975 253.692812 
" clip-path="url(#p2e5a75e122)" style="fill: none; stroke: #b0b0b0; stroke-width: 0.8; stroke-linecap: square"/>
     </g>
     <g id="text_13">
      <!-- 0$^\degree$ -->
      <g transform="translate(97.48975 243.555937)">
       <text>
        <tspan style="font: 14px 'DejaVu Sans'" x="0" y="-0.3671875">0</tspan>
        <tspan style="font: 9.8px 'DejaVu Sans'" x="9.041211" y="-5.7265625">°</tspan>
       </text>
      </g>
     </g>
    </g>
    <g id="xtick_10">
     <g id="line2d_14">
      <path d="M 104.69975 322.982562 
L 173.9895 322.982562 
" clip-path="url(#p2e5a75e122)" style="fill: none; stroke: #b0b0b0; stroke-width: 0.8; stroke-linecap: square"/>
     </g>
     <g id="text_14">
      <!-- 90$^\degree$ -->
      <g transform="translate(176.3695 326.845687)">
       <text>
        <tspan style="font: 14px 'DejaVu Sans'" x="0 8.907227" y="-0.3671875">90</tspan>
        <tspan style="font: 9.8px 'DejaVu Sans'" x="17.948438" y="-5.7265625">°</tspan>
       </text>
      </g>
     </g>
    </g>
    <g id="xtick_11">
     <g id="line2d_15">
      <path d="M 104.69975 322.982562 
L 104.69975 392.272312 
" clip-path="url(#p2e5a75e122)" style="fill: none; stroke: #b0b0b0; stroke-width: 0.8; stroke-linecap: square"/>
     </g>
     <g id="text_15">
      <!-- 180$^\degree$ -->
      <g transform="translate(88.59975 410.135437)">
       <text>
        <tspan style="font: 14px 'DejaVu Sans'" x="0 8.907227 17.814453" y="-0.3671875">180</tspan>
        <tspan style="font: 9.8px 'DejaVu Sans'" x="26.855664" y="-5.7265625">°</tspan>
       </text>
      </g>
     </g>
    </g>
    <g id="xtick_12">
     <g id="line2d_16">
      <path d="M 104.69975 322.982562 
L 35.41 322.982562 
" clip-path="url(#p2e5a75e122)" style="fill: none; stroke: #b0b0b0; stroke-width: 0.8; stroke-linecap: square"/>
     </g>
     <g id="text_16">
      <!-- -90$^\degree$ -->
      <g transform="translate(7.2 326.845687)">
       <text>
        <tspan style="font: 14px 'DejaVu Sans'" x="0 5.051758 13.958984" y="-0.3671875">-90</tspan>
        <tspan style="font: 9.8px 'DejaVu Sans'" x="23.000195" y="-5.7265625">°</tspan>
       </text>
      </g>
     </g>
    </g>
   </g>
   <g id="matplotlib.axis_6"/>
   <g id="line2d_17">
    <path d="M 104.69975 322.982562 
L 104.32734 322.426239 
L 103.95493 321.869916 
L 103.58252 321.313592 
L 103.21011 320.757269 
L 102.8377 320.200946 
L 102.46529 319.644622 
L 102.09288 319.088299 
L 101.720469 318.531975 
L 101.348059 317.975652 
L 100.975649 317.419329 
L 100.603239 316.863005 
L 100.230829 316.306682 
L 99.858419 315.750358 
L 99.486009 315.194035 
L 99.113599 314.637712 
L 98.741189 314.081388 
L 98.368779 313.525065 
L 97.996369 312.968741 
L 97.623959 312.412418 
L 97.251549 311.856095 
L 96.879139 311.299771 
L 96.506729 310.743448 
L 96.134318 310.187125 
L 95.761908 309.630801 
L 95.389498 309.074478 
L 95.017088 308.518154 
L 94.644678 307.961831 
L 94.272268 307.405508 
L 93.899858 306.849184 
L 93.527448 306.292861 
L 93.155038 305.736537 
L 92.782628 305.180214 
L 92.410218 304.623891 
L 92.037808 304.067567 
L 91.665398 303.511244 
L 91.292988 302.95492 
L 90.920578 302.398597 
L 90.548167 301.842274 
L 90.175757 301.28595 
L 89.803347 300.729627 
L 89.430937 300.173304 
L 89.058527 299.61698 
L 88.686117 299.060657 
L 88.313707 298.504333 
L 87.941297 297.94801 
L 87.568887 297.391687 
L 87.196477 296.835363 
L 86.824067 296.27904 
L 86.451657 295.722716 
L 86.079247 295.166393 
L 85.706837 294.61007 
L 85.334427 294.053746 
L 84.962016 293.497423 
L 84.589606 292.941099 
L 84.217196 292.384776 
L 83.844786 291.828453 
L 83.472376 291.272129 
L 83.099966 290.715806 
L 82.727556 290.159483 
L 82.355146 289.603159 
L 81.982736 289.046836 
L 81.610326 288.490512 
L 81.237916 287.934189 
L 80.865506 287.377866 
L 80.493096 286.821542 
L 80.120686 286.265219 
L 79.748276 285.708895 
L 79.375865 285.152572 
L 79.003455 284.596249 
L 78.631045 284.039925 
L 78.258635 283.483602 
L 77.886225 282.927278 
L 77.513815 282.370955 
L 77.141405 281.814632 
L 76.768995 281.258308 
L 76.396585 280.701985 
L 76.024175 280.145662 
L 75.651765 279.589338 
L 75.279355 279.033015 
L 74.906945 278.476691 
L 74.534535 277.920368 
L 74.162125 277.364045 
L 73.789714 276.807721 
L 73.417304 276.251398 
L 73.044894 275.695074 
L 72.672484 275.138751 
L 72.300074 274.582428 
L 71.927664 274.026104 
L 71.555254 273.469781 
L 71.182844 272.913457 
L 70.810434 272.357134 
L 70.438024 271.800811 
L 70.065614 271.244487 
L 69.693204 270.688164 
L 69.320794 270.131841 
L 68.948384 269.575517 
L 68.575974 269.019194 
L 68.203563 268.46287 
L 67.831153 267.906547 
" clip-path="url(#p2e5a75e122)" style="fill: none; stroke: #000000; stroke-width: 1.5; stroke-linecap: square"/>
   </g>
   <g id="line2d_18">
    <path d="M 60.140461 273.920045 
L 60.286789 273.787545 
L 60.433511 273.655481 
L 60.580625 273.523855 
L 60.728131 273.392668 
L 60.876027 273.26192 
L 61.024312 273.131614 
L 61.172985 273.00175 
L 61.322043 272.87233 
L 61.471486 272.743353 
L 61.621313 272.614823 
L 61.771522 272.486739 
L 61.922112 272.359104 
L 62.073081 272.231917 
L 62.224429 272.105181 
L 62.376153 271.978896 
L 62.528252 271.853063 
L 62.680726 271.727684 
L 62.833573 271.60276 
L 62.986791 271.478292 
L 63.140379 271.35428 
L 63.294335 271.230726 
L 63.448659 271.107632 
L 63.603349 270.984998 
L 63.758404 270.862825 
L 63.913821 270.741114 
L 64.069601 270.619867 
L 64.225741 270.499084 
L 64.38224 270.378767 
L 64.539096 270.258917 
L 64.696309 270.139534 
L 64.853877 270.02062 
L 65.011799 269.902176 
L 65.170072 269.784203 
L 65.328696 269.666702 
L 65.487669 269.549674 
L 65.64699 269.433119 
L 65.806658 269.31704 
L 65.966671 269.201437 
L 66.127027 269.086311 
L 66.287725 268.971663 
L 66.448765 268.857494 
L 66.610143 268.743806 
L 66.77186 268.630598 
L 66.933912 268.517873 
L 67.0963 268.405631 
L 67.259022 268.293873 
L 67.422076 268.1826 
L 67.58546 268.071813 
L 67.749174 267.961514 
L 67.913215 267.851702 
L 68.077583 267.74238 
L 68.242275 267.633548 
L 68.407291 267.525206 
L 68.572629 267.417357 
L 68.738288 267.310001 
L 68.904265 267.203138 
L 69.07056 267.09677 
L 69.237172 266.990899 
L 69.404097 266.885523 
L 69.571336 266.780646 
L 69.738887 266.676267 
L 69.906747 266.572387 
L 70.074917 266.469008 
L 70.243393 266.366131 
L 70.412175 266.263755 
L 70.581261 266.161883 
L 70.75065 266.060515 
L 70.92034 265.959651 
L 71.09033 265.859294 
L 71.260618 265.759443 
L 71.431203 265.6601 
L 71.602083 265.561266 
L 71.773256 265.462941 
L 71.944721 265.365126 
L 72.116477 265.267822 
L 72.288522 265.171031 
L 72.460855 265.074752 
L 72.633474 264.978987 
L 72.806377 264.883736 
L 72.979563 264.789001 
L 73.15303 264.694782 
L 73.326777 264.60108 
L 73.500803 264.507896 
L 73.675105 264.415231 
L 73.849683 264.323086 
L 74.024534 264.23146 
L 74.199657 264.140356 
L 74.375051 264.049774 
L 74.550714 263.959715 
L 74.726644 263.870179 
L 74.902841 263.781168 
L 75.079301 263.692682 
L 75.256025 263.604722 
L 75.433009 263.517289 
L 75.610254 263.430383 
L 75.787756 263.344005 
L 75.965515 263.258157 
L 76.143528 263.172838 
L 76.321795 263.08805 
" clip-path="url(#p2e5a75e122)" style="fill: none; stroke: #000000; stroke-width: 1.5; stroke-linecap: square"/>
   </g>
   <g id="patch_9">
    <path d="M 104.69975 253.692812 
C 95.600703 253.692812 86.590134 255.485126 78.183711 258.967181 
C 69.777288 262.449235 62.138495 267.553313 55.704498 273.98731 
C 49.2705 280.421308 44.166423 288.0601 40.684368 296.466523 
C 37.202314 304.872946 35.41 313.883516 35.41 322.982562 
C 35.41 332.081609 37.202314 341.092179 40.684368 349.498602 
C 44.166423 357.905025 49.2705 365.543817 55.704498 371.977815 
C 62.138495 378.411812 69.777288 383.51589 78.183711 386.997944 
C 86.590134 390.479999 95.600703 392.272312 104.69975 392.272312 
C 113.798797 392.272312 122.809366 390.479999 131.215789 386.997944 
C 139.622212 383.51589 147.261005 378.411812 153.695002 371.977815 
C 160.129 365.543817 165.233077 357.905025 168.715132 349.498602 
C 172.197186 341.092179 173.9895 332.081609 173.9895 322.982562 
C 173.9895 313.883516 172.197186 304.872946 168.715132 296.466523 
C 165.233077 288.0601 160.129 280.421308 153.695002 273.98731 
C 147.261005 267.553313 139.622212 262.449235 131.215789 258.967181 
C 122.809366 255.485126 113.798797 253.692812 104.69975 253.692812 
" style="fill: none; stroke: #000000; stroke-width: 0.8; stroke-linejoin: miter; stroke-linecap: square"/>
   </g>
   <g id="text_17">
    <g id="patch_10">
     <path d="M 73.89975 346.889437 
L 135.49975 346.889437 
L 135.49975 299.075687 
L 73.89975 299.075687 
z
" style="fill: #ffffff; stroke: #000000; stroke-linejoin: miter"/>
    </g>
    <!-- $\mu$ = -33.80$^\degree$ -->
    <g transform="translate(76.19975 309.675687)">
     <text>
      <tspan style="font: oblique 10px 'DejaVu Sans'" x="0" y="-0.9765625">μ</tspan>
      <tspan style="font: 10px 'DejaVu Sans'" x="6.362305 9.541016 17.919922 21.098633 24.707031 31.069336 37.431641 40.360352 46.722656" y="-0.9765625"> = -33.80</tspan>
      <tspan style="font: 7px 'DejaVu Sans'" x="53.180664" y="-4.8046875">°</tspan>
     </text>
    </g>
    <!-- $s0$ = 30.88$^\degree$ -->
    <g transform="translate(75.39975 320.893812)">
     <text>
      <tspan style="font: oblique 10px 'DejaVu Sans'" x="0" y="-0.9765625">s</tspan>
      <tspan style="font: 10px 'DejaVu Sans'" x="5.209961 11.572266 14.750977 23.129883 26.308594 32.670898 39.033203 41.961914 48.324219" y="-0.9765625">0 = 30.88</tspan>
      <tspan style="font: 7px 'DejaVu Sans'" x="54.782227" y="-4.8046875">°</tspan>
     </text>
    </g>
    <!-- $V = 0.72$ -->
    <g transform="translate(84.34975 332.091625)">
     <text>
      <tspan style="font: oblique 10px 'DejaVu Sans'" x="0" y="-0.578125">V</tspan>
      <tspan style="font: 10px 'DejaVu Sans'" x="8.789062 19.116211 25.478516 27.907227 34.269531" y="-0.578125">=0.72</tspan>
     </text>
    </g>
    <!-- $p$ &lt; 1e-05 -->
    <g transform="translate(79.69975 343.289437)">
     <text>
      <tspan style="font: oblique 10px 'DejaVu Sans'" x="0" y="-0.578125">p</tspan>
      <tspan style="font: 10px 'DejaVu Sans'" x="6.347656 9.526367 17.905273 21.083984 27.446289 33.598633 37.207031 43.569336" y="-0.578125"> &lt; 1e-05</tspan>
     </text>
    </g>
   </g>
   <g id="text_18">
    <!-- C) Exit 1 $\rightarrow$ Exit 4 -->
    <g transform="translate(50.87975 226.918125)">
     <text>
      <tspan style="font: 12px 'DejaVu Sans'" x="0 8.378906 13.060547 16.875 24.457031 31.558594 34.892578 39.597656 43.412109 51.046875 57.199219 69.591797 73.40625 80.988281 88.089844 91.423828 96.128906 99.943359" y="-0.875">C) Exit 1 → Exit 4</tspan>
     </text>
    </g>
   </g>
  </g>
  <g id="axes_4">
   <g id="patch_11">
    <path d="M 384.5895 322.982562 
C 384.5895 313.883516 382.797186 304.872946 379.315132 296.466523 
C 375.833077 288.0601 370.729 280.421308 364.295002 273.98731 
C 357.861005 267.553313 350.222212 262.449235 341.815789 258.967181 
C 333.409366 255.485126 324.398797 253.692812 315.29975 253.692812 
C 306.200703 253.692812 297.190134 255.485126 288.783711 258.967181 
C 280.377288 262.449235 272.738495 267.553313 266.304498 273.98731 
C 259.8705 280.421308 254.766423 288.0601 251.284368 296.466523 
C 247.802314 304.872946 246.01 313.883516 246.01 322.982562 
C 246.01 332.081609 247.802314 341.092179 251.284368 349.498602 
C 254.766423 357.905025 259.8705 365.543817 266.304498 371.977815 
C 272.738495 378.411812 280.377288 383.51589 288.783711 386.997944 
C 297.190134 390.479999 306.200703 392.272312 315.29975 392.272312 
C 324.398797 392.272312 333.409366 390.479999 341.815789 386.997944 
C 350.222212 383.51589 357.861005 378.411812 364.295002 371.977815 
C 370.729 365.543817 375.833077 357.905025 379.315132 349.498602 
C 382.797186 341.092179 384.5895 332.081609 384.5895 322.982562 
M 315.29975 322.982562 
C 315.29975 322.982562 315.29975 322.982562 315.29975 322.982562 
C 315.29975 322.982562 315.29975 322.982562 315.29975 322.982562 
C 315.29975 322.982562 315.29975 322.982562 315.29975 322.982562 
C 315.29975 322.982562 315.29975 322.982562 315.29975 322.982562 
C 315.29975 322.982562 315.29975 322.982562 315.29975 322.982562 
C 315.29975 322.982562 315.29975 322.982562 315.29975 322.982562 
C 315.29975 322.982562 315.29975 322.982562 315.29975 322.982562 
C 315.29975 322.982562 315.29975 322.982562 315.29975 322.982562 
C 315.29975 322.982562 315.29975 322.982562 315.29975 322.982562 
C 315.29975 322.982562 315.29975 322.982562 315.29975 322.982562 
C 315.29975 322.982562 315.29975 322.982562 315.29975 322.982562 
C 315.29975 322.982562 315.29975 322.982562 315.29975 322.982562 
C 315.29975 322.982562 315.29975 322.982562 315.29975 322.982562 
C 315.29975 322.982562 315.29975 322.982562 315.29975 322.982562 
C 315.29975 322.982562 315.29975 322.982562 315.29975 322.982562 
C 315.29975 322.982562 315.29975 322.982562 315.29975 322.982562 
z
" style="fill: #ffffff"/>
   </g>
   <g id="PathCollection_4">
    <defs>
     <path id="ma747c5ba49" d="M 0 2.738613 
C 0.726289 2.738613 1.422928 2.450055 1.936492 1.936492 
C 2.450055 1.422928 2.738613 0.726289 2.738613 0 
C 2.738613 -0.726289 2.450055 -1.422928 1.936492 -1.936492 
C 1.422928 -2.450055 0.726289 -2.738613 0 -2.738613 
C -0.726289 -2.738613 -1.422928 -2.450055 -1.936492 -1.936492 
C -2.450055 -1.422928 -2.738613 -0.726289 -2.738613 0 
C -2.738613 0.726289 -2.450055 1.422928 -1.936492 1.936492 
C -1.422928 2.450055 -0.726289 2.738613 0 2.738613 
z
" style="stroke: #000000"/>
    </defs>
    <g clip-path="url(#pf684ab6e45)">
     <use xlink:href="#ma747c5ba49" x="315.29975" y="262.730606" style="fill: #d62728; stroke: #000000"/>
     <use xlink:href="#ma747c5ba49" x="320.551054" y="262.959883" style="fill: #d62728; stroke: #000000"/>
     <use xlink:href="#ma747c5ba49" x="330.894104" y="264.783642" style="fill: #d62728; stroke: #000000"/>
     <use xlink:href="#ma747c5ba49" x="335.907133" y="266.364244" style="fill: #d62728; stroke: #000000"/>
     <use xlink:href="#ma747c5ba49" x="333.846395" y="272.026075" style="fill: #d62728; stroke: #000000"/>
     <use xlink:href="#ma747c5ba49" x="349.858853" y="273.627049" style="fill: #d62728; stroke: #000000"/>
     <use xlink:href="#ma747c5ba49" x="357.904317" y="280.377995" style="fill: #d62728; stroke: #000000"/>
     <use xlink:href="#ma747c5ba49" x="361.455426" y="284.253351" style="fill: #d62728; stroke: #000000"/>
     <use xlink:href="#ma747c5ba49" x="356.839859" y="288.126272" style="fill: #d62728; stroke: #000000"/>
     <use xlink:href="#ma747c5ba49" x="352.224291" y="291.999194" style="fill: #d62728; stroke: #000000"/>
     <use xlink:href="#ma747c5ba49" x="364.655263" y="288.42346" style="fill: #d62728; stroke: #000000"/>
     <use xlink:href="#ma747c5ba49" x="367.479475" y="292.856584" style="fill: #d62728; stroke: #000000"/>
     <use xlink:href="#ma747c5ba49" x="369.906567" y="297.518985" style="fill: #d62728; stroke: #000000"/>
     <use xlink:href="#ma747c5ba49" x="364.445886" y="300.065343" style="fill: #d62728; stroke: #000000"/>
     <use xlink:href="#ma747c5ba49" x="374.636344" y="312.51992" style="fill: #d62728; stroke: #000000"/>
     <use xlink:href="#ma747c5ba49" x="375.32243" y="317.731258" style="fill: #d62728; stroke: #000000"/>
     <use xlink:href="#ma747c5ba49" x="369.320162" y="318.256389" style="fill: #d62728; stroke: #000000"/>
     <use xlink:href="#ma747c5ba49" x="375.551707" y="322.982562" style="fill: #d62728; stroke: #000000"/>
     <use xlink:href="#ma747c5ba49" x="375.32243" y="328.233867" style="fill: #d62728; stroke: #000000"/>
     <use xlink:href="#ma747c5ba49" x="373.498671" y="338.576916" style="fill: #d62728; stroke: #000000"/>
     <use xlink:href="#ma747c5ba49" x="371.918069" y="343.589945" style="fill: #d62728; stroke: #000000"/>
     <use xlink:href="#ma747c5ba49" x="345.425728" y="375.162287" style="fill: #d62728; stroke: #000000"/>
     <use xlink:href="#ma747c5ba49" x="335.907133" y="379.600881" style="fill: #d62728; stroke: #000000"/>
     <use xlink:href="#ma747c5ba49" x="325.762392" y="382.319156" style="fill: #d62728; stroke: #000000"/>
     <use xlink:href="#ma747c5ba49" x="310.048446" y="383.005242" style="fill: #d62728; stroke: #000000"/>
     <use xlink:href="#ma747c5ba49" x="265.944237" y="357.541665" style="fill: #d62728; stroke: #000000"/>
     <use xlink:href="#ma747c5ba49" x="258.681431" y="343.589945" style="fill: #d62728; stroke: #000000"/>
     <use xlink:href="#ma747c5ba49" x="257.100829" y="338.576916" style="fill: #d62728; stroke: #000000"/>
     <use xlink:href="#ma747c5ba49" x="262.920721" y="337.017481" style="fill: #d62728; stroke: #000000"/>
     <use xlink:href="#ma747c5ba49" x="255.047793" y="322.982562" style="fill: #d62728; stroke: #000000"/>
     <use xlink:href="#ma747c5ba49" x="257.100829" y="307.388209" style="fill: #d62728; stroke: #000000"/>
     <use xlink:href="#ma747c5ba49" x="260.692933" y="297.518985" style="fill: #d62728; stroke: #000000"/>
     <use xlink:href="#ma747c5ba49" x="263.120025" y="292.856584" style="fill: #d62728; stroke: #000000"/>
     <use xlink:href="#ma747c5ba49" x="268.337998" y="295.869182" style="fill: #d62728; stroke: #000000"/>
     <use xlink:href="#ma747c5ba49" x="269.144074" y="284.253351" style="fill: #d62728; stroke: #000000"/>
     <use xlink:href="#ma747c5ba49" x="280.740647" y="273.627049" style="fill: #d62728; stroke: #000000"/>
     <use xlink:href="#ma747c5ba49" x="284.196558" y="278.5626" style="fill: #d62728; stroke: #000000"/>
     <use xlink:href="#ma747c5ba49" x="289.836173" y="268.375745" style="fill: #d62728; stroke: #000000"/>
     <use xlink:href="#ma747c5ba49" x="292.382531" y="273.836427" style="fill: #d62728; stroke: #000000"/>
     <use xlink:href="#ma747c5ba49" x="304.837108" y="263.645969" style="fill: #d62728; stroke: #000000"/>
    </g>
   </g>
   <g id="matplotlib.axis_7">
    <g id="xtick_13">
     <g id="line2d_19">
      <path d="M 315.29975 322.982562 
L 315.29975 253.692812 
" clip-path="url(#pf684ab6e45)" style="fill: none; stroke: #b0b0b0; stroke-width: 0.8; stroke-linecap: square"/>
     </g>
     <g id="text_19">
      <!-- 0$^\degree$ -->
      <g transform="translate(308.08975 243.555937)">
       <text>
        <tspan style="font: 14px 'DejaVu Sans'" x="0" y="-0.3671875">0</tspan>
        <tspan style="font: 9.8px 'DejaVu Sans'" x="9.041211" y="-5.7265625">°</tspan>
       </text>
      </g>
     </g>
    </g>
    <g id="xtick_14">
     <g id="line2d_20">
      <path d="M 315.29975 322.982562 
L 384.5895 322.982562 
" clip-path="url(#pf684ab6e45)" style="fill: none; stroke: #b0b0b0; stroke-width: 0.8; stroke-linecap: square"/>
     </g>
     <g id="text_20">
      <!-- 90$^\degree$ -->
      <g transform="translate(386.9695 326.845687)">
       <text>
        <tspan style="font: 14px 'DejaVu Sans'" x="0 8.907227" y="-0.3671875">90</tspan>
        <tspan style="font: 9.8px 'DejaVu Sans'" x="17.948438" y="-5.7265625">°</tspan>
       </text>
      </g>
     </g>
    </g>
    <g id="xtick_15">
     <g id="line2d_21">
      <path d="M 315.29975 322.982562 
L 315.29975 392.272312 
" clip-path="url(#pf684ab6e45)" style="fill: none; stroke: #b0b0b0; stroke-width: 0.8; stroke-linecap: square"/>
     </g>
     <g id="text_21">
      <!-- 180$^\degree$ -->
      <g transform="translate(299.19975 410.135437)">
       <text>
        <tspan style="font: 14px 'DejaVu Sans'" x="0 8.907227 17.814453" y="-0.3671875">180</tspan>
        <tspan style="font: 9.8px 'DejaVu Sans'" x="26.855664" y="-5.7265625">°</tspan>
       </text>
      </g>
     </g>
    </g>
    <g id="xtick_16">
     <g id="line2d_22">
      <path d="M 315.29975 322.982562 
L 246.01 322.982562 
" clip-path="url(#pf684ab6e45)" style="fill: none; stroke: #b0b0b0; stroke-width: 0.8; stroke-linecap: square"/>
     </g>
     <g id="text_22">
      <!-- -90$^\degree$ -->
      <g transform="translate(217.8 326.845687)">
       <text>
        <tspan style="font: 14px 'DejaVu Sans'" x="0 5.051758 13.958984" y="-0.3671875">-90</tspan>
        <tspan style="font: 9.8px 'DejaVu Sans'" x="23.000195" y="-5.7265625">°</tspan>
       </text>
      </g>
     </g>
    </g>
   </g>
   <g id="matplotlib.axis_8"/>
   <g id="line2d_23">
    <path d="M 315.29975 322.982562 
L 315.554038 322.363271 
L 315.808326 321.743979 
L 316.062614 321.124687 
L 316.316902 320.505395 
L 316.571191 319.886103 
L 316.825479 319.266811 
L 317.079767 318.647519 
L 317.334055 318.028227 
L 317.588343 317.408935 
L 317.842631 316.789643 
L 318.096919 316.170351 
L 318.351207 315.551059 
L 318.605495 314.931767 
L 318.859784 314.312475 
L 319.114072 313.693183 
L 319.36836 313.073891 
L 319.622648 312.454599 
L 319.876936 311.835307 
L 320.131224 311.216015 
L 320.385512 310.596723 
L 320.6398 309.977431 
L 320.894088 309.358139 
L 321.148376 308.738847 
L 321.402665 308.119556 
L 321.656953 307.500264 
L 321.911241 306.880972 
L 322.165529 306.26168 
L 322.419817 305.642388 
L 322.674105 305.023096 
L 322.928393 304.403804 
L 323.182681 303.784512 
L 323.436969 303.16522 
L 323.691258 302.545928 
L 323.945546 301.926636 
L 324.199834 301.307344 
L 324.454122 300.688052 
L 324.70841 300.06876 
L 324.962698 299.449468 
L 325.216986 298.830176 
L 325.471274 298.210884 
L 325.725562 297.591592 
L 325.979851 296.9723 
L 326.234139 296.353008 
L 326.488427 295.733716 
L 326.742715 295.114424 
L 326.997003 294.495132 
L 327.251291 293.87584 
L 327.505579 293.256549 
L 327.759867 292.637257 
L 328.014155 292.017965 
L 328.268443 291.398673 
L 328.522732 290.779381 
L 328.77702 290.160089 
L 329.031308 289.540797 
L 329.285596 288.921505 
L 329.539884 288.302213 
L 329.794172 287.682921 
L 330.04846 287.063629 
L 330.302748 286.444337 
L 330.557036 285.825045 
L 330.811325 285.205753 
L 331.065613 284.586461 
L 331.319901 283.967169 
L 331.574189 283.347877 
L 331.828477 282.728585 
L 332.082765 282.109293 
L 332.337053 281.490001 
L 332.591341 280.870709 
L 332.845629 280.251417 
L 333.099918 279.632125 
L 333.354206 279.012833 
L 333.608494 278.393542 
L 333.862782 277.77425 
L 334.11707 277.154958 
L 334.371358 276.535666 
L 334.625646 275.916374 
L 334.879934 275.297082 
L 335.134222 274.67779 
L 335.38851 274.058498 
L 335.642799 273.439206 
L 335.897087 272.819914 
L 336.151375 272.200622 
L 336.405663 271.58133 
L 336.659951 270.962038 
L 336.914239 270.342746 
L 337.168527 269.723454 
L 337.422815 269.104162 
L 337.677103 268.48487 
L 337.931392 267.865578 
L 338.18568 267.246286 
L 338.439968 266.626994 
L 338.694256 266.007702 
L 338.948544 265.38841 
L 339.202832 264.769118 
L 339.45712 264.149826 
L 339.711408 263.530535 
L 339.965696 262.911243 
L 340.219985 262.291951 
L 340.474273 261.672659 
" clip-path="url(#pf684ab6e45)" style="fill: none; stroke: #000000; stroke-width: 1.5; stroke-linecap: square"/>
   </g>
   <g id="line2d_24">
    <path d="M 315.348371 256.705428 
L 315.869057 256.707855 
L 316.389708 256.714373 
L 316.910291 256.724981 
L 317.430775 256.739679 
L 317.951128 256.758465 
L 318.471317 256.781338 
L 318.99131 256.808298 
L 319.511075 256.839342 
L 320.030581 256.874468 
L 320.549794 256.913675 
L 321.068683 256.956959 
L 321.587217 257.004319 
L 322.105362 257.05575 
L 322.623087 257.111251 
L 323.14036 257.170818 
L 323.657149 257.234446 
L 324.173423 257.302133 
L 324.689148 257.373873 
L 325.204294 257.449663 
L 325.718829 257.529498 
L 326.232721 257.613372 
L 326.745938 257.701281 
L 327.258448 257.79322 
L 327.770221 257.889181 
L 328.281224 257.989161 
L 328.791425 258.093152 
L 329.300794 258.201148 
L 329.809298 258.313142 
L 330.316907 258.429128 
L 330.82359 258.549098 
L 331.329314 258.673045 
L 331.834048 258.800962 
L 332.337762 258.932839 
L 332.840425 259.06867 
L 333.342005 259.208446 
L 333.842471 259.352158 
L 334.341793 259.499797 
L 334.83994 259.651355 
L 335.33688 259.806821 
L 335.832584 259.966187 
L 336.327021 260.129442 
L 336.820159 260.296576 
L 337.31197 260.46758 
L 337.802421 260.642442 
L 338.291484 260.821151 
L 338.779128 261.003698 
L 339.265323 261.190069 
L 339.750038 261.380255 
L 340.233245 261.574243 
L 340.714912 261.772021 
L 341.195011 261.973577 
L 341.673511 262.178898 
L 342.150384 262.387972 
L 342.6256 262.600787 
L 343.099128 262.817328 
L 343.570942 263.037582 
L 344.04101 263.261537 
L 344.509304 263.489177 
L 344.975795 263.72049 
L 345.440455 263.95546 
L 345.903254 264.194074 
L 346.364165 264.436316 
L 346.823158 264.682171 
L 347.280206 264.931625 
L 347.735279 265.184662 
L 348.188351 265.441266 
L 348.639393 265.701421 
L 349.088377 265.965113 
L 349.535275 266.232323 
L 349.980061 266.503036 
L 350.422706 266.777235 
L 350.863183 267.054903 
L 351.301465 267.336023 
L 351.737525 267.620577 
L 352.171337 267.908549 
L 352.602872 268.199919 
L 353.032105 268.494671 
L 353.459009 268.792786 
L 353.883558 269.094246 
L 354.305725 269.399032 
L 354.725485 269.707125 
L 355.142812 270.018506 
L 355.557679 270.333156 
L 355.970062 270.651055 
L 356.379934 270.972185 
L 356.787271 271.296525 
L 357.192048 271.624055 
L 357.594238 271.954755 
L 357.993818 272.288604 
L 358.390763 272.625582 
L 358.785049 272.965668 
L 359.17665 273.308842 
L 359.565544 273.655081 
L 359.951705 274.004365 
L 360.33511 274.356672 
L 360.715736 274.71198 
L 361.093558 275.070267 
L 361.468554 275.431512 
L 361.840701 275.795691 
" clip-path="url(#pf684ab6e45)" style="fill: none; stroke: #000000; stroke-width: 1.5; stroke-linecap: square"/>
   </g>
   <g id="patch_12">
    <path d="M 315.29975 253.692812 
C 306.200703 253.692812 297.190134 255.485126 288.783711 258.967181 
C 280.377288 262.449235 272.738495 267.553313 266.304498 273.98731 
C 259.8705 280.421308 254.766423 288.0601 251.284368 296.466523 
C 247.802314 304.872946 246.01 313.883516 246.01 322.982562 
C 246.01 332.081609 247.802314 341.092179 251.284368 349.498602 
C 254.766423 357.905025 259.8705 365.543817 266.304498 371.977815 
C 272.738495 378.411812 280.377288 383.51589 288.783711 386.997944 
C 297.190134 390.479999 306.200703 392.272312 315.29975 392.272312 
C 324.398797 392.272312 333.409366 390.479999 341.815789 386.997944 
C 350.222212 383.51589 357.861005 378.411812 364.295002 371.977815 
C 370.729 365.543817 375.833077 357.905025 379.315132 349.498602 
C 382.797186 341.092179 384.5895 332.081609 384.5895 322.982562 
C 384.5895 313.883516 382.797186 304.872946 379.315132 296.466523 
C 375.833077 288.0601 370.729 280.421308 364.295002 273.98731 
C 357.861005 267.553313 350.222212 262.449235 341.815789 258.967181 
C 333.409366 255.485126 324.398797 253.692812 315.29975 253.692812 
" style="fill: none; stroke: #000000; stroke-width: 0.8; stroke-linejoin: miter; stroke-linecap: square"/>
   </g>
   <g id="text_23">
    <g id="patch_13">
     <path d="M 284.49975 346.889437 
L 346.09975 346.889437 
L 346.09975 299.075687 
L 284.49975 299.075687 
z
" style="fill: #ffffff; stroke: #000000; stroke-linejoin: miter"/>
    </g>
    <!-- $\mu$ = 22.32$^\degree$ -->
    <g transform="translate(288.49975 309.675687)">
     <text>
      <tspan style="font: oblique 10px 'DejaVu Sans'" x="0" y="-0.9765625">μ</tspan>
      <tspan style="font: 10px 'DejaVu Sans'" x="6.362305 9.541016 17.919922 21.098633 27.460938 33.823242 37.001953 43.364258" y="-0.9765625"> = 22.32</tspan>
      <tspan style="font: 7px 'DejaVu Sans'" x="49.822266" y="-4.8046875">°</tspan>
     </text>
    </g>
    <!-- $s0$ = 87.87$^\degree$ -->
    <g transform="translate(285.99975 320.893812)">
     <text>
      <tspan style="font: oblique 10px 'DejaVu Sans'" x="0" y="-0.9765625">s</tspan>
      <tspan style="font: 10px 'DejaVu Sans'" x="5.209961 11.572266 14.750977 23.129883 26.308594 32.670898 39.033203 41.961914 48.324219" y="-0.9765625">0 = 87.87</tspan>
      <tspan style="font: 7px 'DejaVu Sans'" x="54.782227" y="-4.8046875">°</tspan>
     </text>
    </g>
    <!-- $V = 0.29$ -->
    <g transform="translate(294.94975 332.091625)">
     <text>
      <tspan style="font: oblique 10px 'DejaVu Sans'" x="0" y="-0.578125">V</tspan>
      <tspan style="font: 10px 'DejaVu Sans'" x="8.789062 19.116211 25.478516 28.157227 34.394531" y="-0.578125">=0.29</tspan>
     </text>
    </g>
    <!-- $p$ &lt; 0.01 -->
    <g transform="translate(293.59975 343.289437)">
     <text>
      <tspan style="font: oblique 10px 'DejaVu Sans'" x="0" y="-0.578125">p</tspan>
      <tspan style="font: 10px 'DejaVu Sans'" x="6.347656 9.526367 17.905273 21.083984 27.446289 30.625 36.987305" y="-0.578125"> &lt; 0.01</tspan>
     </text>
    </g>
   </g>
   <g id="text_24">
    <text style="font: 12px 'DejaVu Sans', 'Bitstream Vera Sans', 'Computer Modern Sans Serif', 'Lucida Grande', 'Verdana', 'Geneva', 'Lucid', 'Arial', 'Helvetica', 'Avant Garde', sans-serif; text-anchor: middle" x="315.29975" y="226.918125" transform="rotate(-0 315.29975 226.918125)">D) Dacke et al. (2019)</text>
   </g>
  </g>
 </g>
 <defs>
  <clipPath id="pd115123373">
   <path d="M 173.9895 112.382562 
C 173.9895 103.283516 172.197186 94.272946 168.715132 85.866523 
C 165.233077 77.4601 160.129 69.821308 153.695002 63.38731 
C 147.261005 56.953313 139.622212 51.849235 131.215789 48.367181 
C 122.809366 44.885126 113.798797 43.092813 104.69975 43.092813 
C 95.600703 43.092813 86.590134 44.885126 78.183711 48.367181 
C 69.777288 51.849235 62.138495 56.953313 55.704498 63.38731 
C 49.2705 69.821308 44.166423 77.4601 40.684368 85.866523 
C 37.202314 94.272946 35.41 103.283516 35.41 112.382562 
C 35.41 121.481609 37.202314 130.492179 40.684368 138.898602 
C 44.166423 147.305025 49.2705 154.943817 55.704498 161.377815 
C 62.138495 167.811812 69.777288 172.91589 78.183711 176.397944 
C 86.590134 179.879999 95.600703 181.672312 104.69975 181.672312 
C 113.798797 181.672312 122.809366 179.879999 131.215789 176.397944 
C 139.622212 172.91589 147.261005 167.811812 153.695002 161.377815 
C 160.129 154.943817 165.233077 147.305025 168.715132 138.898602 
C 172.197186 130.492179 173.9895 121.481609 173.9895 112.382563 
M 104.69975 112.382562 
C 104.69975 112.382562 104.69975 112.382562 104.69975 112.382562 
C 104.69975 112.382562 104.69975 112.382562 104.69975 112.382562 
C 104.69975 112.382562 104.69975 112.382562 104.69975 112.382562 
C 104.69975 112.382562 104.69975 112.382562 104.69975 112.382562 
C 104.69975 112.382562 104.69975 112.382562 104.69975 112.382562 
C 104.69975 112.382562 104.69975 112.382562 104.69975 112.382562 
C 104.69975 112.382562 104.69975 112.382562 104.69975 112.382562 
C 104.69975 112.382562 104.69975 112.382562 104.69975 112.382562 
C 104.69975 112.382562 104.69975 112.382562 104.69975 112.382562 
C 104.69975 112.382562 104.69975 112.382562 104.69975 112.382562 
C 104.69975 112.382562 104.69975 112.382562 104.69975 112.382562 
C 104.69975 112.382562 104.69975 112.382562 104.69975 112.382562 
C 104.69975 112.382562 104.69975 112.382562 104.69975 112.382562 
C 104.69975 112.382562 104.69975 112.382562 104.69975 112.382562 
C 104.69975 112.382562 104.69975 112.382562 104.69975 112.382562 
C 104.69975 112.382562 104.69975 112.382562 104.69975 112.382562 
z
"/>
  </clipPath>
  <clipPath id="p348a861194">
   <path d="M 384.5895 112.382562 
C 384.5895 103.283516 382.797186 94.272946 379.315132 85.866523 
C 375.833077 77.4601 370.729 69.821308 364.295002 63.38731 
C 357.861005 56.953313 350.222212 51.849235 341.815789 48.367181 
C 333.409366 44.885126 324.398797 43.092813 315.29975 43.092813 
C 306.200703 43.092813 297.190134 44.885126 288.783711 48.367181 
C 280.377288 51.849235 272.738495 56.953313 266.304498 63.38731 
C 259.8705 69.821308 254.766423 77.4601 251.284368 85.866523 
C 247.802314 94.272946 246.01 103.283516 246.01 112.382562 
C 246.01 121.481609 247.802314 130.492179 251.284368 138.898602 
C 254.766423 147.305025 259.8705 154.943817 266.304498 161.377815 
C 272.738495 167.811812 280.377288 172.91589 288.783711 176.397944 
C 297.190134 179.879999 306.200703 181.672312 315.29975 181.672312 
C 324.398797 181.672312 333.409366 179.879999 341.815789 176.397944 
C 350.222212 172.91589 357.861005 167.811812 364.295002 161.377815 
C 370.729 154.943817 375.833077 147.305025 379.315132 138.898602 
C 382.797186 130.492179 384.5895 121.481609 384.5895 112.382563 
M 315.29975 112.382562 
C 315.29975 112.382562 315.29975 112.382562 315.29975 112.382562 
C 315.29975 112.382562 315.29975 112.382562 315.29975 112.382562 
C 315.29975 112.382562 315.29975 112.382562 315.29975 112.382562 
C 315.29975 112.382562 315.29975 112.382562 315.29975 112.382562 
C 315.29975 112.382562 315.29975 112.382562 315.29975 112.382562 
C 315.29975 112.382562 315.29975 112.382562 315.29975 112.382562 
C 315.29975 112.382562 315.29975 112.382562 315.29975 112.382562 
C 315.29975 112.382562 315.29975 112.382562 315.29975 112.382562 
C 315.29975 112.382562 315.29975 112.382562 315.29975 112.382562 
C 315.29975 112.382562 315.29975 112.382562 315.29975 112.382562 
C 315.29975 112.382562 315.29975 112.382562 315.29975 112.382562 
C 315.29975 112.382562 315.29975 112.382562 315.29975 112.382562 
C 315.29975 112.382562 315.29975 112.382562 315.29975 112.382562 
C 315.29975 112.382562 315.29975 112.382562 315.29975 112.382562 
C 315.29975 112.382562 315.29975 112.382562 315.29975 112.382562 
C 315.29975 112.382562 315.29975 112.382562 315.29975 112.382562 
z
"/>
  </clipPath>
  <clipPath id="p2e5a75e122">
   <path d="M 173.9895 322.982562 
C 173.9895 313.883516 172.197186 304.872946 168.715132 296.466523 
C 165.233077 288.0601 160.129 280.421308 153.695002 273.98731 
C 147.261005 267.553313 139.622212 262.449235 131.215789 258.967181 
C 122.809366 255.485126 113.798797 253.692812 104.69975 253.692812 
C 95.600703 253.692812 86.590134 255.485126 78.183711 258.967181 
C 69.777288 262.449235 62.138495 267.553313 55.704498 273.98731 
C 49.2705 280.421308 44.166423 288.0601 40.684368 296.466523 
C 37.202314 304.872946 35.41 313.883516 35.41 322.982562 
C 35.41 332.081609 37.202314 341.092179 40.684368 349.498602 
C 44.166423 357.905025 49.2705 365.543817 55.704498 371.977815 
C 62.138495 378.411812 69.777288 383.51589 78.183711 386.997944 
C 86.590134 390.479999 95.600703 392.272312 104.69975 392.272312 
C 113.798797 392.272312 122.809366 390.479999 131.215789 386.997944 
C 139.622212 383.51589 147.261005 378.411812 153.695002 371.977815 
C 160.129 365.543817 165.233077 357.905025 168.715132 349.498602 
C 172.197186 341.092179 173.9895 332.081609 173.9895 322.982562 
M 104.69975 322.982562 
C 104.69975 322.982562 104.69975 322.982562 104.69975 322.982562 
C 104.69975 322.982562 104.69975 322.982562 104.69975 322.982562 
C 104.69975 322.982562 104.69975 322.982562 104.69975 322.982562 
C 104.69975 322.982562 104.69975 322.982562 104.69975 322.982562 
C 104.69975 322.982562 104.69975 322.982562 104.69975 322.982562 
C 104.69975 322.982562 104.69975 322.982562 104.69975 322.982562 
C 104.69975 322.982562 104.69975 322.982562 104.69975 322.982562 
C 104.69975 322.982562 104.69975 322.982562 104.69975 322.982562 
C 104.69975 322.982562 104.69975 322.982562 104.69975 322.982562 
C 104.69975 322.982562 104.69975 322.982562 104.69975 322.982562 
C 104.69975 322.982562 104.69975 322.982562 104.69975 322.982562 
C 104.69975 322.982562 104.69975 322.982562 104.69975 322.982562 
C 104.69975 322.982562 104.69975 322.982562 104.69975 322.982562 
C 104.69975 322.982562 104.69975 322.982562 104.69975 322.982562 
C 104.69975 322.982562 104.69975 322.982562 104.69975 322.982562 
C 104.69975 322.982562 104.69975 322.982562 104.69975 322.982562 
z
"/>
  </clipPath>
  <clipPath id="pf684ab6e45">
   <path d="M 384.5895 322.982562 
C 384.5895 313.883516 382.797186 304.872946 379.315132 296.466523 
C 375.833077 288.0601 370.729 280.421308 364.295002 273.98731 
C 357.861005 267.553313 350.222212 262.449235 341.815789 258.967181 
C 333.409366 255.485126 324.398797 253.692812 315.29975 253.692812 
C 306.200703 253.692812 297.190134 255.485126 288.783711 258.967181 
C 280.377288 262.449235 272.738495 267.553313 266.304498 273.98731 
C 259.8705 280.421308 254.766423 288.0601 251.284368 296.466523 
C 247.802314 304.872946 246.01 313.883516 246.01 322.982562 
C 246.01 332.081609 247.802314 341.092179 251.284368 349.498602 
C 254.766423 357.905025 259.8705 365.543817 266.304498 371.977815 
C 272.738495 378.411812 280.377288 383.51589 288.783711 386.997944 
C 297.190134 390.479999 306.200703 392.272312 315.29975 392.272312 
C 324.398797 392.272312 333.409366 390.479999 341.815789 386.997944 
C 350.222212 383.51589 357.861005 378.411812 364.295002 371.977815 
C 370.729 365.543817 375.833077 357.905025 379.315132 349.498602 
C 382.797186 341.092179 384.5895 332.081609 384.5895 322.982562 
M 315.29975 322.982562 
C 315.29975 322.982562 315.29975 322.982562 315.29975 322.982562 
C 315.29975 322.982562 315.29975 322.982562 315.29975 322.982562 
C 315.29975 322.982562 315.29975 322.982562 315.29975 322.982562 
C 315.29975 322.982562 315.29975 322.982562 315.29975 322.982562 
C 315.29975 322.982562 315.29975 322.982562 315.29975 322.982562 
C 315.29975 322.982562 315.29975 322.982562 315.29975 322.982562 
C 315.29975 322.982562 315.29975 322.982562 315.29975 322.982562 
C 315.29975 322.982562 315.29975 322.982562 315.29975 322.982562 
C 315.29975 322.982562 315.29975 322.982562 315.29975 322.982562 
C 315.29975 322.982562 315.29975 322.982562 315.29975 322.982562 
C 315.29975 322.982562 315.29975 322.982562 315.29975 322.982562 
C 315.29975 322.982562 315.29975 322.982562 315.29975 322.982562 
C 315.29975 322.982562 315.29975 322.982562 315.29975 322.982562 
C 315.29975 322.982562 315.29975 322.982562 315.29975 322.982562 
C 315.29975 322.982562 315.29975 322.982562 315.29975 322.982562 
C 315.29975 322.982562 315.29975 322.982562 315.29975 322.982562 
z
"/>
  </clipPath>
 </defs>
</svg>
