<?xml version="1.0" encoding="utf-8" standalone="no"?>
<!DOCTYPE svg PUBLIC "-//W3C//DTD SVG 1.1//EN"
  "http://www.w3.org/Graphics/SVG/1.1/DTD/svg11.dtd">
<svg xmlns:xlink="http://www.w3.org/1999/xlink" width="417.4095pt" height="420.247pt" viewBox="0 0 417.4095 420.247" xmlns="http://www.w3.org/2000/svg" version="1.1">
 <metadata>
  <rdf:RDF xmlns:dc="http://purl.org/dc/elements/1.1/" xmlns:cc="http://creativecommons.org/ns#" xmlns:rdf="http://www.w3.org/1999/02/22-rdf-syntax-ns#">
   <cc:Work>
    <dc:type rdf:resource="http://purl.org/dc/dcmitype/StillImage"/>
    <dc:date>2025-03-10T14:44:39.493863</dc:date>
    <dc:format>image/svg+xml</dc:format>
    <dc:creator>
     <cc:Agent>
      <dc:title>Matplotlib v3.7.5, https://matplotlib.org/</dc:title>
     </cc:Agent>
    </dc:creator>
   </cc:Work>
  </rdf:RDF>
 </metadata>
 <defs>
  <style type="text/css">*{stroke-linejoin: round; stroke-linecap: butt}</style>
 </defs>
 <g id="figure_1">
  <g id="patch_1">
   <path d="M 0 420.247 
L 417.4095 420.247 
L 417.4095 0 
L 0 0 
z
" style="fill: #ffffff"/>
  </g>
  <g id="axes_1">
   <g id="patch_2">
    <path d="M 173.9895 112.382562 
C 173.9895 103.283516 172.197186 94.272946 168.715132 85.866523 
C 165.233077 77.4601 160.129 69.821308 153.695002 63.38731 
C 147.261005 56.953313 139.622212 51.849235 131.215789 48.367181 
C 122.809366 44.885126 113.798797 43.092813 104.69975 43.092813 
C 95.600703 43.092813 86.590134 44.885126 78.183711 48.367181 
C 69.777288 51.849235 62.138495 56.953313 55.704498 63.38731 
C 49.2705 69.821308 44.166423 77.4601 40.684368 85.866523 
C 37.202314 94.272946 35.41 103.283516 35.41 112.382562 
C 35.41 121.481609 37.202314 130.492179 40.684368 138.898602 
C 44.166423 147.305025 49.2705 154.943817 55.704498 161.377815 
C 62.138495 167.811812 69.777288 172.91589 78.183711 176.397944 
C 86.590134 179.879999 95.600703 181.672312 104.69975 181.672312 
C 113.798797 181.672312 122.809366 179.879999 131.215789 176.397944 
C 139.622212 172.91589 147.261005 167.811812 153.695002 161.377815 
C 160.129 154.943817 165.233077 147.305025 168.715132 138.898602 
C 172.197186 130.492179 173.9895 121.481609 173.9895 112.382563 
M 104.69975 112.382562 
C 104.69975 112.382562 104.69975 112.382562 104.69975 112.382562 
C 104.69975 112.382562 104.69975 112.382562 104.69975 112.382562 
C 104.69975 112.382562 104.69975 112.382562 104.69975 112.382562 
C 104.69975 112.382562 104.69975 112.382562 104.69975 112.382562 
C 104.69975 112.382562 104.69975 112.382562 104.69975 112.382562 
C 104.69975 112.382562 104.69975 112.382562 104.69975 112.382562 
C 104.69975 112.382562 104.69975 112.382562 104.69975 112.382562 
C 104.69975 112.382562 104.69975 112.382562 104.69975 112.382562 
C 104.69975 112.382562 104.69975 112.382562 104.69975 112.382562 
C 104.69975 112.382562 104.69975 112.382562 104.69975 112.382562 
C 104.69975 112.382562 104.69975 112.382562 104.69975 112.382562 
C 104.69975 112.382562 104.69975 112.382562 104.69975 112.382562 
C 104.69975 112.382562 104.69975 112.382562 104.69975 112.382562 
C 104.69975 112.382562 104.69975 112.382562 104.69975 112.382562 
C 104.69975 112.382562 104.69975 112.382562 104.69975 112.382562 
C 104.69975 112.382562 104.69975 112.382562 104.69975 112.382562 
z
" style="fill: #ffffff"/>
   </g>
   <g id="PathCollection_1">
    <defs>
     <path id="m73c12c41e8" d="M 0 2.738613 
C 0.726289 2.738613 1.422928 2.450055 1.936492 1.936492 
C 2.450055 1.422928 2.738613 0.726289 2.738613 0 
C 2.738613 -0.726289 2.450055 -1.422928 1.936492 -1.936492 
C 1.422928 -2.450055 0.726289 -2.738613 0 -2.738613 
C -0.726289 -2.738613 -1.422928 -2.450055 -1.936492 -1.936492 
C -2.450055 -1.422928 -2.738613 -0.726289 -2.738613 0 
C -2.738613 0.726289 -2.450055 1.422928 -1.936492 1.936492 
C -1.422928 2.450055 -0.726289 2.738613 0 2.738613 
z
" style="stroke: #000000"/>
    </defs>
    <g clip-path="url(#p66963c64bc)">
     <use xlink:href="#m73c12c41e8" x="74.521926" y="164.53232" style="fill: #1f77b4; stroke: #000000"/>
     <use xlink:href="#m73c12c41e8" x="55.376436" y="77.777521" style="fill: #1f77b4; stroke: #000000"/>
     <use xlink:href="#m73c12c41e8" x="58.569824" y="73.622684" style="fill: #1f77b4; stroke: #000000"/>
     <use xlink:href="#m73c12c41e8" x="63.182817" y="77.498672" style="fill: #1f77b4; stroke: #000000"/>
     <use xlink:href="#m73c12c41e8" x="62.11215" y="69.761035" style="fill: #1f77b4; stroke: #000000"/>
     <use xlink:href="#m73c12c41e8" x="70.183365" y="62.997166" style="fill: #1f77b4; stroke: #000000"/>
     <use xlink:href="#m73c12c41e8" x="73.635003" y="67.935705" style="fill: #1f77b4; stroke: #000000"/>
     <use xlink:href="#m73c12c41e8" x="77.086642" y="72.874245" style="fill: #1f77b4; stroke: #000000"/>
     <use xlink:href="#m73c12c41e8" x="80.53828" y="77.812785" style="fill: #1f77b4; stroke: #000000"/>
     <use xlink:href="#m73c12c41e8" x="83.989919" y="82.751324" style="fill: #1f77b4; stroke: #000000"/>
     <use xlink:href="#m73c12c41e8" x="74.605021" y="60.184808" style="fill: #1f77b4; stroke: #000000"/>
     <use xlink:href="#m73c12c41e8" x="77.614494" y="65.404584" style="fill: #1f77b4; stroke: #000000"/>
     <use xlink:href="#m73c12c41e8" x="80.623967" y="70.624359" style="fill: #1f77b4; stroke: #000000"/>
     <use xlink:href="#m73c12c41e8" x="84.096096" y="55.762887" style="fill: #1f77b4; stroke: #000000"/>
     <use xlink:href="#m73c12c41e8" x="86.156461" y="61.424854" style="fill: #1f77b4; stroke: #000000"/>
     <use xlink:href="#m73c12c41e8" x="88.216826" y="67.086822" style="fill: #1f77b4; stroke: #000000"/>
     <use xlink:href="#m73c12c41e8" x="89.151925" y="54.171194" style="fill: #1f77b4; stroke: #000000"/>
     <use xlink:href="#m73c12c41e8" x="90.706707" y="59.992331" style="fill: #1f77b4; stroke: #000000"/>
     <use xlink:href="#m73c12c41e8" x="94.268731" y="53.040401" style="fill: #1f77b4; stroke: #000000"/>
     <use xlink:href="#m73c12c41e8" x="95.311833" y="58.974617" style="fill: #1f77b4; stroke: #000000"/>
     <use xlink:href="#m73c12c41e8" x="96.354935" y="64.908833" style="fill: #1f77b4; stroke: #000000"/>
     <use xlink:href="#m73c12c41e8" x="97.398037" y="70.84305" style="fill: #1f77b4; stroke: #000000"/>
     <use xlink:href="#m73c12c41e8" x="99.46444" y="52.358486" style="fill: #1f77b4; stroke: #000000"/>
     <use xlink:href="#m73c12c41e8" x="99.987971" y="58.360893" style="fill: #1f77b4; stroke: #000000"/>
     <use xlink:href="#m73c12c41e8" x="100.511502" y="64.363301" style="fill: #1f77b4; stroke: #000000"/>
     <use xlink:href="#m73c12c41e8" x="104.69975" y="52.130606" style="fill: #1f77b4; stroke: #000000"/>
     <use xlink:href="#m73c12c41e8" x="104.69975" y="58.155802" style="fill: #1f77b4; stroke: #000000"/>
     <use xlink:href="#m73c12c41e8" x="104.69975" y="64.180997" style="fill: #1f77b4; stroke: #000000"/>
     <use xlink:href="#m73c12c41e8" x="104.69975" y="70.206193" style="fill: #1f77b4; stroke: #000000"/>
     <use xlink:href="#m73c12c41e8" x="109.93506" y="52.358486" style="fill: #1f77b4; stroke: #000000"/>
     <use xlink:href="#m73c12c41e8" x="109.411529" y="58.360893" style="fill: #1f77b4; stroke: #000000"/>
     <use xlink:href="#m73c12c41e8" x="115.130769" y="53.040401" style="fill: #1f77b4; stroke: #000000"/>
     <use xlink:href="#m73c12c41e8" x="114.087667" y="58.974617" style="fill: #1f77b4; stroke: #000000"/>
     <use xlink:href="#m73c12c41e8" x="120.247575" y="54.171194" style="fill: #1f77b4; stroke: #000000"/>
     <use xlink:href="#m73c12c41e8" x="118.692793" y="59.992331" style="fill: #1f77b4; stroke: #000000"/>
     <use xlink:href="#m73c12c41e8" x="125.303404" y="55.762887" style="fill: #1f77b4; stroke: #000000"/>
     <use xlink:href="#m73c12c41e8" x="130.145179" y="57.767286" style="fill: #1f77b4; stroke: #000000"/>
     <use xlink:href="#m73c12c41e8" x="134.794479" y="60.184808" style="fill: #1f77b4; stroke: #000000"/>
     <use xlink:href="#m73c12c41e8" x="139.216135" y="62.997166" style="fill: #1f77b4; stroke: #000000"/>
     <use xlink:href="#m73c12c41e8" x="143.422882" y="66.221786" style="fill: #1f77b4; stroke: #000000"/>
    </g>
   </g>
   <g id="matplotlib.axis_1">
    <g id="xtick_1">
     <g id="line2d_1">
      <path d="M 104.69975 112.382563 
L 104.69975 43.092813 
" clip-path="url(#p66963c64bc)" style="fill: none; stroke: #b0b0b0; stroke-width: 0.8; stroke-linecap: square"/>
     </g>
     <g id="text_1">
      <!-- 0$^\degree$ -->
      <g transform="translate(97.48975 32.955938)">
       <text>
        <tspan style="font: 14px 'DejaVu Sans'" x="0" y="-0.3671875">0</tspan>
        <tspan style="font: 9.8px 'DejaVu Sans'" x="9.041211" y="-5.7265625">°</tspan>
       </text>
      </g>
     </g>
    </g>
    <g id="xtick_2">
     <g id="line2d_2">
      <path d="M 104.69975 112.382563 
L 173.9895 112.382563 
" clip-path="url(#p66963c64bc)" style="fill: none; stroke: #b0b0b0; stroke-width: 0.8; stroke-linecap: square"/>
     </g>
     <g id="text_2">
      <!-- 90$^\degree$ -->
      <g transform="translate(176.3695 116.245688)">
       <text>
        <tspan style="font: 14px 'DejaVu Sans'" x="0 8.907227" y="-0.3671875">90</tspan>
        <tspan style="font: 9.8px 'DejaVu Sans'" x="17.948438" y="-5.7265625">°</tspan>
       </text>
      </g>
     </g>
    </g>
    <g id="xtick_3">
     <g id="line2d_3">
      <path d="M 104.69975 112.382563 
L 104.69975 181.672312 
" clip-path="url(#p66963c64bc)" style="fill: none; stroke: #b0b0b0; stroke-width: 0.8; stroke-linecap: square"/>
     </g>
     <g id="text_3">
      <!-- 180$^\degree$ -->
      <g transform="translate(88.59975 199.535437)">
       <text>
        <tspan style="font: 14px 'DejaVu Sans'" x="0 8.907227 17.814453" y="-0.3671875">180</tspan>
        <tspan style="font: 9.8px 'DejaVu Sans'" x="26.855664" y="-5.7265625">°</tspan>
       </text>
      </g>
     </g>
    </g>
    <g id="xtick_4">
     <g id="line2d_4">
      <path d="M 104.69975 112.382563 
L 35.41 112.382563 
" clip-path="url(#p66963c64bc)" style="fill: none; stroke: #b0b0b0; stroke-width: 0.8; stroke-linecap: square"/>
     </g>
     <g id="text_4">
      <!-- -90$^\degree$ -->
      <g transform="translate(7.2 116.245688)">
       <text>
        <tspan style="font: 14px 'DejaVu Sans'" x="0 5.051758 13.958984" y="-0.3671875">-90</tspan>
        <tspan style="font: 9.8px 'DejaVu Sans'" x="23.000195" y="-5.7265625">°</tspan>
       </text>
      </g>
     </g>
    </g>
   </g>
   <g id="matplotlib.axis_2"/>
   <g id="line2d_5">
    <path d="M 104.69975 112.382563 
L 104.567619 111.726265 
L 104.435487 111.069968 
L 104.303356 110.41367 
L 104.171224 109.757373 
L 104.039093 109.101076 
L 103.906962 108.444778 
L 103.77483 107.788481 
L 103.642699 107.132183 
L 103.510567 106.475886 
L 103.378436 105.819589 
L 103.246305 105.163291 
L 103.114173 104.506994 
L 102.982042 103.850696 
L 102.84991 103.194399 
L 102.717779 102.538102 
L 102.585648 101.881804 
L 102.453516 101.225507 
L 102.321385 100.569209 
L 102.189253 99.912912 
L 102.057122 99.256615 
L 101.924991 98.600317 
L 101.792859 97.94402 
L 101.660728 97.287723 
L 101.528597 96.631425 
L 101.396465 95.975128 
L 101.264334 95.31883 
L 101.132202 94.662533 
L 101.000071 94.006236 
L 100.86794 93.349938 
L 100.735808 92.693641 
L 100.603677 92.037343 
L 100.471545 91.381046 
L 100.339414 90.724749 
L 100.207283 90.068451 
L 100.075151 89.412154 
L 99.94302 88.755856 
L 99.810888 88.099559 
L 99.678757 87.443262 
L 99.546626 86.786964 
L 99.414494 86.130667 
L 99.282363 85.474369 
L 99.150231 84.818072 
L 99.0181 84.161775 
L 98.885969 83.505477 
L 98.753837 82.84918 
L 98.621706 82.192883 
L 98.489574 81.536585 
L 98.357443 80.880288 
L 98.225312 80.22399 
L 98.09318 79.567693 
L 97.961049 78.911396 
L 97.828917 78.255098 
L 97.696786 77.598801 
L 97.564655 76.942503 
L 97.432523 76.286206 
L 97.300392 75.629909 
L 97.16826 74.973611 
L 97.036129 74.317314 
L 96.903998 73.661016 
L 96.771866 73.004719 
L 96.639735 72.348422 
L 96.507603 71.692124 
L 96.375472 71.035827 
L 96.243341 70.379529 
L 96.111209 69.723232 
L 95.979078 69.066935 
L 95.846947 68.410637 
L 95.714815 67.75434 
L 95.582684 67.098043 
L 95.450552 66.441745 
L 95.318421 65.785448 
L 95.18629 65.12915 
L 95.054158 64.472853 
L 94.922027 63.816556 
L 94.789895 63.160258 
L 94.657764 62.503961 
L 94.525633 61.847663 
L 94.393501 61.191366 
L 94.26137 60.535069 
L 94.129238 59.878771 
L 93.997107 59.222474 
L 93.864976 58.566176 
L 93.732844 57.909879 
L 93.600713 57.253582 
L 93.468581 56.597284 
L 93.33645 55.940987 
L 93.204319 55.284689 
L 93.072187 54.628392 
L 92.940056 53.972095 
L 92.807924 53.315797 
L 92.675793 52.6595 
L 92.543662 52.003203 
L 92.41153 51.346905 
L 92.279399 50.690608 
L 92.147267 50.03431 
L 92.015136 49.378013 
L 91.883005 48.721716 
L 91.750873 48.065418 
L 91.618742 47.409121 
" clip-path="url(#p66963c64bc)" style="fill: none; stroke: #000000; stroke-width: 1.5; stroke-linecap: square"/>
   </g>
   <g id="line2d_6">
    <path d="M 85.170142 49.048091 
L 85.298685 49.008596 
L 85.427307 48.969363 
L 85.556009 48.930391 
L 85.68479 48.89168 
L 85.813649 48.85323 
L 85.942585 48.815042 
L 86.071599 48.777115 
L 86.20069 48.739451 
L 86.329857 48.702048 
L 86.459099 48.664908 
L 86.588416 48.628029 
L 86.717808 48.591414 
L 86.847274 48.55506 
L 86.976814 48.51897 
L 87.106426 48.483143 
L 87.236111 48.447578 
L 87.365868 48.412277 
L 87.495696 48.377239 
L 87.625595 48.342465 
L 87.755564 48.307954 
L 87.885603 48.273707 
L 88.015712 48.239724 
L 88.145889 48.206005 
L 88.276134 48.17255 
L 88.406446 48.139359 
L 88.536826 48.106433 
L 88.667272 48.073772 
L 88.797785 48.041375 
L 88.928362 48.009243 
L 89.059005 47.977376 
L 89.189712 47.945775 
L 89.320483 47.914438 
L 89.451317 47.883367 
L 89.582214 47.852562 
L 89.713173 47.822022 
L 89.844194 47.791748 
L 89.975276 47.761739 
L 90.106419 47.731997 
L 90.237622 47.702521 
L 90.368884 47.673311 
L 90.500205 47.644368 
L 90.631585 47.615691 
L 90.763023 47.587281 
L 90.894518 47.559137 
L 91.02607 47.531261 
L 91.157678 47.503651 
L 91.289342 47.476308 
L 91.421061 47.449233 
L 91.552835 47.422425 
L 91.684663 47.395884 
L 91.816544 47.369611 
L 91.948479 47.343605 
L 92.080466 47.317867 
L 92.212504 47.292397 
L 92.344595 47.267195 
L 92.476736 47.242261 
L 92.608928 47.217596 
L 92.741169 47.193198 
L 92.873459 47.169069 
L 93.005799 47.145208 
L 93.138186 47.121616 
L 93.270621 47.098293 
L 93.403103 47.075238 
L 93.535631 47.052452 
L 93.668206 47.029935 
L 93.800826 47.007687 
L 93.933491 46.985708 
L 94.0662 46.963999 
L 94.198952 46.942558 
L 94.331748 46.921387 
L 94.464587 46.900486 
L 94.597468 46.879854 
L 94.730391 46.859492 
L 94.863354 46.839399 
L 94.996358 46.819577 
L 95.129402 46.800024 
L 95.262485 46.780741 
L 95.395608 46.761729 
L 95.528768 46.742986 
L 95.661966 46.724514 
L 95.795202 46.706312 
L 95.928474 46.68838 
L 96.061782 46.670719 
L 96.195126 46.653328 
L 96.328505 46.636208 
L 96.461918 46.619358 
L 96.595365 46.60278 
L 96.728846 46.586472 
L 96.862359 46.570434 
L 96.995905 46.554668 
L 97.129482 46.539173 
L 97.26309 46.523949 
L 97.39673 46.508996 
L 97.530399 46.494314 
L 97.664097 46.479903 
L 97.797825 46.465764 
L 97.931581 46.451896 
L 98.065365 46.438299 
L 98.199176 46.424974 
" clip-path="url(#p66963c64bc)" style="fill: none; stroke: #000000; stroke-width: 1.5; stroke-linecap: square"/>
   </g>
   <g id="patch_3">
    <path d="M 104.69975 43.092813 
C 95.600703 43.092813 86.590134 44.885126 78.183711 48.367181 
C 69.777288 51.849235 62.138495 56.953313 55.704498 63.38731 
C 49.2705 69.821308 44.166423 77.4601 40.684368 85.866523 
C 37.202314 94.272946 35.41 103.283516 35.41 112.382563 
C 35.41 121.481609 37.202314 130.492179 40.684368 138.898602 
C 44.166423 147.305025 49.2705 154.943817 55.704498 161.377815 
C 62.138495 167.811812 69.777288 172.91589 78.183711 176.397944 
C 86.590134 179.879999 95.600703 181.672312 104.69975 181.672312 
C 113.798797 181.672312 122.809366 179.879999 131.215789 176.397944 
C 139.622212 172.91589 147.261005 167.811812 153.695002 161.377815 
C 160.129 154.943817 165.233077 147.305025 168.715132 138.898602 
C 172.197186 130.492179 173.9895 121.481609 173.9895 112.382563 
C 173.9895 103.283516 172.197186 94.272946 168.715132 85.866523 
C 165.233077 77.4601 160.129 69.821308 153.695002 63.38731 
C 147.261005 56.953313 139.622212 51.849235 131.215789 48.367181 
C 122.809366 44.885126 113.798797 43.092813 104.69975 43.092813 
" style="fill: none; stroke: #000000; stroke-width: 0.8; stroke-linejoin: miter; stroke-linecap: square"/>
   </g>
   <g id="text_5">
    <g id="patch_4">
     <path d="M 74.24975 136.289438 
L 135.14975 136.289438 
L 135.14975 88.475688 
L 74.24975 88.475688 
z
" style="fill: #ffffff; stroke: #000000; stroke-linejoin: miter"/>
    </g>
    <!-- $\mu$ = -11.38$^\degree$ -->
    <g transform="translate(76.04975 99.075688)">
     <text>
      <tspan style="font: oblique 10px 'DejaVu Sans'" x="0" y="-0.9765625">μ</tspan>
      <tspan style="font: 10px 'DejaVu Sans'" x="6.362305 9.541016 17.919922 21.098633 24.707031 31.069336 37.431641 40.610352 46.972656" y="-0.9765625"> = -11.38</tspan>
      <tspan style="font: 7px 'DejaVu Sans'" x="53.430664" y="-4.8046875">°</tspan>
     </text>
    </g>
    <!-- $s0$ = 29.74$^\degree$ -->
    <g transform="translate(75.74975 110.293813)">
     <text>
      <tspan style="font: oblique 10px 'DejaVu Sans'" x="0" y="-0.9765625">s</tspan>
      <tspan style="font: 10px 'DejaVu Sans'" x="5.209961 11.572266 14.750977 23.129883 26.308594 32.545898 38.908203 41.336914 47.699219" y="-0.9765625">0 = 29.74</tspan>
      <tspan style="font: 7px 'DejaVu Sans'" x="54.157227" y="-4.8046875">°</tspan>
     </text>
    </g>
    <!-- $V = 0.86$ -->
    <g transform="translate(84.09975 121.491625)">
     <text>
      <tspan style="font: oblique 10px 'DejaVu Sans'" x="0" y="-0.578125">V</tspan>
      <tspan style="font: 10px 'DejaVu Sans'" x="8.789062 19.116211 25.478516 28.407227 34.769531" y="-0.578125">=0.86</tspan>
     </text>
    </g>
    <!-- $p$ &lt; 1e-06 -->
    <g transform="translate(79.69975 132.689437)">
     <text>
      <tspan style="font: oblique 10px 'DejaVu Sans'" x="0" y="-0.578125">p</tspan>
      <tspan style="font: 10px 'DejaVu Sans'" x="6.347656 9.526367 17.905273 21.083984 27.446289 33.598633 37.207031 43.569336" y="-0.578125"> &lt; 1e-06</tspan>
     </text>
    </g>
   </g>
   <g id="text_6">
    <!-- A) Exit 1 $\rightarrow$ Exit 2 -->
    <g transform="translate(50.93975 16.318125)">
     <text>
      <tspan style="font: 12px 'DejaVu Sans'" x="0 8.208984 12.890625 16.705078 24.287109 31.388672 34.722656 39.427734 43.242188 50.876953 57.029297 69.421875 73.236328 80.818359 87.919922 91.253906 95.958984 99.773438" y="-0.875">A) Exit 1 → Exit 2</tspan>
     </text>
    </g>
   </g>
  </g>
  <g id="axes_2">
   <g id="patch_5">
    <path d="M 384.5895 112.382562 
C 384.5895 103.283516 382.797186 94.272946 379.315132 85.866523 
C 375.833077 77.4601 370.729 69.821308 364.295002 63.38731 
C 357.861005 56.953313 350.222212 51.849235 341.815789 48.367181 
C 333.409366 44.885126 324.398797 43.092813 315.29975 43.092813 
C 306.200703 43.092813 297.190134 44.885126 288.783711 48.367181 
C 280.377288 51.849235 272.738495 56.953313 266.304498 63.38731 
C 259.8705 69.821308 254.766423 77.4601 251.284368 85.866523 
C 247.802314 94.272946 246.01 103.283516 246.01 112.382562 
C 246.01 121.481609 247.802314 130.492179 251.284368 138.898602 
C 254.766423 147.305025 259.8705 154.943817 266.304498 161.377815 
C 272.738495 167.811812 280.377288 172.91589 288.783711 176.397944 
C 297.190134 179.879999 306.200703 181.672312 315.29975 181.672312 
C 324.398797 181.672312 333.409366 179.879999 341.815789 176.397944 
C 350.222212 172.91589 357.861005 167.811812 364.295002 161.377815 
C 370.729 154.943817 375.833077 147.305025 379.315132 138.898602 
C 382.797186 130.492179 384.5895 121.481609 384.5895 112.382563 
M 315.29975 112.382562 
C 315.29975 112.382562 315.29975 112.382562 315.29975 112.382562 
C 315.29975 112.382562 315.29975 112.382562 315.29975 112.382562 
C 315.29975 112.382562 315.29975 112.382562 315.29975 112.382562 
C 315.29975 112.382562 315.29975 112.382562 315.29975 112.382562 
C 315.29975 112.382562 315.29975 112.382562 315.29975 112.382562 
C 315.29975 112.382562 315.29975 112.382562 315.29975 112.382562 
C 315.29975 112.382562 315.29975 112.382562 315.29975 112.382562 
C 315.29975 112.382562 315.29975 112.382562 315.29975 112.382562 
C 315.29975 112.382562 315.29975 112.382562 315.29975 112.382562 
C 315.29975 112.382562 315.29975 112.382562 315.29975 112.382562 
C 315.29975 112.382562 315.29975 112.382562 315.29975 112.382562 
C 315.29975 112.382562 315.29975 112.382562 315.29975 112.382562 
C 315.29975 112.382562 315.29975 112.382562 315.29975 112.382562 
C 315.29975 112.382562 315.29975 112.382562 315.29975 112.382562 
C 315.29975 112.382562 315.29975 112.382562 315.29975 112.382562 
C 315.29975 112.382562 315.29975 112.382562 315.29975 112.382562 
z
" style="fill: #ffffff"/>
   </g>
   <g id="PathCollection_2">
    <g clip-path="url(#p762a845e3f)">
     <use xlink:href="#m73c12c41e8" x="304.833563" y="171.718531" style="fill: #1f77b4; stroke: #000000"/>
     <use xlink:href="#m73c12c41e8" x="257.116405" y="96.730196" style="fill: #1f77b4; stroke: #000000"/>
     <use xlink:href="#m73c12c41e8" x="265.976436" y="77.777521" style="fill: #1f77b4; stroke: #000000"/>
     <use xlink:href="#m73c12c41e8" x="270.908767" y="81.238025" style="fill: #1f77b4; stroke: #000000"/>
     <use xlink:href="#m73c12c41e8" x="269.169824" y="73.622684" style="fill: #1f77b4; stroke: #000000"/>
     <use xlink:href="#m73c12c41e8" x="272.71215" y="69.761035" style="fill: #1f77b4; stroke: #000000"/>
     <use xlink:href="#m73c12c41e8" x="276.576618" y="66.221786" style="fill: #1f77b4; stroke: #000000"/>
     <use xlink:href="#m73c12c41e8" x="280.448931" y="70.837863" style="fill: #1f77b4; stroke: #000000"/>
     <use xlink:href="#m73c12c41e8" x="280.783365" y="62.997166" style="fill: #1f77b4; stroke: #000000"/>
     <use xlink:href="#m73c12c41e8" x="284.235003" y="67.935705" style="fill: #1f77b4; stroke: #000000"/>
     <use xlink:href="#m73c12c41e8" x="287.686642" y="72.874245" style="fill: #1f77b4; stroke: #000000"/>
     <use xlink:href="#m73c12c41e8" x="291.13828" y="77.812785" style="fill: #1f77b4; stroke: #000000"/>
     <use xlink:href="#m73c12c41e8" x="285.205021" y="60.184808" style="fill: #1f77b4; stroke: #000000"/>
     <use xlink:href="#m73c12c41e8" x="288.214494" y="65.404584" style="fill: #1f77b4; stroke: #000000"/>
     <use xlink:href="#m73c12c41e8" x="294.696096" y="55.762887" style="fill: #1f77b4; stroke: #000000"/>
     <use xlink:href="#m73c12c41e8" x="296.756461" y="61.424854" style="fill: #1f77b4; stroke: #000000"/>
     <use xlink:href="#m73c12c41e8" x="298.816826" y="67.086822" style="fill: #1f77b4; stroke: #000000"/>
     <use xlink:href="#m73c12c41e8" x="300.877192" y="72.748789" style="fill: #1f77b4; stroke: #000000"/>
     <use xlink:href="#m73c12c41e8" x="299.751925" y="54.171194" style="fill: #1f77b4; stroke: #000000"/>
     <use xlink:href="#m73c12c41e8" x="301.306707" y="59.992331" style="fill: #1f77b4; stroke: #000000"/>
     <use xlink:href="#m73c12c41e8" x="304.868731" y="53.040401" style="fill: #1f77b4; stroke: #000000"/>
     <use xlink:href="#m73c12c41e8" x="305.911833" y="58.974617" style="fill: #1f77b4; stroke: #000000"/>
     <use xlink:href="#m73c12c41e8" x="306.954935" y="64.908833" style="fill: #1f77b4; stroke: #000000"/>
     <use xlink:href="#m73c12c41e8" x="307.998037" y="70.84305" style="fill: #1f77b4; stroke: #000000"/>
     <use xlink:href="#m73c12c41e8" x="310.06444" y="52.358486" style="fill: #1f77b4; stroke: #000000"/>
     <use xlink:href="#m73c12c41e8" x="310.587971" y="58.360893" style="fill: #1f77b4; stroke: #000000"/>
     <use xlink:href="#m73c12c41e8" x="311.111502" y="64.363301" style="fill: #1f77b4; stroke: #000000"/>
     <use xlink:href="#m73c12c41e8" x="315.29975" y="52.130606" style="fill: #1f77b4; stroke: #000000"/>
     <use xlink:href="#m73c12c41e8" x="315.29975" y="58.155802" style="fill: #1f77b4; stroke: #000000"/>
     <use xlink:href="#m73c12c41e8" x="315.29975" y="64.180997" style="fill: #1f77b4; stroke: #000000"/>
     <use xlink:href="#m73c12c41e8" x="320.53506" y="52.358486" style="fill: #1f77b4; stroke: #000000"/>
     <use xlink:href="#m73c12c41e8" x="320.011529" y="58.360893" style="fill: #1f77b4; stroke: #000000"/>
     <use xlink:href="#m73c12c41e8" x="325.730769" y="53.040401" style="fill: #1f77b4; stroke: #000000"/>
     <use xlink:href="#m73c12c41e8" x="330.847575" y="54.171194" style="fill: #1f77b4; stroke: #000000"/>
     <use xlink:href="#m73c12c41e8" x="329.292793" y="59.992331" style="fill: #1f77b4; stroke: #000000"/>
     <use xlink:href="#m73c12c41e8" x="327.73801" y="65.813468" style="fill: #1f77b4; stroke: #000000"/>
     <use xlink:href="#m73c12c41e8" x="340.745179" y="57.767286" style="fill: #1f77b4; stroke: #000000"/>
     <use xlink:href="#m73c12c41e8" x="345.394479" y="60.184808" style="fill: #1f77b4; stroke: #000000"/>
     <use xlink:href="#m73c12c41e8" x="354.022882" y="66.221786" style="fill: #1f77b4; stroke: #000000"/>
     <use xlink:href="#m73c12c41e8" x="350.150569" y="70.837863" style="fill: #1f77b4; stroke: #000000"/>
    </g>
   </g>
   <g id="matplotlib.axis_3">
    <g id="xtick_5">
     <g id="line2d_7">
      <path d="M 315.29975 112.382563 
L 315.29975 43.092813 
" clip-path="url(#p762a845e3f)" style="fill: none; stroke: #b0b0b0; stroke-width: 0.8; stroke-linecap: square"/>
     </g>
     <g id="text_7">
      <!-- 0$^\degree$ -->
      <g transform="translate(308.08975 32.955938)">
       <text>
        <tspan style="font: 14px 'DejaVu Sans'" x="0" y="-0.3671875">0</tspan>
        <tspan style="font: 9.8px 'DejaVu Sans'" x="9.041211" y="-5.7265625">°</tspan>
       </text>
      </g>
     </g>
    </g>
    <g id="xtick_6">
     <g id="line2d_8">
      <path d="M 315.29975 112.382563 
L 384.5895 112.382563 
" clip-path="url(#p762a845e3f)" style="fill: none; stroke: #b0b0b0; stroke-width: 0.8; stroke-linecap: square"/>
     </g>
     <g id="text_8">
      <!-- 90$^\degree$ -->
      <g transform="translate(386.9695 116.245688)">
       <text>
        <tspan style="font: 14px 'DejaVu Sans'" x="0 8.907227" y="-0.3671875">90</tspan>
        <tspan style="font: 9.8px 'DejaVu Sans'" x="17.948438" y="-5.7265625">°</tspan>
       </text>
      </g>
     </g>
    </g>
    <g id="xtick_7">
     <g id="line2d_9">
      <path d="M 315.29975 112.382563 
L 315.29975 181.672312 
" clip-path="url(#p762a845e3f)" style="fill: none; stroke: #b0b0b0; stroke-width: 0.8; stroke-linecap: square"/>
     </g>
     <g id="text_9">
      <!-- 180$^\degree$ -->
      <g transform="translate(299.19975 199.535437)">
       <text>
        <tspan style="font: 14px 'DejaVu Sans'" x="0 8.907227 17.814453" y="-0.3671875">180</tspan>
        <tspan style="font: 9.8px 'DejaVu Sans'" x="26.855664" y="-5.7265625">°</tspan>
       </text>
      </g>
     </g>
    </g>
    <g id="xtick_8">
     <g id="line2d_10">
      <path d="M 315.29975 112.382563 
L 246.01 112.382563 
" clip-path="url(#p762a845e3f)" style="fill: none; stroke: #b0b0b0; stroke-width: 0.8; stroke-linecap: square"/>
     </g>
     <g id="text_10">
      <!-- -90$^\degree$ -->
      <g transform="translate(217.8 116.245688)">
       <text>
        <tspan style="font: 14px 'DejaVu Sans'" x="0 5.051758 13.958984" y="-0.3671875">-90</tspan>
        <tspan style="font: 9.8px 'DejaVu Sans'" x="23.000195" y="-5.7265625">°</tspan>
       </text>
      </g>
     </g>
    </g>
   </g>
   <g id="matplotlib.axis_4"/>
   <g id="line2d_11">
    <path d="M 315.29975 112.382563 
L 315.13638 111.733336 
L 314.97301 111.084109 
L 314.80964 110.434883 
L 314.646271 109.785656 
L 314.482901 109.136429 
L 314.319531 108.487203 
L 314.156161 107.837976 
L 313.992791 107.188749 
L 313.829421 106.539523 
L 313.666051 105.890296 
L 313.502682 105.241069 
L 313.339312 104.591843 
L 313.175942 103.942616 
L 313.012572 103.293389 
L 312.849202 102.644163 
L 312.685832 101.994936 
L 312.522462 101.345709 
L 312.359093 100.696483 
L 312.195723 100.047256 
L 312.032353 99.398029 
L 311.868983 98.748803 
L 311.705613 98.099576 
L 311.542243 97.450349 
L 311.378873 96.801123 
L 311.215504 96.151896 
L 311.052134 95.502669 
L 310.888764 94.853443 
L 310.725394 94.204216 
L 310.562024 93.554989 
L 310.398654 92.905763 
L 310.235284 92.256536 
L 310.071915 91.607309 
L 309.908545 90.958083 
L 309.745175 90.308856 
L 309.581805 89.659629 
L 309.418435 89.010403 
L 309.255065 88.361176 
L 309.091695 87.711949 
L 308.928326 87.062723 
L 308.764956 86.413496 
L 308.601586 85.764269 
L 308.438216 85.115043 
L 308.274846 84.465816 
L 308.111476 83.816589 
L 307.948106 83.167363 
L 307.784737 82.518136 
L 307.621367 81.868909 
L 307.457997 81.219683 
L 307.294627 80.570456 
L 307.131257 79.921229 
L 306.967887 79.272003 
L 306.804518 78.622776 
L 306.641148 77.973549 
L 306.477778 77.324323 
L 306.314408 76.675096 
L 306.151038 76.025869 
L 305.987668 75.376643 
L 305.824298 74.727416 
L 305.660929 74.078189 
L 305.497559 73.428963 
L 305.334189 72.779736 
L 305.170819 72.130509 
L 305.007449 71.481283 
L 304.844079 70.832056 
L 304.680709 70.182829 
L 304.51734 69.533603 
L 304.35397 68.884376 
L 304.1906 68.235149 
L 304.02723 67.585923 
L 303.86386 66.936696 
L 303.70049 66.287469 
L 303.53712 65.638243 
L 303.373751 64.989016 
L 303.210381 64.339789 
L 303.047011 63.690563 
L 302.883641 63.041336 
L 302.720271 62.392109 
L 302.556901 61.742883 
L 302.393531 61.093656 
L 302.230162 60.444429 
L 302.066792 59.795203 
L 301.903422 59.145976 
L 301.740052 58.496749 
L 301.576682 57.847523 
L 301.413312 57.198296 
L 301.249942 56.549069 
L 301.086573 55.899843 
L 300.923203 55.250616 
L 300.759833 54.601389 
L 300.596463 53.952163 
L 300.433093 53.302936 
L 300.269723 52.653709 
L 300.106353 52.004483 
L 299.942984 51.355256 
L 299.779614 50.706029 
L 299.616244 50.056803 
L 299.452874 49.407576 
L 299.289504 48.758349 
L 299.126134 48.109123 
" clip-path="url(#p762a845e3f)" style="fill: none; stroke: #000000; stroke-width: 1.5; stroke-linecap: square"/>
   </g>
   <g id="line2d_12">
    <path d="M 292.521584 50.142575 
L 292.652796 50.094711 
L 292.784109 50.047125 
L 292.915522 49.999815 
L 293.047034 49.952782 
L 293.178645 49.906026 
L 293.310354 49.859548 
L 293.442161 49.813347 
L 293.574065 49.767425 
L 293.706065 49.72178 
L 293.838161 49.676414 
L 293.970353 49.631326 
L 294.102639 49.586517 
L 294.235019 49.541986 
L 294.367493 49.497735 
L 294.50006 49.453763 
L 294.63272 49.41007 
L 294.765471 49.366658 
L 294.898313 49.323525 
L 295.031246 49.280672 
L 295.164269 49.238099 
L 295.297381 49.195806 
L 295.430582 49.153795 
L 295.563872 49.112064 
L 295.697249 49.070614 
L 295.830713 49.029445 
L 295.964263 48.988558 
L 296.0979 48.947952 
L 296.231621 48.907628 
L 296.365428 48.867585 
L 296.499318 48.827825 
L 296.633292 48.788347 
L 296.767349 48.749151 
L 296.901488 48.710238 
L 297.035709 48.671608 
L 297.170011 48.633261 
L 297.304393 48.595197 
L 297.438856 48.557416 
L 297.573397 48.519918 
L 297.708018 48.482704 
L 297.842716 48.445774 
L 297.977492 48.409128 
L 298.112345 48.372766 
L 298.247275 48.336688 
L 298.38228 48.300895 
L 298.51736 48.265386 
L 298.652515 48.230162 
L 298.787743 48.195223 
L 298.923045 48.160569 
L 299.05842 48.1262 
L 299.193867 48.092117 
L 299.329385 48.058319 
L 299.464974 48.024806 
L 299.600634 47.99158 
L 299.736363 47.958639 
L 299.872162 47.925985 
L 300.008029 47.893617 
L 300.143963 47.861535 
L 300.279966 47.829739 
L 300.416034 47.798231 
L 300.552169 47.767009 
L 300.68837 47.736074 
L 300.824635 47.705426 
L 300.960965 47.675066 
L 301.097358 47.644993 
L 301.233814 47.615207 
L 301.370333 47.585709 
L 301.506914 47.556498 
L 301.643556 47.527576 
L 301.780258 47.498942 
L 301.917021 47.470595 
L 302.053843 47.442537 
L 302.190724 47.414768 
L 302.327663 47.387287 
L 302.46466 47.360094 
L 302.601714 47.333191 
L 302.738824 47.306576 
L 302.87599 47.28025 
L 303.013211 47.254213 
L 303.150486 47.228466 
L 303.287816 47.203008 
L 303.425199 47.177839 
L 303.562634 47.15296 
L 303.700122 47.128371 
L 303.837661 47.104071 
L 303.975252 47.080061 
L 304.112892 47.056342 
L 304.250582 47.032912 
L 304.388322 47.009773 
L 304.526109 46.986924 
L 304.663945 46.964365 
L 304.801828 46.942097 
L 304.939757 46.920119 
L 305.077732 46.898433 
L 305.215753 46.877037 
L 305.353819 46.855932 
L 305.491928 46.835118 
L 305.630082 46.814595 
L 305.768278 46.794363 
L 305.906517 46.774422 
" clip-path="url(#p762a845e3f)" style="fill: none; stroke: #000000; stroke-width: 1.5; stroke-linecap: square"/>
   </g>
   <g id="patch_6">
    <path d="M 315.29975 43.092813 
C 306.200703 43.092813 297.190134 44.885126 288.783711 48.367181 
C 280.377288 51.849235 272.738495 56.953313 266.304498 63.38731 
C 259.8705 69.821308 254.766423 77.4601 251.284368 85.866523 
C 247.802314 94.272946 246.01 103.283516 246.01 112.382563 
C 246.01 121.481609 247.802314 130.492179 251.284368 138.898602 
C 254.766423 147.305025 259.8705 154.943817 266.304498 161.377815 
C 272.738495 167.811812 280.377288 172.91589 288.783711 176.397944 
C 297.190134 179.879999 306.200703 181.672312 315.29975 181.672312 
C 324.398797 181.672312 333.409366 179.879999 341.815789 176.397944 
C 350.222212 172.91589 357.861005 167.811812 364.295002 161.377815 
C 370.729 154.943817 375.833077 147.305025 379.315132 138.898602 
C 382.797186 130.492179 384.5895 121.481609 384.5895 112.382563 
C 384.5895 103.283516 382.797186 94.272946 379.315132 85.866523 
C 375.833077 77.4601 370.729 69.821308 364.295002 63.38731 
C 357.861005 56.953313 350.222212 51.849235 341.815789 48.367181 
C 333.409366 44.885126 324.398797 43.092813 315.29975 43.092813 
" style="fill: none; stroke: #000000; stroke-width: 0.8; stroke-linejoin: miter; stroke-linecap: square"/>
   </g>
   <g id="text_11">
    <g id="patch_7">
     <path d="M 284.64975 136.289438 
L 345.94975 136.289438 
L 345.94975 88.475688 
L 284.64975 88.475688 
z
" style="fill: #ffffff; stroke: #000000; stroke-linejoin: miter"/>
    </g>
    <!-- $\mu$ = -14.12$^\degree$ -->
    <g transform="translate(286.64975 99.075688)">
     <text>
      <tspan style="font: oblique 10px 'DejaVu Sans'" x="0" y="-0.9765625">μ</tspan>
      <tspan style="font: 10px 'DejaVu Sans'" x="6.362305 9.541016 17.919922 21.098633 24.707031 31.069336 37.431641 40.610352 46.972656" y="-0.9765625"> = -14.12</tspan>
      <tspan style="font: 7px 'DejaVu Sans'" x="53.430664" y="-4.8046875">°</tspan>
     </text>
    </g>
    <!-- $s0$ = 32.22$^\degree$ -->
    <g transform="translate(286.14975 110.293813)">
     <text>
      <tspan style="font: oblique 10px 'DejaVu Sans'" x="0" y="-0.9765625">s</tspan>
      <tspan style="font: 10px 'DejaVu Sans'" x="5.209961 11.572266 14.750977 23.129883 26.308594 32.670898 39.033203 41.711914 48.074219" y="-0.9765625">0 = 32.22</tspan>
      <tspan style="font: 7px 'DejaVu Sans'" x="54.532227" y="-4.8046875">°</tspan>
     </text>
    </g>
    <!-- $V = 0.83$ -->
    <g transform="translate(294.69975 121.491625)">
     <text>
      <tspan style="font: oblique 10px 'DejaVu Sans'" x="0" y="-0.578125">V</tspan>
      <tspan style="font: 10px 'DejaVu Sans'" x="8.789062 19.116211 25.478516 28.407227 34.769531" y="-0.578125">=0.83</tspan>
     </text>
    </g>
    <!-- $p$ &lt; 1e-06 -->
    <g transform="translate(290.29975 132.689437)">
     <text>
      <tspan style="font: oblique 10px 'DejaVu Sans'" x="0" y="-0.578125">p</tspan>
      <tspan style="font: 10px 'DejaVu Sans'" x="6.347656 9.526367 17.905273 21.083984 27.446289 33.598633 37.207031 43.569336" y="-0.578125"> &lt; 1e-06</tspan>
     </text>
    </g>
   </g>
   <g id="text_12">
    <!-- B) Exit 1 $\rightarrow$ Exit 3 -->
    <g transform="translate(261.53975 16.318125)">
     <text>
      <tspan style="font: 12px 'DejaVu Sans'" x="0 8.232422 12.914062 16.728516 24.310547 31.412109 34.746094 39.451172 43.265625 50.900391 57.052734 69.445312 73.259766 80.841797 87.943359 91.277344 95.982422 99.796875" y="-0.875">B) Exit 1 → Exit 3</tspan>
     </text>
    </g>
   </g>
  </g>
  <g id="axes_3">
   <g id="patch_8">
    <path d="M 173.9895 322.982562 
C 173.9895 313.883516 172.197186 304.872946 168.715132 296.466523 
C 165.233077 288.0601 160.129 280.421308 153.695002 273.98731 
C 147.261005 267.553313 139.622212 262.449235 131.215789 258.967181 
C 122.809366 255.485126 113.798797 253.692812 104.69975 253.692812 
C 95.600703 253.692812 86.590134 255.485126 78.183711 258.967181 
C 69.777288 262.449235 62.138495 267.553313 55.704498 273.98731 
C 49.2705 280.421308 44.166423 288.0601 40.684368 296.466523 
C 37.202314 304.872946 35.41 313.883516 35.41 322.982562 
C 35.41 332.081609 37.202314 341.092179 40.684368 349.498602 
C 44.166423 357.905025 49.2705 365.543817 55.704498 371.977815 
C 62.138495 378.411812 69.777288 383.51589 78.183711 386.997944 
C 86.590134 390.479999 95.600703 392.272312 104.69975 392.272312 
C 113.798797 392.272312 122.809366 390.479999 131.215789 386.997944 
C 139.622212 383.51589 147.261005 378.411812 153.695002 371.977815 
C 160.129 365.543817 165.233077 357.905025 168.715132 349.498602 
C 172.197186 341.092179 173.9895 332.081609 173.9895 322.982562 
M 104.69975 322.982562 
C 104.69975 322.982562 104.69975 322.982562 104.69975 322.982562 
C 104.69975 322.982562 104.69975 322.982562 104.69975 322.982562 
C 104.69975 322.982562 104.69975 322.982562 104.69975 322.982562 
C 104.69975 322.982562 104.69975 322.982562 104.69975 322.982562 
C 104.69975 322.982562 104.69975 322.982562 104.69975 322.982562 
C 104.69975 322.982562 104.69975 322.982562 104.69975 322.982562 
C 104.69975 322.982562 104.69975 322.982562 104.69975 322.982562 
C 104.69975 322.982562 104.69975 322.982562 104.69975 322.982562 
C 104.69975 322.982562 104.69975 322.982562 104.69975 322.982562 
C 104.69975 322.982562 104.69975 322.982562 104.69975 322.982562 
C 104.69975 322.982562 104.69975 322.982562 104.69975 322.982562 
C 104.69975 322.982562 104.69975 322.982562 104.69975 322.982562 
C 104.69975 322.982562 104.69975 322.982562 104.69975 322.982562 
C 104.69975 322.982562 104.69975 322.982562 104.69975 322.982562 
C 104.69975 322.982562 104.69975 322.982562 104.69975 322.982562 
C 104.69975 322.982562 104.69975 322.982562 104.69975 322.982562 
z
" style="fill: #ffffff"/>
   </g>
   <g id="PathCollection_3">
    <g clip-path="url(#p1b81a6479d)">
     <use xlink:href="#m73c12c41e8" x="99.428867" y="383.003526" style="fill: #1f77b4; stroke: #000000"/>
     <use xlink:href="#m73c12c41e8" x="44.676741" y="328.230098" style="fill: #1f77b4; stroke: #000000"/>
     <use xlink:href="#m73c12c41e8" x="44.447813" y="322.934582" style="fill: #1f77b4; stroke: #000000"/>
     <use xlink:href="#m73c12c41e8" x="50.473006" y="322.93938" style="fill: #1f77b4; stroke: #000000"/>
     <use xlink:href="#m73c12c41e8" x="56.4982" y="322.944178" style="fill: #1f77b4; stroke: #000000"/>
     <use xlink:href="#m73c12c41e8" x="62.523394" y="322.948976" style="fill: #1f77b4; stroke: #000000"/>
     <use xlink:href="#m73c12c41e8" x="44.679861" y="317.699455" style="fill: #1f77b4; stroke: #000000"/>
     <use xlink:href="#m73c12c41e8" x="45.365914" y="312.504291" style="fill: #1f77b4; stroke: #000000"/>
     <use xlink:href="#m73c12c41e8" x="51.299298" y="313.552118" style="fill: #1f77b4; stroke: #000000"/>
     <use xlink:href="#m73c12c41e8" x="46.516405" y="307.330196" style="fill: #1f77b4; stroke: #000000"/>
     <use xlink:href="#m73c12c41e8" x="50.104754" y="297.49365" style="fill: #1f77b4; stroke: #000000"/>
     <use xlink:href="#m73c12c41e8" x="52.525977" y="292.846277" style="fill: #1f77b4; stroke: #000000"/>
     <use xlink:href="#m73c12c41e8" x="57.743355" y="295.859905" style="fill: #1f77b4; stroke: #000000"/>
     <use xlink:href="#m73c12c41e8" x="55.376436" y="288.377521" style="fill: #1f77b4; stroke: #000000"/>
     <use xlink:href="#m73c12c41e8" x="60.308767" y="291.838025" style="fill: #1f77b4; stroke: #000000"/>
     <use xlink:href="#m73c12c41e8" x="58.569824" y="284.222684" style="fill: #1f77b4; stroke: #000000"/>
     <use xlink:href="#m73c12c41e8" x="63.182817" y="288.098672" style="fill: #1f77b4; stroke: #000000"/>
     <use xlink:href="#m73c12c41e8" x="67.795809" y="291.974659" style="fill: #1f77b4; stroke: #000000"/>
     <use xlink:href="#m73c12c41e8" x="62.11215" y="280.361035" style="fill: #1f77b4; stroke: #000000"/>
     <use xlink:href="#m73c12c41e8" x="65.976618" y="276.821786" style="fill: #1f77b4; stroke: #000000"/>
     <use xlink:href="#m73c12c41e8" x="69.848931" y="281.437863" style="fill: #1f77b4; stroke: #000000"/>
     <use xlink:href="#m73c12c41e8" x="73.721244" y="286.053941" style="fill: #1f77b4; stroke: #000000"/>
     <use xlink:href="#m73c12c41e8" x="77.593558" y="290.670019" style="fill: #1f77b4; stroke: #000000"/>
     <use xlink:href="#m73c12c41e8" x="74.605021" y="270.784808" style="fill: #1f77b4; stroke: #000000"/>
     <use xlink:href="#m73c12c41e8" x="77.614494" y="276.004584" style="fill: #1f77b4; stroke: #000000"/>
     <use xlink:href="#m73c12c41e8" x="80.623967" y="281.224359" style="fill: #1f77b4; stroke: #000000"/>
     <use xlink:href="#m73c12c41e8" x="79.254321" y="268.367286" style="fill: #1f77b4; stroke: #000000"/>
     <use xlink:href="#m73c12c41e8" x="84.096096" y="266.362887" style="fill: #1f77b4; stroke: #000000"/>
     <use xlink:href="#m73c12c41e8" x="86.156461" y="272.024854" style="fill: #1f77b4; stroke: #000000"/>
     <use xlink:href="#m73c12c41e8" x="89.151925" y="264.771194" style="fill: #1f77b4; stroke: #000000"/>
     <use xlink:href="#m73c12c41e8" x="90.706707" y="270.592331" style="fill: #1f77b4; stroke: #000000"/>
     <use xlink:href="#m73c12c41e8" x="94.268731" y="263.640401" style="fill: #1f77b4; stroke: #000000"/>
     <use xlink:href="#m73c12c41e8" x="99.46444" y="262.958486" style="fill: #1f77b4; stroke: #000000"/>
     <use xlink:href="#m73c12c41e8" x="99.987971" y="268.960893" style="fill: #1f77b4; stroke: #000000"/>
     <use xlink:href="#m73c12c41e8" x="100.511502" y="274.963301" style="fill: #1f77b4; stroke: #000000"/>
     <use xlink:href="#m73c12c41e8" x="115.130769" y="263.640401" style="fill: #1f77b4; stroke: #000000"/>
     <use xlink:href="#m73c12c41e8" x="120.247575" y="264.771194" style="fill: #1f77b4; stroke: #000000"/>
     <use xlink:href="#m73c12c41e8" x="118.692793" y="270.592331" style="fill: #1f77b4; stroke: #000000"/>
     <use xlink:href="#m73c12c41e8" x="125.303404" y="266.362887" style="fill: #1f77b4; stroke: #000000"/>
     <use xlink:href="#m73c12c41e8" x="123.243039" y="272.024854" style="fill: #1f77b4; stroke: #000000"/>
    </g>
   </g>
   <g id="matplotlib.axis_5">
    <g id="xtick_9">
     <g id="line2d_13">
      <path d="M 104.69975 322.982562 
L 104.69975 253.692812 
" clip-path="url(#p1b81a6479d)" style="fill: none; stroke: #b0b0b0; stroke-width: 0.8; stroke-linecap: square"/>
     </g>
     <g id="text_13">
      <!-- 0$^\degree$ -->
      <g transform="translate(97.48975 243.555937)">
       <text>
        <tspan style="font: 14px 'DejaVu Sans'" x="0" y="-0.3671875">0</tspan>
        <tspan style="font: 9.8px 'DejaVu Sans'" x="9.041211" y="-5.7265625">°</tspan>
       </text>
      </g>
     </g>
    </g>
    <g id="xtick_10">
     <g id="line2d_14">
      <path d="M 104.69975 322.982562 
L 173.9895 322.982562 
" clip-path="url(#p1b81a6479d)" style="fill: none; stroke: #b0b0b0; stroke-width: 0.8; stroke-linecap: square"/>
     </g>
     <g id="text_14">
      <!-- 90$^\degree$ -->
      <g transform="translate(176.3695 326.845687)">
       <text>
        <tspan style="font: 14px 'DejaVu Sans'" x="0 8.907227" y="-0.3671875">90</tspan>
        <tspan style="font: 9.8px 'DejaVu Sans'" x="17.948438" y="-5.7265625">°</tspan>
       </text>
      </g>
     </g>
    </g>
    <g id="xtick_11">
     <g id="line2d_15">
      <path d="M 104.69975 322.982562 
L 104.69975 392.272312 
" clip-path="url(#p1b81a6479d)" style="fill: none; stroke: #b0b0b0; stroke-width: 0.8; stroke-linecap: square"/>
     </g>
     <g id="text_15">
      <!-- 180$^\degree$ -->
      <g transform="translate(88.59975 410.135437)">
       <text>
        <tspan style="font: 14px 'DejaVu Sans'" x="0 8.907227 17.814453" y="-0.3671875">180</tspan>
        <tspan style="font: 9.8px 'DejaVu Sans'" x="26.855664" y="-5.7265625">°</tspan>
       </text>
      </g>
     </g>
    </g>
    <g id="xtick_12">
     <g id="line2d_16">
      <path d="M 104.69975 322.982562 
L 35.41 322.982562 
" clip-path="url(#p1b81a6479d)" style="fill: none; stroke: #b0b0b0; stroke-width: 0.8; stroke-linecap: square"/>
     </g>
     <g id="text_16">
      <!-- -90$^\degree$ -->
      <g transform="translate(7.2 326.845687)">
       <text>
        <tspan style="font: 14px 'DejaVu Sans'" x="0 5.051758 13.958984" y="-0.3671875">-90</tspan>
        <tspan style="font: 9.8px 'DejaVu Sans'" x="23.000195" y="-5.7265625">°</tspan>
       </text>
      </g>
     </g>
    </g>
   </g>
   <g id="matplotlib.axis_6"/>
   <g id="line2d_17">
    <path d="M 104.69975 322.982562 
L 104.25811 322.479433 
L 103.81647 321.976304 
L 103.374831 321.473174 
L 102.933191 320.970045 
L 102.491551 320.466915 
L 102.049911 319.963786 
L 101.608271 319.460656 
L 101.166632 318.957527 
L 100.724992 318.454397 
L 100.283352 317.951268 
L 99.841712 317.448138 
L 99.400072 316.945009 
L 98.958432 316.44188 
L 98.516793 315.93875 
L 98.075153 315.435621 
L 97.633513 314.932491 
L 97.191873 314.429362 
L 96.750233 313.926232 
L 96.308594 313.423103 
L 95.866954 312.919973 
L 95.425314 312.416844 
L 94.983674 311.913714 
L 94.542034 311.410585 
L 94.100395 310.907456 
L 93.658755 310.404326 
L 93.217115 309.901197 
L 92.775475 309.398067 
L 92.333835 308.894938 
L 91.892195 308.391808 
L 91.450556 307.888679 
L 91.008916 307.385549 
L 90.567276 306.88242 
L 90.125636 306.37929 
L 89.683996 305.876161 
L 89.242357 305.373032 
L 88.800717 304.869902 
L 88.359077 304.366773 
L 87.917437 303.863643 
L 87.475797 303.360514 
L 87.034158 302.857384 
L 86.592518 302.354255 
L 86.150878 301.851125 
L 85.709238 301.347996 
L 85.267598 300.844866 
L 84.825959 300.341737 
L 84.384319 299.838608 
L 83.942679 299.335478 
L 83.501039 298.832349 
L 83.059399 298.329219 
L 82.617759 297.82609 
L 82.17612 297.32296 
L 81.73448 296.819831 
L 81.29284 296.316701 
L 80.8512 295.813572 
L 80.40956 295.310442 
L 79.967921 294.807313 
L 79.526281 294.304184 
L 79.084641 293.801054 
L 78.643001 293.297925 
L 78.201361 292.794795 
L 77.759722 292.291666 
L 77.318082 291.788536 
L 76.876442 291.285407 
L 76.434802 290.782277 
L 75.993162 290.279148 
L 75.551523 289.776018 
L 75.109883 289.272889 
L 74.668243 288.76976 
L 74.226603 288.26663 
L 73.784963 287.763501 
L 73.343323 287.260371 
L 72.901684 286.757242 
L 72.460044 286.254112 
L 72.018404 285.750983 
L 71.576764 285.247853 
L 71.135124 284.744724 
L 70.693485 284.241594 
L 70.251845 283.738465 
L 69.810205 283.235336 
L 69.368565 282.732206 
L 68.926925 282.229077 
L 68.485286 281.725947 
L 68.043646 281.222818 
L 67.602006 280.719688 
L 67.160366 280.216559 
L 66.718726 279.713429 
L 66.277086 279.2103 
L 65.835447 278.70717 
L 65.393807 278.204041 
L 64.952167 277.700912 
L 64.510527 277.197782 
L 64.068887 276.694653 
L 63.627248 276.191523 
L 63.185608 275.688394 
L 62.743968 275.185264 
L 62.302328 274.682135 
L 61.860688 274.179005 
L 61.419049 273.675876 
L 60.977409 273.172746 
" clip-path="url(#p1b81a6479d)" style="fill: none; stroke: #000000; stroke-width: 1.5; stroke-linecap: square"/>
   </g>
   <g id="line2d_18">
    <path d="M 55.512342 278.561174 
L 55.616452 278.446164 
L 55.720831 278.331399 
L 55.825479 278.216878 
L 55.930394 278.102602 
L 56.035577 277.988573 
L 56.141026 277.874789 
L 56.246741 277.761253 
L 56.352721 277.647965 
L 56.458967 277.534925 
L 56.565477 277.422134 
L 56.67225 277.309593 
L 56.779287 277.197302 
L 56.886586 277.085262 
L 56.994147 276.973473 
L 57.101969 276.861936 
L 57.210053 276.750652 
L 57.318396 276.639621 
L 57.426999 276.528845 
L 57.535861 276.418322 
L 57.644981 276.308055 
L 57.75436 276.198043 
L 57.863995 276.088288 
L 57.973887 275.97879 
L 58.084035 275.869549 
L 58.194438 275.760567 
L 58.305097 275.651843 
L 58.416009 275.543378 
L 58.527175 275.435173 
L 58.638594 275.327229 
L 58.750265 275.219546 
L 58.862188 275.112125 
L 58.974362 275.004966 
L 59.086787 274.898069 
L 59.199461 274.791436 
L 59.312385 274.685068 
L 59.425558 274.578963 
L 59.538978 274.473124 
L 59.652646 274.367551 
L 59.766561 274.262244 
L 59.880722 274.157204 
L 59.995128 274.052432 
L 60.10978 273.947927 
L 60.224676 273.843691 
L 60.339815 273.739725 
L 60.455197 273.636028 
L 60.570822 273.532602 
L 60.686689 273.429446 
L 60.802796 273.326562 
L 60.919145 273.22395 
L 61.035733 273.121611 
L 61.15256 273.019545 
L 61.269626 272.917752 
L 61.38693 272.816234 
L 61.504471 272.714991 
L 61.622249 272.614023 
L 61.740262 272.513331 
L 61.858512 272.412916 
L 61.976995 272.312777 
L 62.095713 272.212916 
L 62.214665 272.113334 
L 62.333849 272.01403 
L 62.453265 271.915005 
L 62.572913 271.81626 
L 62.692791 271.717796 
L 62.8129 271.619612 
L 62.933238 271.52171 
L 63.053805 271.424089 
L 63.1746 271.326751 
L 63.295623 271.229697 
L 63.416872 271.132925 
L 63.538348 271.036438 
L 63.660049 270.940235 
L 63.781975 270.844318 
L 63.904125 270.748686 
L 64.026499 270.65334 
L 64.149095 270.558281 
L 64.271914 270.463509 
L 64.394954 270.369025 
L 64.518215 270.274829 
L 64.641696 270.180922 
L 64.765397 270.087304 
L 64.889316 269.993977 
L 65.013453 269.900939 
L 65.137808 269.808192 
L 65.26238 269.715737 
L 65.387168 269.623573 
L 65.512171 269.531701 
L 65.637389 269.440123 
L 65.762821 269.348838 
L 65.888466 269.257847 
L 66.014323 269.16715 
L 66.140393 269.076747 
L 66.266674 268.986641 
L 66.393166 268.89683 
L 66.519867 268.807315 
L 66.646778 268.718097 
L 66.773897 268.629177 
L 66.901224 268.540554 
L 67.028758 268.452229 
" clip-path="url(#p1b81a6479d)" style="fill: none; stroke: #000000; stroke-width: 1.5; stroke-linecap: square"/>
   </g>
   <g id="patch_9">
    <path d="M 104.69975 253.692812 
C 95.600703 253.692812 86.590134 255.485126 78.183711 258.967181 
C 69.777288 262.449235 62.138495 267.553313 55.704498 273.98731 
C 49.2705 280.421308 44.166423 288.0601 40.684368 296.466523 
C 37.202314 304.872946 35.41 313.883516 35.41 322.982562 
C 35.41 332.081609 37.202314 341.092179 40.684368 349.498602 
C 44.166423 357.905025 49.2705 365.543817 55.704498 371.977815 
C 62.138495 378.411812 69.777288 383.51589 78.183711 386.997944 
C 86.590134 390.479999 95.600703 392.272312 104.69975 392.272312 
C 113.798797 392.272312 122.809366 390.479999 131.215789 386.997944 
C 139.622212 383.51589 147.261005 378.411812 153.695002 371.977815 
C 160.129 365.543817 165.233077 357.905025 168.715132 349.498602 
C 172.197186 341.092179 173.9895 332.081609 173.9895 322.982562 
C 173.9895 313.883516 172.197186 304.872946 168.715132 296.466523 
C 165.233077 288.0601 160.129 280.421308 153.695002 273.98731 
C 147.261005 267.553313 139.622212 262.449235 131.215789 258.967181 
C 122.809366 255.485126 113.798797 253.692812 104.69975 253.692812 
" style="fill: none; stroke: #000000; stroke-width: 0.8; stroke-linejoin: miter; stroke-linecap: square"/>
   </g>
   <g id="text_17">
    <g id="patch_10">
     <path d="M 73.74975 346.889437 
L 135.64975 346.889437 
L 135.64975 299.075687 
L 73.74975 299.075687 
z
" style="fill: #ffffff; stroke: #000000; stroke-linejoin: miter"/>
    </g>
    <!-- $\mu$ = -41.28$^\degree$ -->
    <g transform="translate(76.34975 309.675687)">
     <text>
      <tspan style="font: oblique 10px 'DejaVu Sans'" x="0" y="-0.9765625">μ</tspan>
      <tspan style="font: 10px 'DejaVu Sans'" x="6.362305 9.541016 17.919922 21.098633 24.707031 31.069336 37.431641 40.110352 46.472656" y="-0.9765625"> = -41.28</tspan>
      <tspan style="font: 7px 'DejaVu Sans'" x="52.930664" y="-4.8046875">°</tspan>
     </text>
    </g>
    <!-- $s0$ = 38.54$^\degree$ -->
    <g transform="translate(75.24975 320.893812)">
     <text>
      <tspan style="font: oblique 10px 'DejaVu Sans'" x="0" y="-0.9765625">s</tspan>
      <tspan style="font: 10px 'DejaVu Sans'" x="5.209961 11.572266 14.750977 23.129883 26.308594 32.670898 39.033203 42.211914 48.574219" y="-0.9765625">0 = 38.54</tspan>
      <tspan style="font: 7px 'DejaVu Sans'" x="55.032227" y="-4.8046875">°</tspan>
     </text>
    </g>
    <!-- $V = 0.60$ -->
    <g transform="translate(83.99975 332.091625)">
     <text>
      <tspan style="font: oblique 10px 'DejaVu Sans'" x="0" y="-0.578125">V</tspan>
      <tspan style="font: 10px 'DejaVu Sans'" x="8.789062 19.116211 25.478516 28.657227 35.019531" y="-0.578125">=0.60</tspan>
     </text>
    </g>
    <!-- $p$ &lt; 1e-06 -->
    <g transform="translate(79.69975 343.289437)">
     <text>
      <tspan style="font: oblique 10px 'DejaVu Sans'" x="0" y="-0.578125">p</tspan>
      <tspan style="font: 10px 'DejaVu Sans'" x="6.347656 9.526367 17.905273 21.083984 27.446289 33.598633 37.207031 43.569336" y="-0.578125"> &lt; 1e-06</tspan>
     </text>
    </g>
   </g>
   <g id="text_18">
    <!-- C) Exit 1 $\rightarrow$ Exit 4 -->
    <g transform="translate(50.87975 226.918125)">
     <text>
      <tspan style="font: 12px 'DejaVu Sans'" x="0 8.378906 13.060547 16.875 24.457031 31.558594 34.892578 39.597656 43.412109 51.046875 57.199219 69.591797 73.40625 80.988281 88.089844 91.423828 96.128906 99.943359" y="-0.875">C) Exit 1 → Exit 4</tspan>
     </text>
    </g>
   </g>
  </g>
  <g id="axes_4">
   <g id="patch_11">
    <path d="M 384.5895 322.982562 
C 384.5895 313.883516 382.797186 304.872946 379.315132 296.466523 
C 375.833077 288.0601 370.729 280.421308 364.295002 273.98731 
C 357.861005 267.553313 350.222212 262.449235 341.815789 258.967181 
C 333.409366 255.485126 324.398797 253.692812 315.29975 253.692812 
C 306.200703 253.692812 297.190134 255.485126 288.783711 258.967181 
C 280.377288 262.449235 272.738495 267.553313 266.304498 273.98731 
C 259.8705 280.421308 254.766423 288.0601 251.284368 296.466523 
C 247.802314 304.872946 246.01 313.883516 246.01 322.982562 
C 246.01 332.081609 247.802314 341.092179 251.284368 349.498602 
C 254.766423 357.905025 259.8705 365.543817 266.304498 371.977815 
C 272.738495 378.411812 280.377288 383.51589 288.783711 386.997944 
C 297.190134 390.479999 306.200703 392.272312 315.29975 392.272312 
C 324.398797 392.272312 333.409366 390.479999 341.815789 386.997944 
C 350.222212 383.51589 357.861005 378.411812 364.295002 371.977815 
C 370.729 365.543817 375.833077 357.905025 379.315132 349.498602 
C 382.797186 341.092179 384.5895 332.081609 384.5895 322.982562 
M 315.29975 322.982562 
C 315.29975 322.982562 315.29975 322.982562 315.29975 322.982562 
C 315.29975 322.982562 315.29975 322.982562 315.29975 322.982562 
C 315.29975 322.982562 315.29975 322.982562 315.29975 322.982562 
C 315.29975 322.982562 315.29975 322.982562 315.29975 322.982562 
C 315.29975 322.982562 315.29975 322.982562 315.29975 322.982562 
C 315.29975 322.982562 315.29975 322.982562 315.29975 322.982562 
C 315.29975 322.982562 315.29975 322.982562 315.29975 322.982562 
C 315.29975 322.982562 315.29975 322.982562 315.29975 322.982562 
C 315.29975 322.982562 315.29975 322.982562 315.29975 322.982562 
C 315.29975 322.982562 315.29975 322.982562 315.29975 322.982562 
C 315.29975 322.982562 315.29975 322.982562 315.29975 322.982562 
C 315.29975 322.982562 315.29975 322.982562 315.29975 322.982562 
C 315.29975 322.982562 315.29975 322.982562 315.29975 322.982562 
C 315.29975 322.982562 315.29975 322.982562 315.29975 322.982562 
C 315.29975 322.982562 315.29975 322.982562 315.29975 322.982562 
C 315.29975 322.982562 315.29975 322.982562 315.29975 322.982562 
z
" style="fill: #ffffff"/>
   </g>
   <g id="PathCollection_4">
    <defs>
     <path id="m9a75031d5f" d="M 0 2.738613 
C 0.726289 2.738613 1.422928 2.450055 1.936492 1.936492 
C 2.450055 1.422928 2.738613 0.726289 2.738613 0 
C 2.738613 -0.726289 2.450055 -1.422928 1.936492 -1.936492 
C 1.422928 -2.450055 0.726289 -2.738613 0 -2.738613 
C -0.726289 -2.738613 -1.422928 -2.450055 -1.936492 -1.936492 
C -2.450055 -1.422928 -2.738613 -0.726289 -2.738613 0 
C -2.738613 0.726289 -2.450055 1.422928 -1.936492 1.936492 
C -1.422928 2.450055 -0.726289 2.738613 0 2.738613 
z
" style="stroke: #000000"/>
    </defs>
    <g clip-path="url(#p7fb7750503)">
     <use xlink:href="#m9a75031d5f" x="315.29975" y="262.730606" style="fill: #d62728; stroke: #000000"/>
     <use xlink:href="#m9a75031d5f" x="320.551054" y="262.959883" style="fill: #d62728; stroke: #000000"/>
     <use xlink:href="#m9a75031d5f" x="330.894104" y="264.783642" style="fill: #d62728; stroke: #000000"/>
     <use xlink:href="#m9a75031d5f" x="335.907133" y="266.364244" style="fill: #d62728; stroke: #000000"/>
     <use xlink:href="#m9a75031d5f" x="333.846395" y="272.026075" style="fill: #d62728; stroke: #000000"/>
     <use xlink:href="#m9a75031d5f" x="349.858853" y="273.627049" style="fill: #d62728; stroke: #000000"/>
     <use xlink:href="#m9a75031d5f" x="357.904317" y="280.377995" style="fill: #d62728; stroke: #000000"/>
     <use xlink:href="#m9a75031d5f" x="361.455426" y="284.253351" style="fill: #d62728; stroke: #000000"/>
     <use xlink:href="#m9a75031d5f" x="356.839859" y="288.126272" style="fill: #d62728; stroke: #000000"/>
     <use xlink:href="#m9a75031d5f" x="352.224291" y="291.999194" style="fill: #d62728; stroke: #000000"/>
     <use xlink:href="#m9a75031d5f" x="364.655263" y="288.42346" style="fill: #d62728; stroke: #000000"/>
     <use xlink:href="#m9a75031d5f" x="367.479475" y="292.856584" style="fill: #d62728; stroke: #000000"/>
     <use xlink:href="#m9a75031d5f" x="369.906567" y="297.518985" style="fill: #d62728; stroke: #000000"/>
     <use xlink:href="#m9a75031d5f" x="364.445886" y="300.065343" style="fill: #d62728; stroke: #000000"/>
     <use xlink:href="#m9a75031d5f" x="374.636344" y="312.51992" style="fill: #d62728; stroke: #000000"/>
     <use xlink:href="#m9a75031d5f" x="375.32243" y="317.731258" style="fill: #d62728; stroke: #000000"/>
     <use xlink:href="#m9a75031d5f" x="369.320162" y="318.256389" style="fill: #d62728; stroke: #000000"/>
     <use xlink:href="#m9a75031d5f" x="375.551707" y="322.982562" style="fill: #d62728; stroke: #000000"/>
     <use xlink:href="#m9a75031d5f" x="375.32243" y="328.233867" style="fill: #d62728; stroke: #000000"/>
     <use xlink:href="#m9a75031d5f" x="373.498671" y="338.576916" style="fill: #d62728; stroke: #000000"/>
     <use xlink:href="#m9a75031d5f" x="371.918069" y="343.589945" style="fill: #d62728; stroke: #000000"/>
     <use xlink:href="#m9a75031d5f" x="345.425728" y="375.162287" style="fill: #d62728; stroke: #000000"/>
     <use xlink:href="#m9a75031d5f" x="335.907133" y="379.600881" style="fill: #d62728; stroke: #000000"/>
     <use xlink:href="#m9a75031d5f" x="325.762392" y="382.319156" style="fill: #d62728; stroke: #000000"/>
     <use xlink:href="#m9a75031d5f" x="310.048446" y="383.005242" style="fill: #d62728; stroke: #000000"/>
     <use xlink:href="#m9a75031d5f" x="265.944237" y="357.541665" style="fill: #d62728; stroke: #000000"/>
     <use xlink:href="#m9a75031d5f" x="258.681431" y="343.589945" style="fill: #d62728; stroke: #000000"/>
     <use xlink:href="#m9a75031d5f" x="257.100829" y="338.576916" style="fill: #d62728; stroke: #000000"/>
     <use xlink:href="#m9a75031d5f" x="262.920721" y="337.017481" style="fill: #d62728; stroke: #000000"/>
     <use xlink:href="#m9a75031d5f" x="255.047793" y="322.982562" style="fill: #d62728; stroke: #000000"/>
     <use xlink:href="#m9a75031d5f" x="257.100829" y="307.388209" style="fill: #d62728; stroke: #000000"/>
     <use xlink:href="#m9a75031d5f" x="260.692933" y="297.518985" style="fill: #d62728; stroke: #000000"/>
     <use xlink:href="#m9a75031d5f" x="263.120025" y="292.856584" style="fill: #d62728; stroke: #000000"/>
     <use xlink:href="#m9a75031d5f" x="268.337998" y="295.869182" style="fill: #d62728; stroke: #000000"/>
     <use xlink:href="#m9a75031d5f" x="269.144074" y="284.253351" style="fill: #d62728; stroke: #000000"/>
     <use xlink:href="#m9a75031d5f" x="280.740647" y="273.627049" style="fill: #d62728; stroke: #000000"/>
     <use xlink:href="#m9a75031d5f" x="284.196558" y="278.5626" style="fill: #d62728; stroke: #000000"/>
     <use xlink:href="#m9a75031d5f" x="289.836173" y="268.375745" style="fill: #d62728; stroke: #000000"/>
     <use xlink:href="#m9a75031d5f" x="292.382531" y="273.836427" style="fill: #d62728; stroke: #000000"/>
     <use xlink:href="#m9a75031d5f" x="304.837108" y="263.645969" style="fill: #d62728; stroke: #000000"/>
    </g>
   </g>
   <g id="matplotlib.axis_7">
    <g id="xtick_13">
     <g id="line2d_19">
      <path d="M 315.29975 322.982562 
L 315.29975 253.692812 
" clip-path="url(#p7fb7750503)" style="fill: none; stroke: #b0b0b0; stroke-width: 0.8; stroke-linecap: square"/>
     </g>
     <g id="text_19">
      <!-- 0$^\degree$ -->
      <g transform="translate(308.08975 243.555937)">
       <text>
        <tspan style="font: 14px 'DejaVu Sans'" x="0" y="-0.3671875">0</tspan>
        <tspan style="font: 9.8px 'DejaVu Sans'" x="9.041211" y="-5.7265625">°</tspan>
       </text>
      </g>
     </g>
    </g>
    <g id="xtick_14">
     <g id="line2d_20">
      <path d="M 315.29975 322.982562 
L 384.5895 322.982562 
" clip-path="url(#p7fb7750503)" style="fill: none; stroke: #b0b0b0; stroke-width: 0.8; stroke-linecap: square"/>
     </g>
     <g id="text_20">
      <!-- 90$^\degree$ -->
      <g transform="translate(386.9695 326.845687)">
       <text>
        <tspan style="font: 14px 'DejaVu Sans'" x="0 8.907227" y="-0.3671875">90</tspan>
        <tspan style="font: 9.8px 'DejaVu Sans'" x="17.948438" y="-5.7265625">°</tspan>
       </text>
      </g>
     </g>
    </g>
    <g id="xtick_15">
     <g id="line2d_21">
      <path d="M 315.29975 322.982562 
L 315.29975 392.272312 
" clip-path="url(#p7fb7750503)" style="fill: none; stroke: #b0b0b0; stroke-width: 0.8; stroke-linecap: square"/>
     </g>
     <g id="text_21">
      <!-- 180$^\degree$ -->
      <g transform="translate(299.19975 410.135437)">
       <text>
        <tspan style="font: 14px 'DejaVu Sans'" x="0 8.907227 17.814453" y="-0.3671875">180</tspan>
        <tspan style="font: 9.8px 'DejaVu Sans'" x="26.855664" y="-5.7265625">°</tspan>
       </text>
      </g>
     </g>
    </g>
    <g id="xtick_16">
     <g id="line2d_22">
      <path d="M 315.29975 322.982562 
L 246.01 322.982562 
" clip-path="url(#p7fb7750503)" style="fill: none; stroke: #b0b0b0; stroke-width: 0.8; stroke-linecap: square"/>
     </g>
     <g id="text_22">
      <!-- -90$^\degree$ -->
      <g transform="translate(217.8 326.845687)">
       <text>
        <tspan style="font: 14px 'DejaVu Sans'" x="0 5.051758 13.958984" y="-0.3671875">-90</tspan>
        <tspan style="font: 9.8px 'DejaVu Sans'" x="23.000195" y="-5.7265625">°</tspan>
       </text>
      </g>
     </g>
    </g>
   </g>
   <g id="matplotlib.axis_8"/>
   <g id="line2d_23">
    <path d="M 315.29975 322.982562 
L 315.554038 322.363271 
L 315.808326 321.743979 
L 316.062614 321.124687 
L 316.316902 320.505395 
L 316.571191 319.886103 
L 316.825479 319.266811 
L 317.079767 318.647519 
L 317.334055 318.028227 
L 317.588343 317.408935 
L 317.842631 316.789643 
L 318.096919 316.170351 
L 318.351207 315.551059 
L 318.605495 314.931767 
L 318.859784 314.312475 
L 319.114072 313.693183 
L 319.36836 313.073891 
L 319.622648 312.454599 
L 319.876936 311.835307 
L 320.131224 311.216015 
L 320.385512 310.596723 
L 320.6398 309.977431 
L 320.894088 309.358139 
L 321.148376 308.738847 
L 321.402665 308.119556 
L 321.656953 307.500264 
L 321.911241 306.880972 
L 322.165529 306.26168 
L 322.419817 305.642388 
L 322.674105 305.023096 
L 322.928393 304.403804 
L 323.182681 303.784512 
L 323.436969 303.16522 
L 323.691258 302.545928 
L 323.945546 301.926636 
L 324.199834 301.307344 
L 324.454122 300.688052 
L 324.70841 300.06876 
L 324.962698 299.449468 
L 325.216986 298.830176 
L 325.471274 298.210884 
L 325.725562 297.591592 
L 325.979851 296.9723 
L 326.234139 296.353008 
L 326.488427 295.733716 
L 326.742715 295.114424 
L 326.997003 294.495132 
L 327.251291 293.87584 
L 327.505579 293.256549 
L 327.759867 292.637257 
L 328.014155 292.017965 
L 328.268443 291.398673 
L 328.522732 290.779381 
L 328.77702 290.160089 
L 329.031308 289.540797 
L 329.285596 288.921505 
L 329.539884 288.302213 
L 329.794172 287.682921 
L 330.04846 287.063629 
L 330.302748 286.444337 
L 330.557036 285.825045 
L 330.811325 285.205753 
L 331.065613 284.586461 
L 331.319901 283.967169 
L 331.574189 283.347877 
L 331.828477 282.728585 
L 332.082765 282.109293 
L 332.337053 281.490001 
L 332.591341 280.870709 
L 332.845629 280.251417 
L 333.099918 279.632125 
L 333.354206 279.012833 
L 333.608494 278.393542 
L 333.862782 277.77425 
L 334.11707 277.154958 
L 334.371358 276.535666 
L 334.625646 275.916374 
L 334.879934 275.297082 
L 335.134222 274.67779 
L 335.38851 274.058498 
L 335.642799 273.439206 
L 335.897087 272.819914 
L 336.151375 272.200622 
L 336.405663 271.58133 
L 336.659951 270.962038 
L 336.914239 270.342746 
L 337.168527 269.723454 
L 337.422815 269.104162 
L 337.677103 268.48487 
L 337.931392 267.865578 
L 338.18568 267.246286 
L 338.439968 266.626994 
L 338.694256 266.007702 
L 338.948544 265.38841 
L 339.202832 264.769118 
L 339.45712 264.149826 
L 339.711408 263.530535 
L 339.965696 262.911243 
L 340.219985 262.291951 
L 340.474273 261.672659 
" clip-path="url(#p7fb7750503)" style="fill: none; stroke: #000000; stroke-width: 1.5; stroke-linecap: square"/>
   </g>
   <g id="line2d_24">
    <path d="M 315.348371 256.705428 
L 315.869057 256.707855 
L 316.389708 256.714373 
L 316.910291 256.724981 
L 317.430775 256.739679 
L 317.951128 256.758465 
L 318.471317 256.781338 
L 318.99131 256.808298 
L 319.511075 256.839342 
L 320.030581 256.874468 
L 320.549794 256.913675 
L 321.068683 256.956959 
L 321.587217 257.004319 
L 322.105362 257.05575 
L 322.623087 257.111251 
L 323.14036 257.170818 
L 323.657149 257.234446 
L 324.173423 257.302133 
L 324.689148 257.373873 
L 325.204294 257.449663 
L 325.718829 257.529498 
L 326.232721 257.613372 
L 326.745938 257.701281 
L 327.258448 257.79322 
L 327.770221 257.889181 
L 328.281224 257.989161 
L 328.791425 258.093152 
L 329.300794 258.201148 
L 329.809298 258.313142 
L 330.316907 258.429128 
L 330.82359 258.549098 
L 331.329314 258.673045 
L 331.834048 258.800962 
L 332.337762 258.932839 
L 332.840425 259.06867 
L 333.342005 259.208446 
L 333.842471 259.352158 
L 334.341793 259.499797 
L 334.83994 259.651355 
L 335.33688 259.806821 
L 335.832584 259.966187 
L 336.327021 260.129442 
L 336.820159 260.296576 
L 337.31197 260.46758 
L 337.802421 260.642442 
L 338.291484 260.821151 
L 338.779128 261.003698 
L 339.265323 261.190069 
L 339.750038 261.380255 
L 340.233245 261.574243 
L 340.714912 261.772021 
L 341.195011 261.973577 
L 341.673511 262.178898 
L 342.150384 262.387972 
L 342.6256 262.600787 
L 343.099128 262.817328 
L 343.570942 263.037582 
L 344.04101 263.261537 
L 344.509304 263.489177 
L 344.975795 263.72049 
L 345.440455 263.95546 
L 345.903254 264.194074 
L 346.364165 264.436316 
L 346.823158 264.682171 
L 347.280206 264.931625 
L 347.735279 265.184662 
L 348.188351 265.441266 
L 348.639393 265.701421 
L 349.088377 265.965113 
L 349.535275 266.232323 
L 349.980061 266.503036 
L 350.422706 266.777235 
L 350.863183 267.054903 
L 351.301465 267.336023 
L 351.737525 267.620577 
L 352.171337 267.908549 
L 352.602872 268.199919 
L 353.032105 268.494671 
L 353.459009 268.792786 
L 353.883558 269.094246 
L 354.305725 269.399032 
L 354.725485 269.707125 
L 355.142812 270.018506 
L 355.557679 270.333156 
L 355.970062 270.651055 
L 356.379934 270.972185 
L 356.787271 271.296525 
L 357.192048 271.624055 
L 357.594238 271.954755 
L 357.993818 272.288604 
L 358.390763 272.625582 
L 358.785049 272.965668 
L 359.17665 273.308842 
L 359.565544 273.655081 
L 359.951705 274.004365 
L 360.33511 274.356672 
L 360.715736 274.71198 
L 361.093558 275.070267 
L 361.468554 275.431512 
L 361.840701 275.795691 
" clip-path="url(#p7fb7750503)" style="fill: none; stroke: #000000; stroke-width: 1.5; stroke-linecap: square"/>
   </g>
   <g id="patch_12">
    <path d="M 315.29975 253.692812 
C 306.200703 253.692812 297.190134 255.485126 288.783711 258.967181 
C 280.377288 262.449235 272.738495 267.553313 266.304498 273.98731 
C 259.8705 280.421308 254.766423 288.0601 251.284368 296.466523 
C 247.802314 304.872946 246.01 313.883516 246.01 322.982562 
C 246.01 332.081609 247.802314 341.092179 251.284368 349.498602 
C 254.766423 357.905025 259.8705 365.543817 266.304498 371.977815 
C 272.738495 378.411812 280.377288 383.51589 288.783711 386.997944 
C 297.190134 390.479999 306.200703 392.272312 315.29975 392.272312 
C 324.398797 392.272312 333.409366 390.479999 341.815789 386.997944 
C 350.222212 383.51589 357.861005 378.411812 364.295002 371.977815 
C 370.729 365.543817 375.833077 357.905025 379.315132 349.498602 
C 382.797186 341.092179 384.5895 332.081609 384.5895 322.982562 
C 384.5895 313.883516 382.797186 304.872946 379.315132 296.466523 
C 375.833077 288.0601 370.729 280.421308 364.295002 273.98731 
C 357.861005 267.553313 350.222212 262.449235 341.815789 258.967181 
C 333.409366 255.485126 324.398797 253.692812 315.29975 253.692812 
" style="fill: none; stroke: #000000; stroke-width: 0.8; stroke-linejoin: miter; stroke-linecap: square"/>
   </g>
   <g id="text_23">
    <g id="patch_13">
     <path d="M 284.49975 346.889437 
L 346.09975 346.889437 
L 346.09975 299.075687 
L 284.49975 299.075687 
z
" style="fill: #ffffff; stroke: #000000; stroke-linejoin: miter"/>
    </g>
    <!-- $\mu$ = 22.32$^\degree$ -->
    <g transform="translate(288.49975 309.675687)">
     <text>
      <tspan style="font: oblique 10px 'DejaVu Sans'" x="0" y="-0.9765625">μ</tspan>
      <tspan style="font: 10px 'DejaVu Sans'" x="6.362305 9.541016 17.919922 21.098633 27.460938 33.823242 37.001953 43.364258" y="-0.9765625"> = 22.32</tspan>
      <tspan style="font: 7px 'DejaVu Sans'" x="49.822266" y="-4.8046875">°</tspan>
     </text>
    </g>
    <!-- $s0$ = 87.87$^\degree$ -->
    <g transform="translate(285.99975 320.893812)">
     <text>
      <tspan style="font: oblique 10px 'DejaVu Sans'" x="0" y="-0.9765625">s</tspan>
      <tspan style="font: 10px 'DejaVu Sans'" x="5.209961 11.572266 14.750977 23.129883 26.308594 32.670898 39.033203 41.961914 48.324219" y="-0.9765625">0 = 87.87</tspan>
      <tspan style="font: 7px 'DejaVu Sans'" x="54.782227" y="-4.8046875">°</tspan>
     </text>
    </g>
    <!-- $V = 0.29$ -->
    <g transform="translate(294.94975 332.091625)">
     <text>
      <tspan style="font: oblique 10px 'DejaVu Sans'" x="0" y="-0.578125">V</tspan>
      <tspan style="font: 10px 'DejaVu Sans'" x="8.789062 19.116211 25.478516 28.157227 34.394531" y="-0.578125">=0.29</tspan>
     </text>
    </g>
    <!-- $p$ &lt; 0.01 -->
    <g transform="translate(293.59975 343.289437)">
     <text>
      <tspan style="font: oblique 10px 'DejaVu Sans'" x="0" y="-0.578125">p</tspan>
      <tspan style="font: 10px 'DejaVu Sans'" x="6.347656 9.526367 17.905273 21.083984 27.446289 30.625 36.987305" y="-0.578125"> &lt; 0.01</tspan>
     </text>
    </g>
   </g>
   <g id="text_24">
    <text style="font: 12px 'DejaVu Sans', 'Bitstream Vera Sans', 'Computer Modern Sans Serif', 'Lucida Grande', 'Verdana', 'Geneva', 'Lucid', 'Arial', 'Helvetica', 'Avant Garde', sans-serif; text-anchor: middle" x="315.29975" y="226.918125" transform="rotate(-0 315.29975 226.918125)">D) Dacke et al. (2019)</text>
   </g>
  </g>
 </g>
 <defs>
  <clipPath id="p66963c64bc">
   <path d="M 173.9895 112.382562 
C 173.9895 103.283516 172.197186 94.272946 168.715132 85.866523 
C 165.233077 77.4601 160.129 69.821308 153.695002 63.38731 
C 147.261005 56.953313 139.622212 51.849235 131.215789 48.367181 
C 122.809366 44.885126 113.798797 43.092813 104.69975 43.092813 
C 95.600703 43.092813 86.590134 44.885126 78.183711 48.367181 
C 69.777288 51.849235 62.138495 56.953313 55.704498 63.38731 
C 49.2705 69.821308 44.166423 77.4601 40.684368 85.866523 
C 37.202314 94.272946 35.41 103.283516 35.41 112.382562 
C 35.41 121.481609 37.202314 130.492179 40.684368 138.898602 
C 44.166423 147.305025 49.2705 154.943817 55.704498 161.377815 
C 62.138495 167.811812 69.777288 172.91589 78.183711 176.397944 
C 86.590134 179.879999 95.600703 181.672312 104.69975 181.672312 
C 113.798797 181.672312 122.809366 179.879999 131.215789 176.397944 
C 139.622212 172.91589 147.261005 167.811812 153.695002 161.377815 
C 160.129 154.943817 165.233077 147.305025 168.715132 138.898602 
C 172.197186 130.492179 173.9895 121.481609 173.9895 112.382563 
M 104.69975 112.382562 
C 104.69975 112.382562 104.69975 112.382562 104.69975 112.382562 
C 104.69975 112.382562 104.69975 112.382562 104.69975 112.382562 
C 104.69975 112.382562 104.69975 112.382562 104.69975 112.382562 
C 104.69975 112.382562 104.69975 112.382562 104.69975 112.382562 
C 104.69975 112.382562 104.69975 112.382562 104.69975 112.382562 
C 104.69975 112.382562 104.69975 112.382562 104.69975 112.382562 
C 104.69975 112.382562 104.69975 112.382562 104.69975 112.382562 
C 104.69975 112.382562 104.69975 112.382562 104.69975 112.382562 
C 104.69975 112.382562 104.69975 112.382562 104.69975 112.382562 
C 104.69975 112.382562 104.69975 112.382562 104.69975 112.382562 
C 104.69975 112.382562 104.69975 112.382562 104.69975 112.382562 
C 104.69975 112.382562 104.69975 112.382562 104.69975 112.382562 
C 104.69975 112.382562 104.69975 112.382562 104.69975 112.382562 
C 104.69975 112.382562 104.69975 112.382562 104.69975 112.382562 
C 104.69975 112.382562 104.69975 112.382562 104.69975 112.382562 
C 104.69975 112.382562 104.69975 112.382562 104.69975 112.382562 
z
"/>
  </clipPath>
  <clipPath id="p762a845e3f">
   <path d="M 384.5895 112.382562 
C 384.5895 103.283516 382.797186 94.272946 379.315132 85.866523 
C 375.833077 77.4601 370.729 69.821308 364.295002 63.38731 
C 357.861005 56.953313 350.222212 51.849235 341.815789 48.367181 
C 333.409366 44.885126 324.398797 43.092813 315.29975 43.092813 
C 306.200703 43.092813 297.190134 44.885126 288.783711 48.367181 
C 280.377288 51.849235 272.738495 56.953313 266.304498 63.38731 
C 259.8705 69.821308 254.766423 77.4601 251.284368 85.866523 
C 247.802314 94.272946 246.01 103.283516 246.01 112.382562 
C 246.01 121.481609 247.802314 130.492179 251.284368 138.898602 
C 254.766423 147.305025 259.8705 154.943817 266.304498 161.377815 
C 272.738495 167.811812 280.377288 172.91589 288.783711 176.397944 
C 297.190134 179.879999 306.200703 181.672312 315.29975 181.672312 
C 324.398797 181.672312 333.409366 179.879999 341.815789 176.397944 
C 350.222212 172.91589 357.861005 167.811812 364.295002 161.377815 
C 370.729 154.943817 375.833077 147.305025 379.315132 138.898602 
C 382.797186 130.492179 384.5895 121.481609 384.5895 112.382563 
M 315.29975 112.382562 
C 315.29975 112.382562 315.29975 112.382562 315.29975 112.382562 
C 315.29975 112.382562 315.29975 112.382562 315.29975 112.382562 
C 315.29975 112.382562 315.29975 112.382562 315.29975 112.382562 
C 315.29975 112.382562 315.29975 112.382562 315.29975 112.382562 
C 315.29975 112.382562 315.29975 112.382562 315.29975 112.382562 
C 315.29975 112.382562 315.29975 112.382562 315.29975 112.382562 
C 315.29975 112.382562 315.29975 112.382562 315.29975 112.382562 
C 315.29975 112.382562 315.29975 112.382562 315.29975 112.382562 
C 315.29975 112.382562 315.29975 112.382562 315.29975 112.382562 
C 315.29975 112.382562 315.29975 112.382562 315.29975 112.382562 
C 315.29975 112.382562 315.29975 112.382562 315.29975 112.382562 
C 315.29975 112.382562 315.29975 112.382562 315.29975 112.382562 
C 315.29975 112.382562 315.29975 112.382562 315.29975 112.382562 
C 315.29975 112.382562 315.29975 112.382562 315.29975 112.382562 
C 315.29975 112.382562 315.29975 112.382562 315.29975 112.382562 
C 315.29975 112.382562 315.29975 112.382562 315.29975 112.382562 
z
"/>
  </clipPath>
  <clipPath id="p1b81a6479d">
   <path d="M 173.9895 322.982562 
C 173.9895 313.883516 172.197186 304.872946 168.715132 296.466523 
C 165.233077 288.0601 160.129 280.421308 153.695002 273.98731 
C 147.261005 267.553313 139.622212 262.449235 131.215789 258.967181 
C 122.809366 255.485126 113.798797 253.692812 104.69975 253.692812 
C 95.600703 253.692812 86.590134 255.485126 78.183711 258.967181 
C 69.777288 262.449235 62.138495 267.553313 55.704498 273.98731 
C 49.2705 280.421308 44.166423 288.0601 40.684368 296.466523 
C 37.202314 304.872946 35.41 313.883516 35.41 322.982562 
C 35.41 332.081609 37.202314 341.092179 40.684368 349.498602 
C 44.166423 357.905025 49.2705 365.543817 55.704498 371.977815 
C 62.138495 378.411812 69.777288 383.51589 78.183711 386.997944 
C 86.590134 390.479999 95.600703 392.272312 104.69975 392.272312 
C 113.798797 392.272312 122.809366 390.479999 131.215789 386.997944 
C 139.622212 383.51589 147.261005 378.411812 153.695002 371.977815 
C 160.129 365.543817 165.233077 357.905025 168.715132 349.498602 
C 172.197186 341.092179 173.9895 332.081609 173.9895 322.982562 
M 104.69975 322.982562 
C 104.69975 322.982562 104.69975 322.982562 104.69975 322.982562 
C 104.69975 322.982562 104.69975 322.982562 104.69975 322.982562 
C 104.69975 322.982562 104.69975 322.982562 104.69975 322.982562 
C 104.69975 322.982562 104.69975 322.982562 104.69975 322.982562 
C 104.69975 322.982562 104.69975 322.982562 104.69975 322.982562 
C 104.69975 322.982562 104.69975 322.982562 104.69975 322.982562 
C 104.69975 322.982562 104.69975 322.982562 104.69975 322.982562 
C 104.69975 322.982562 104.69975 322.982562 104.69975 322.982562 
C 104.69975 322.982562 104.69975 322.982562 104.69975 322.982562 
C 104.69975 322.982562 104.69975 322.982562 104.69975 322.982562 
C 104.69975 322.982562 104.69975 322.982562 104.69975 322.982562 
C 104.69975 322.982562 104.69975 322.982562 104.69975 322.982562 
C 104.69975 322.982562 104.69975 322.982562 104.69975 322.982562 
C 104.69975 322.982562 104.69975 322.982562 104.69975 322.982562 
C 104.69975 322.982562 104.69975 322.982562 104.69975 322.982562 
C 104.69975 322.982562 104.69975 322.982562 104.69975 322.982562 
z
"/>
  </clipPath>
  <clipPath id="p7fb7750503">
   <path d="M 384.5895 322.982562 
C 384.5895 313.883516 382.797186 304.872946 379.315132 296.466523 
C 375.833077 288.0601 370.729 280.421308 364.295002 273.98731 
C 357.861005 267.553313 350.222212 262.449235 341.815789 258.967181 
C 333.409366 255.485126 324.398797 253.692812 315.29975 253.692812 
C 306.200703 253.692812 297.190134 255.485126 288.783711 258.967181 
C 280.377288 262.449235 272.738495 267.553313 266.304498 273.98731 
C 259.8705 280.421308 254.766423 288.0601 251.284368 296.466523 
C 247.802314 304.872946 246.01 313.883516 246.01 322.982562 
C 246.01 332.081609 247.802314 341.092179 251.284368 349.498602 
C 254.766423 357.905025 259.8705 365.543817 266.304498 371.977815 
C 272.738495 378.411812 280.377288 383.51589 288.783711 386.997944 
C 297.190134 390.479999 306.200703 392.272312 315.29975 392.272312 
C 324.398797 392.272312 333.409366 390.479999 341.815789 386.997944 
C 350.222212 383.51589 357.861005 378.411812 364.295002 371.977815 
C 370.729 365.543817 375.833077 357.905025 379.315132 349.498602 
C 382.797186 341.092179 384.5895 332.081609 384.5895 322.982562 
M 315.29975 322.982562 
C 315.29975 322.982562 315.29975 322.982562 315.29975 322.982562 
C 315.29975 322.982562 315.29975 322.982562 315.29975 322.982562 
C 315.29975 322.982562 315.29975 322.982562 315.29975 322.982562 
C 315.29975 322.982562 315.29975 322.982562 315.29975 322.982562 
C 315.29975 322.982562 315.29975 322.982562 315.29975 322.982562 
C 315.29975 322.982562 315.29975 322.982562 315.29975 322.982562 
C 315.29975 322.982562 315.29975 322.982562 315.29975 322.982562 
C 315.29975 322.982562 315.29975 322.982562 315.29975 322.982562 
C 315.29975 322.982562 315.29975 322.982562 315.29975 322.982562 
C 315.29975 322.982562 315.29975 322.982562 315.29975 322.982562 
C 315.29975 322.982562 315.29975 322.982562 315.29975 322.982562 
C 315.29975 322.982562 315.29975 322.982562 315.29975 322.982562 
C 315.29975 322.982562 315.29975 322.982562 315.29975 322.982562 
C 315.29975 322.982562 315.29975 322.982562 315.29975 322.982562 
C 315.29975 322.982562 315.29975 322.982562 315.29975 322.982562 
C 315.29975 322.982562 315.29975 322.982562 315.29975 322.982562 
z
"/>
  </clipPath>
 </defs>
</svg>
