<?xml version="1.0" encoding="utf-8" standalone="no"?>
<!DOCTYPE svg PUBLIC "-//W3C//DTD SVG 1.1//EN"
  "http://www.w3.org/Graphics/SVG/1.1/DTD/svg11.dtd">
<svg xmlns:xlink="http://www.w3.org/1999/xlink" width="417.4095pt" height="420.247pt" viewBox="0 0 417.4095 420.247" xmlns="http://www.w3.org/2000/svg" version="1.1">
 <metadata>
  <rdf:RDF xmlns:dc="http://purl.org/dc/elements/1.1/" xmlns:cc="http://creativecommons.org/ns#" xmlns:rdf="http://www.w3.org/1999/02/22-rdf-syntax-ns#">
   <cc:Work>
    <dc:type rdf:resource="http://purl.org/dc/dcmitype/StillImage"/>
    <dc:date>2025-03-10T14:44:42.459591</dc:date>
    <dc:format>image/svg+xml</dc:format>
    <dc:creator>
     <cc:Agent>
      <dc:title>Matplotlib v3.7.5, https://matplotlib.org/</dc:title>
     </cc:Agent>
    </dc:creator>
   </cc:Work>
  </rdf:RDF>
 </metadata>
 <defs>
  <style type="text/css">*{stroke-linejoin: round; stroke-linecap: butt}</style>
 </defs>
 <g id="figure_1">
  <g id="patch_1">
   <path d="M 0 420.247 
L 417.4095 420.247 
L 417.4095 0 
L 0 0 
z
" style="fill: #ffffff"/>
  </g>
  <g id="axes_1">
   <g id="patch_2">
    <path d="M 173.9895 112.382562 
C 173.9895 103.283516 172.197186 94.272946 168.715132 85.866523 
C 165.233077 77.4601 160.129 69.821308 153.695002 63.38731 
C 147.261005 56.953313 139.622212 51.849235 131.215789 48.367181 
C 122.809366 44.885126 113.798797 43.092813 104.69975 43.092813 
C 95.600703 43.092813 86.590134 44.885126 78.183711 48.367181 
C 69.777288 51.849235 62.138495 56.953313 55.704498 63.38731 
C 49.2705 69.821308 44.166423 77.4601 40.684368 85.866523 
C 37.202314 94.272946 35.41 103.283516 35.41 112.382562 
C 35.41 121.481609 37.202314 130.492179 40.684368 138.898602 
C 44.166423 147.305025 49.2705 154.943817 55.704498 161.377815 
C 62.138495 167.811812 69.777288 172.91589 78.183711 176.397944 
C 86.590134 179.879999 95.600703 181.672312 104.69975 181.672312 
C 113.798797 181.672312 122.809366 179.879999 131.215789 176.397944 
C 139.622212 172.91589 147.261005 167.811812 153.695002 161.377815 
C 160.129 154.943817 165.233077 147.305025 168.715132 138.898602 
C 172.197186 130.492179 173.9895 121.481609 173.9895 112.382563 
M 104.69975 112.382562 
C 104.69975 112.382562 104.69975 112.382562 104.69975 112.382562 
C 104.69975 112.382562 104.69975 112.382562 104.69975 112.382562 
C 104.69975 112.382562 104.69975 112.382562 104.69975 112.382562 
C 104.69975 112.382562 104.69975 112.382562 104.69975 112.382562 
C 104.69975 112.382562 104.69975 112.382562 104.69975 112.382562 
C 104.69975 112.382562 104.69975 112.382562 104.69975 112.382562 
C 104.69975 112.382562 104.69975 112.382562 104.69975 112.382562 
C 104.69975 112.382562 104.69975 112.382562 104.69975 112.382562 
C 104.69975 112.382562 104.69975 112.382562 104.69975 112.382562 
C 104.69975 112.382562 104.69975 112.382562 104.69975 112.382562 
C 104.69975 112.382562 104.69975 112.382562 104.69975 112.382562 
C 104.69975 112.382562 104.69975 112.382562 104.69975 112.382562 
C 104.69975 112.382562 104.69975 112.382562 104.69975 112.382562 
C 104.69975 112.382562 104.69975 112.382562 104.69975 112.382562 
C 104.69975 112.382562 104.69975 112.382562 104.69975 112.382562 
C 104.69975 112.382562 104.69975 112.382562 104.69975 112.382562 
z
" style="fill: #ffffff"/>
   </g>
   <g id="PathCollection_1">
    <defs>
     <path id="m6512616957" d="M 0 2.738613 
C 0.726289 2.738613 1.422928 2.450055 1.936492 1.936492 
C 2.450055 1.422928 2.738613 0.726289 2.738613 0 
C 2.738613 -0.726289 2.450055 -1.422928 1.936492 -1.936492 
C 1.422928 -2.450055 0.726289 -2.738613 0 -2.738613 
C -0.726289 -2.738613 -1.422928 -2.450055 -1.936492 -1.936492 
C -2.450055 -1.422928 -2.738613 -0.726289 -2.738613 0 
C -2.738613 0.726289 -2.450055 1.422928 -1.936492 1.936492 
C -1.422928 2.450055 -0.726289 2.738613 0 2.738613 
z
" style="stroke: #000000"/>
    </defs>
    <g clip-path="url(#p53a50b1e65)">
     <use xlink:href="#m6512616957" x="50.104754" y="86.89365" style="fill: #1f77b4; stroke: #000000"/>
     <use xlink:href="#m6512616957" x="52.525977" y="82.246277" style="fill: #1f77b4; stroke: #000000"/>
     <use xlink:href="#m6512616957" x="55.376436" y="77.777521" style="fill: #1f77b4; stroke: #000000"/>
     <use xlink:href="#m6512616957" x="62.11215" y="69.761035" style="fill: #1f77b4; stroke: #000000"/>
     <use xlink:href="#m6512616957" x="70.183365" y="62.997166" style="fill: #1f77b4; stroke: #000000"/>
     <use xlink:href="#m6512616957" x="73.635003" y="67.935705" style="fill: #1f77b4; stroke: #000000"/>
     <use xlink:href="#m6512616957" x="74.605021" y="60.184808" style="fill: #1f77b4; stroke: #000000"/>
     <use xlink:href="#m6512616957" x="77.614494" y="65.404584" style="fill: #1f77b4; stroke: #000000"/>
     <use xlink:href="#m6512616957" x="80.623967" y="70.624359" style="fill: #1f77b4; stroke: #000000"/>
     <use xlink:href="#m6512616957" x="79.254321" y="57.767286" style="fill: #1f77b4; stroke: #000000"/>
     <use xlink:href="#m6512616957" x="99.46444" y="52.358486" style="fill: #1f77b4; stroke: #000000"/>
     <use xlink:href="#m6512616957" x="109.93506" y="52.358486" style="fill: #1f77b4; stroke: #000000"/>
     <use xlink:href="#m6512616957" x="109.411529" y="58.360893" style="fill: #1f77b4; stroke: #000000"/>
     <use xlink:href="#m6512616957" x="120.247575" y="54.171194" style="fill: #1f77b4; stroke: #000000"/>
     <use xlink:href="#m6512616957" x="125.303404" y="55.762887" style="fill: #1f77b4; stroke: #000000"/>
     <use xlink:href="#m6512616957" x="130.145179" y="57.767286" style="fill: #1f77b4; stroke: #000000"/>
     <use xlink:href="#m6512616957" x="127.600636" y="63.228814" style="fill: #1f77b4; stroke: #000000"/>
     <use xlink:href="#m6512616957" x="134.794479" y="60.184808" style="fill: #1f77b4; stroke: #000000"/>
     <use xlink:href="#m6512616957" x="131.785006" y="65.404584" style="fill: #1f77b4; stroke: #000000"/>
     <use xlink:href="#m6512616957" x="154.023064" y="77.777521" style="fill: #1f77b4; stroke: #000000"/>
    </g>
   </g>
   <g id="matplotlib.axis_1">
    <g id="xtick_1">
     <g id="line2d_1">
      <path d="M 104.69975 112.382563 
L 104.69975 43.092813 
" clip-path="url(#p53a50b1e65)" style="fill: none; stroke: #b0b0b0; stroke-width: 0.8; stroke-linecap: square"/>
     </g>
     <g id="text_1">
      <!-- 0$^\degree$ -->
      <g transform="translate(97.48975 32.955938)">
       <text>
        <tspan style="font: 14px 'DejaVu Sans'" x="0" y="-0.3671875">0</tspan>
        <tspan style="font: 9.8px 'DejaVu Sans'" x="9.041211" y="-5.7265625">°</tspan>
       </text>
      </g>
     </g>
    </g>
    <g id="xtick_2">
     <g id="line2d_2">
      <path d="M 104.69975 112.382563 
L 173.9895 112.382563 
" clip-path="url(#p53a50b1e65)" style="fill: none; stroke: #b0b0b0; stroke-width: 0.8; stroke-linecap: square"/>
     </g>
     <g id="text_2">
      <!-- 90$^\degree$ -->
      <g transform="translate(176.3695 116.245688)">
       <text>
        <tspan style="font: 14px 'DejaVu Sans'" x="0 8.907227" y="-0.3671875">90</tspan>
        <tspan style="font: 9.8px 'DejaVu Sans'" x="17.948438" y="-5.7265625">°</tspan>
       </text>
      </g>
     </g>
    </g>
    <g id="xtick_3">
     <g id="line2d_3">
      <path d="M 104.69975 112.382563 
L 104.69975 181.672312 
" clip-path="url(#p53a50b1e65)" style="fill: none; stroke: #b0b0b0; stroke-width: 0.8; stroke-linecap: square"/>
     </g>
     <g id="text_3">
      <!-- 180$^\degree$ -->
      <g transform="translate(88.59975 199.535437)">
       <text>
        <tspan style="font: 14px 'DejaVu Sans'" x="0 8.907227 17.814453" y="-0.3671875">180</tspan>
        <tspan style="font: 9.8px 'DejaVu Sans'" x="26.855664" y="-5.7265625">°</tspan>
       </text>
      </g>
     </g>
    </g>
    <g id="xtick_4">
     <g id="line2d_4">
      <path d="M 104.69975 112.382563 
L 35.41 112.382563 
" clip-path="url(#p53a50b1e65)" style="fill: none; stroke: #b0b0b0; stroke-width: 0.8; stroke-linecap: square"/>
     </g>
     <g id="text_4">
      <!-- -90$^\degree$ -->
      <g transform="translate(7.2 116.245688)">
       <text>
        <tspan style="font: 14px 'DejaVu Sans'" x="0 5.051758 13.958984" y="-0.3671875">-90</tspan>
        <tspan style="font: 9.8px 'DejaVu Sans'" x="23.000195" y="-5.7265625">°</tspan>
       </text>
      </g>
     </g>
    </g>
   </g>
   <g id="matplotlib.axis_2"/>
   <g id="line2d_5">
    <path d="M 104.69975 112.382563 
L 104.578451 111.724177 
L 104.457152 111.065791 
L 104.335852 110.407406 
L 104.214553 109.74902 
L 104.093254 109.090635 
L 103.971955 108.432249 
L 103.850656 107.773864 
L 103.729356 107.115478 
L 103.608057 106.457093 
L 103.486758 105.798707 
L 103.365459 105.140322 
L 103.24416 104.481936 
L 103.122861 103.823551 
L 103.001561 103.165165 
L 102.880262 102.50678 
L 102.758963 101.848394 
L 102.637664 101.190009 
L 102.516365 100.531623 
L 102.395065 99.873238 
L 102.273766 99.214852 
L 102.152467 98.556467 
L 102.031168 97.898081 
L 101.909869 97.239696 
L 101.788569 96.58131 
L 101.66727 95.922925 
L 101.545971 95.264539 
L 101.424672 94.606154 
L 101.303373 93.947768 
L 101.182074 93.289383 
L 101.060774 92.630997 
L 100.939475 91.972612 
L 100.818176 91.314226 
L 100.696877 90.655841 
L 100.575578 89.997455 
L 100.454278 89.33907 
L 100.332979 88.680684 
L 100.21168 88.022299 
L 100.090381 87.363913 
L 99.969082 86.705528 
L 99.847782 86.047142 
L 99.726483 85.388757 
L 99.605184 84.730371 
L 99.483885 84.071986 
L 99.362586 83.4136 
L 99.241286 82.755215 
L 99.119987 82.096829 
L 98.998688 81.438444 
L 98.877389 80.780058 
L 98.75609 80.121673 
L 98.634791 79.463287 
L 98.513491 78.804902 
L 98.392192 78.146516 
L 98.270893 77.488131 
L 98.149594 76.829745 
L 98.028295 76.17136 
L 97.906995 75.512974 
L 97.785696 74.854589 
L 97.664397 74.196203 
L 97.543098 73.537818 
L 97.421799 72.879432 
L 97.300499 72.221046 
L 97.1792 71.562661 
L 97.057901 70.904275 
L 96.936602 70.24589 
L 96.815303 69.587504 
L 96.694003 68.929119 
L 96.572704 68.270733 
L 96.451405 67.612348 
L 96.330106 66.953962 
L 96.208807 66.295577 
L 96.087508 65.637191 
L 95.966208 64.978806 
L 95.844909 64.32042 
L 95.72361 63.662035 
L 95.602311 63.003649 
L 95.481012 62.345264 
L 95.359712 61.686878 
L 95.238413 61.028493 
L 95.117114 60.370107 
L 94.995815 59.711722 
L 94.874516 59.053336 
L 94.753216 58.394951 
L 94.631917 57.736565 
L 94.510618 57.07818 
L 94.389319 56.419794 
L 94.26802 55.761409 
L 94.146721 55.103023 
L 94.025421 54.444638 
L 93.904122 53.786252 
L 93.782823 53.127867 
L 93.661524 52.469481 
L 93.540225 51.811096 
L 93.418925 51.15271 
L 93.297626 50.494325 
L 93.176327 49.835939 
L 93.055028 49.177554 
L 92.933729 48.519168 
L 92.812429 47.860783 
L 92.69113 47.202397 
" clip-path="url(#p53a50b1e65)" style="fill: none; stroke: #000000; stroke-width: 1.5; stroke-linecap: square"/>
   </g>
   <g id="line2d_6">
    <path d="M 82.652559 49.879905 
L 82.850808 49.810327 
L 83.049277 49.741379 
L 83.247964 49.673059 
L 83.446866 49.60537 
L 83.645982 49.538312 
L 83.84531 49.471886 
L 84.044847 49.406092 
L 84.244591 49.34093 
L 84.444542 49.276402 
L 84.644695 49.212509 
L 84.845051 49.14925 
L 85.045605 49.086627 
L 85.246358 49.024639 
L 85.447306 48.963289 
L 85.648447 48.902575 
L 85.84978 48.8425 
L 86.051302 48.783063 
L 86.253011 48.724266 
L 86.454906 48.666108 
L 86.656985 48.60859 
L 86.859244 48.551714 
L 87.061683 48.495478 
L 87.2643 48.439885 
L 87.467091 48.384935 
L 87.670056 48.330627 
L 87.873191 48.276964 
L 88.076496 48.223944 
L 88.279968 48.171569 
L 88.483605 48.11984 
L 88.687405 48.068756 
L 88.891365 48.018319 
L 89.095485 47.968528 
L 89.299762 47.919385 
L 89.504193 47.87089 
L 89.708777 47.823043 
L 89.913511 47.775844 
L 90.118394 47.729295 
L 90.323424 47.683396 
L 90.528598 47.638147 
L 90.733915 47.593548 
L 90.939372 47.549601 
L 91.144967 47.506305 
L 91.350698 47.463661 
L 91.556564 47.42167 
L 91.762562 47.380331 
L 91.968689 47.339646 
L 92.174945 47.299614 
L 92.381327 47.260237 
L 92.587832 47.221513 
L 92.794459 47.183445 
L 93.001205 47.146032 
L 93.20807 47.109274 
L 93.415049 47.073172 
L 93.622142 47.037727 
L 93.829347 47.002938 
L 94.036661 46.968807 
L 94.244081 46.935333 
L 94.451607 46.902516 
L 94.659236 46.870358 
L 94.866966 46.838858 
L 95.074795 46.808016 
L 95.28272 46.777834 
L 95.49074 46.748311 
L 95.698852 46.719447 
L 95.907055 46.691243 
L 96.115347 46.6637 
L 96.323724 46.636817 
L 96.532186 46.610594 
L 96.74073 46.585033 
L 96.949354 46.560133 
L 97.158055 46.535894 
L 97.366833 46.512317 
L 97.575684 46.489402 
L 97.784607 46.467149 
L 97.993599 46.445559 
L 98.202659 46.424631 
L 98.411784 46.404366 
L 98.620972 46.384764 
L 98.830221 46.365826 
L 99.03953 46.347551 
L 99.248895 46.329939 
L 99.458315 46.312991 
L 99.667787 46.296707 
L 99.87731 46.281088 
L 100.086882 46.266132 
L 100.2965 46.251841 
L 100.506162 46.238215 
L 100.715866 46.225253 
L 100.925611 46.212956 
L 101.135393 46.201325 
L 101.345211 46.190358 
L 101.555063 46.180056 
L 101.764947 46.17042 
L 101.974859 46.161449 
L 102.1848 46.153144 
L 102.394765 46.145504 
L 102.604754 46.13853 
L 102.814764 46.132221 
L 103.024793 46.126578 
" clip-path="url(#p53a50b1e65)" style="fill: none; stroke: #000000; stroke-width: 1.5; stroke-linecap: square"/>
   </g>
   <g id="patch_3">
    <path d="M 104.69975 43.092813 
C 95.600703 43.092813 86.590134 44.885126 78.183711 48.367181 
C 69.777288 51.849235 62.138495 56.953313 55.704498 63.38731 
C 49.2705 69.821308 44.166423 77.4601 40.684368 85.866523 
C 37.202314 94.272946 35.41 103.283516 35.41 112.382563 
C 35.41 121.481609 37.202314 130.492179 40.684368 138.898602 
C 44.166423 147.305025 49.2705 154.943817 55.704498 161.377815 
C 62.138495 167.811812 69.777288 172.91589 78.183711 176.397944 
C 86.590134 179.879999 95.600703 181.672312 104.69975 181.672312 
C 113.798797 181.672312 122.809366 179.879999 131.215789 176.397944 
C 139.622212 172.91589 147.261005 167.811812 153.695002 161.377815 
C 160.129 154.943817 165.233077 147.305025 168.715132 138.898602 
C 172.197186 130.492179 173.9895 121.481609 173.9895 112.382563 
C 173.9895 103.283516 172.197186 94.272946 168.715132 85.866523 
C 165.233077 77.4601 160.129 69.821308 153.695002 63.38731 
C 147.261005 56.953313 139.622212 51.849235 131.215789 48.367181 
C 122.809366 44.885126 113.798797 43.092813 104.69975 43.092813 
" style="fill: none; stroke: #000000; stroke-width: 0.8; stroke-linejoin: miter; stroke-linecap: square"/>
   </g>
   <g id="text_5">
    <g id="patch_4">
     <path d="M 74.14975 136.289438 
L 135.24975 136.289438 
L 135.24975 88.475688 
L 74.14975 88.475688 
z
" style="fill: #ffffff; stroke: #000000; stroke-linejoin: miter"/>
    </g>
    <!-- $\mu$ = -10.44$^\degree$ -->
    <g transform="translate(76.04975 99.075688)">
     <text>
      <tspan style="font: oblique 10px 'DejaVu Sans'" x="0" y="-0.9765625">μ</tspan>
      <tspan style="font: 10px 'DejaVu Sans'" x="6.362305 9.541016 17.919922 21.098633 24.707031 31.069336 37.431641 40.610352 46.972656" y="-0.9765625"> = -10.44</tspan>
      <tspan style="font: 7px 'DejaVu Sans'" x="53.430664" y="-4.8046875">°</tspan>
     </text>
    </g>
    <!-- $s0$ = 34.75$^\degree$ -->
    <g transform="translate(75.64975 110.293813)">
     <text>
      <tspan style="font: oblique 10px 'DejaVu Sans'" x="0" y="-0.9765625">s</tspan>
      <tspan style="font: 10px 'DejaVu Sans'" x="5.209961 11.572266 14.750977 23.129883 26.308594 32.670898 39.033203 41.461914 47.824219" y="-0.9765625">0 = 34.75</tspan>
      <tspan style="font: 7px 'DejaVu Sans'" x="54.282227" y="-4.8046875">°</tspan>
     </text>
    </g>
    <!-- $V = 0.82$ -->
    <g transform="translate(84.09975 121.491625)">
     <text>
      <tspan style="font: oblique 10px 'DejaVu Sans'" x="0" y="-0.578125">V</tspan>
      <tspan style="font: 10px 'DejaVu Sans'" x="8.789062 19.116211 25.478516 28.407227 34.769531" y="-0.578125">=0.82</tspan>
     </text>
    </g>
    <!-- $p$ &lt; 1e-06 -->
    <g transform="translate(79.69975 132.689437)">
     <text>
      <tspan style="font: oblique 10px 'DejaVu Sans'" x="0" y="-0.578125">p</tspan>
      <tspan style="font: 10px 'DejaVu Sans'" x="6.347656 9.526367 17.905273 21.083984 27.446289 33.598633 37.207031 43.569336" y="-0.578125"> &lt; 1e-06</tspan>
     </text>
    </g>
   </g>
   <g id="text_6">
    <!-- A) Exit 1 $\rightarrow$ Exit 2 -->
    <g transform="translate(50.93975 16.318125)">
     <text>
      <tspan style="font: 12px 'DejaVu Sans'" x="0 8.208984 12.890625 16.705078 24.287109 31.388672 34.722656 39.427734 43.242188 50.876953 57.029297 69.421875 73.236328 80.818359 87.919922 91.253906 95.958984 99.773438" y="-0.875">A) Exit 1 → Exit 2</tspan>
     </text>
    </g>
   </g>
  </g>
  <g id="axes_2">
   <g id="patch_5">
    <path d="M 384.5895 112.382562 
C 384.5895 103.283516 382.797186 94.272946 379.315132 85.866523 
C 375.833077 77.4601 370.729 69.821308 364.295002 63.38731 
C 357.861005 56.953313 350.222212 51.849235 341.815789 48.367181 
C 333.409366 44.885126 324.398797 43.092813 315.29975 43.092813 
C 306.200703 43.092813 297.190134 44.885126 288.783711 48.367181 
C 280.377288 51.849235 272.738495 56.953313 266.304498 63.38731 
C 259.8705 69.821308 254.766423 77.4601 251.284368 85.866523 
C 247.802314 94.272946 246.01 103.283516 246.01 112.382562 
C 246.01 121.481609 247.802314 130.492179 251.284368 138.898602 
C 254.766423 147.305025 259.8705 154.943817 266.304498 161.377815 
C 272.738495 167.811812 280.377288 172.91589 288.783711 176.397944 
C 297.190134 179.879999 306.200703 181.672312 315.29975 181.672312 
C 324.398797 181.672312 333.409366 179.879999 341.815789 176.397944 
C 350.222212 172.91589 357.861005 167.811812 364.295002 161.377815 
C 370.729 154.943817 375.833077 147.305025 379.315132 138.898602 
C 382.797186 130.492179 384.5895 121.481609 384.5895 112.382563 
M 315.29975 112.382562 
C 315.29975 112.382562 315.29975 112.382562 315.29975 112.382562 
C 315.29975 112.382562 315.29975 112.382562 315.29975 112.382562 
C 315.29975 112.382562 315.29975 112.382562 315.29975 112.382562 
C 315.29975 112.382562 315.29975 112.382562 315.29975 112.382562 
C 315.29975 112.382562 315.29975 112.382562 315.29975 112.382562 
C 315.29975 112.382562 315.29975 112.382562 315.29975 112.382562 
C 315.29975 112.382562 315.29975 112.382562 315.29975 112.382562 
C 315.29975 112.382562 315.29975 112.382562 315.29975 112.382562 
C 315.29975 112.382562 315.29975 112.382562 315.29975 112.382562 
C 315.29975 112.382562 315.29975 112.382562 315.29975 112.382562 
C 315.29975 112.382562 315.29975 112.382562 315.29975 112.382562 
C 315.29975 112.382562 315.29975 112.382562 315.29975 112.382562 
C 315.29975 112.382562 315.29975 112.382562 315.29975 112.382562 
C 315.29975 112.382562 315.29975 112.382562 315.29975 112.382562 
C 315.29975 112.382562 315.29975 112.382562 315.29975 112.382562 
C 315.29975 112.382562 315.29975 112.382562 315.29975 112.382562 
z
" style="fill: #ffffff"/>
   </g>
   <g id="PathCollection_2">
    <g clip-path="url(#p5aecbcb65c)">
     <use xlink:href="#m6512616957" x="258.696499" y="91.733827" style="fill: #1f77b4; stroke: #000000"/>
     <use xlink:href="#m6512616957" x="265.976436" y="77.777521" style="fill: #1f77b4; stroke: #000000"/>
     <use xlink:href="#m6512616957" x="269.169824" y="73.622684" style="fill: #1f77b4; stroke: #000000"/>
     <use xlink:href="#m6512616957" x="272.71215" y="69.761035" style="fill: #1f77b4; stroke: #000000"/>
     <use xlink:href="#m6512616957" x="276.97091" y="74.023188" style="fill: #1f77b4; stroke: #000000"/>
     <use xlink:href="#m6512616957" x="280.783365" y="62.997166" style="fill: #1f77b4; stroke: #000000"/>
     <use xlink:href="#m6512616957" x="284.235003" y="67.935705" style="fill: #1f77b4; stroke: #000000"/>
     <use xlink:href="#m6512616957" x="285.205021" y="60.184808" style="fill: #1f77b4; stroke: #000000"/>
     <use xlink:href="#m6512616957" x="304.868731" y="53.040401" style="fill: #1f77b4; stroke: #000000"/>
     <use xlink:href="#m6512616957" x="305.911833" y="58.974617" style="fill: #1f77b4; stroke: #000000"/>
     <use xlink:href="#m6512616957" x="306.954935" y="64.908833" style="fill: #1f77b4; stroke: #000000"/>
     <use xlink:href="#m6512616957" x="307.998037" y="70.84305" style="fill: #1f77b4; stroke: #000000"/>
     <use xlink:href="#m6512616957" x="310.06444" y="52.358486" style="fill: #1f77b4; stroke: #000000"/>
     <use xlink:href="#m6512616957" x="310.587971" y="58.360893" style="fill: #1f77b4; stroke: #000000"/>
     <use xlink:href="#m6512616957" x="320.53506" y="52.358486" style="fill: #1f77b4; stroke: #000000"/>
     <use xlink:href="#m6512616957" x="330.847575" y="54.171194" style="fill: #1f77b4; stroke: #000000"/>
     <use xlink:href="#m6512616957" x="329.292793" y="59.992331" style="fill: #1f77b4; stroke: #000000"/>
     <use xlink:href="#m6512616957" x="327.73801" y="65.813468" style="fill: #1f77b4; stroke: #000000"/>
     <use xlink:href="#m6512616957" x="340.745179" y="57.767286" style="fill: #1f77b4; stroke: #000000"/>
     <use xlink:href="#m6512616957" x="361.429676" y="73.622684" style="fill: #1f77b4; stroke: #000000"/>
    </g>
   </g>
   <g id="matplotlib.axis_3">
    <g id="xtick_5">
     <g id="line2d_7">
      <path d="M 315.29975 112.382563 
L 315.29975 43.092813 
" clip-path="url(#p5aecbcb65c)" style="fill: none; stroke: #b0b0b0; stroke-width: 0.8; stroke-linecap: square"/>
     </g>
     <g id="text_7">
      <!-- 0$^\degree$ -->
      <g transform="translate(308.08975 32.955938)">
       <text>
        <tspan style="font: 14px 'DejaVu Sans'" x="0" y="-0.3671875">0</tspan>
        <tspan style="font: 9.8px 'DejaVu Sans'" x="9.041211" y="-5.7265625">°</tspan>
       </text>
      </g>
     </g>
    </g>
    <g id="xtick_6">
     <g id="line2d_8">
      <path d="M 315.29975 112.382563 
L 384.5895 112.382563 
" clip-path="url(#p5aecbcb65c)" style="fill: none; stroke: #b0b0b0; stroke-width: 0.8; stroke-linecap: square"/>
     </g>
     <g id="text_8">
      <!-- 90$^\degree$ -->
      <g transform="translate(386.9695 116.245688)">
       <text>
        <tspan style="font: 14px 'DejaVu Sans'" x="0 8.907227" y="-0.3671875">90</tspan>
        <tspan style="font: 9.8px 'DejaVu Sans'" x="17.948438" y="-5.7265625">°</tspan>
       </text>
      </g>
     </g>
    </g>
    <g id="xtick_7">
     <g id="line2d_9">
      <path d="M 315.29975 112.382563 
L 315.29975 181.672312 
" clip-path="url(#p5aecbcb65c)" style="fill: none; stroke: #b0b0b0; stroke-width: 0.8; stroke-linecap: square"/>
     </g>
     <g id="text_9">
      <!-- 180$^\degree$ -->
      <g transform="translate(299.19975 199.535437)">
       <text>
        <tspan style="font: 14px 'DejaVu Sans'" x="0 8.907227 17.814453" y="-0.3671875">180</tspan>
        <tspan style="font: 9.8px 'DejaVu Sans'" x="26.855664" y="-5.7265625">°</tspan>
       </text>
      </g>
     </g>
    </g>
    <g id="xtick_8">
     <g id="line2d_10">
      <path d="M 315.29975 112.382563 
L 246.01 112.382563 
" clip-path="url(#p5aecbcb65c)" style="fill: none; stroke: #b0b0b0; stroke-width: 0.8; stroke-linecap: square"/>
     </g>
     <g id="text_10">
      <!-- -90$^\degree$ -->
      <g transform="translate(217.8 116.245688)">
       <text>
        <tspan style="font: 14px 'DejaVu Sans'" x="0 5.051758 13.958984" y="-0.3671875">-90</tspan>
        <tspan style="font: 9.8px 'DejaVu Sans'" x="23.000195" y="-5.7265625">°</tspan>
       </text>
      </g>
     </g>
    </g>
   </g>
   <g id="matplotlib.axis_4"/>
   <g id="line2d_11">
    <path d="M 315.29975 112.382563 
L 315.130678 111.734797 
L 314.961606 111.087032 
L 314.792534 110.439267 
L 314.623462 109.791502 
L 314.45439 109.143737 
L 314.285317 108.495972 
L 314.116245 107.848207 
L 313.947173 107.200442 
L 313.778101 106.552677 
L 313.609029 105.904912 
L 313.439957 105.257147 
L 313.270885 104.609382 
L 313.101813 103.961616 
L 312.932741 103.313851 
L 312.763669 102.666086 
L 312.594597 102.018321 
L 312.425525 101.370556 
L 312.256452 100.722791 
L 312.08738 100.075026 
L 311.918308 99.427261 
L 311.749236 98.779496 
L 311.580164 98.131731 
L 311.411092 97.483966 
L 311.24202 96.836201 
L 311.072948 96.188435 
L 310.903876 95.54067 
L 310.734804 94.892905 
L 310.565732 94.24514 
L 310.396659 93.597375 
L 310.227587 92.94961 
L 310.058515 92.301845 
L 309.889443 91.65408 
L 309.720371 91.006315 
L 309.551299 90.35855 
L 309.382227 89.710785 
L 309.213155 89.06302 
L 309.044083 88.415254 
L 308.875011 87.767489 
L 308.705939 87.119724 
L 308.536867 86.471959 
L 308.367794 85.824194 
L 308.198722 85.176429 
L 308.02965 84.528664 
L 307.860578 83.880899 
L 307.691506 83.233134 
L 307.522434 82.585369 
L 307.353362 81.937604 
L 307.18429 81.289839 
L 307.015218 80.642074 
L 306.846146 79.994308 
L 306.677074 79.346543 
L 306.508001 78.698778 
L 306.338929 78.051013 
L 306.169857 77.403248 
L 306.000785 76.755483 
L 305.831713 76.107718 
L 305.662641 75.459953 
L 305.493569 74.812188 
L 305.324497 74.164423 
L 305.155425 73.516658 
L 304.986353 72.868893 
L 304.817281 72.221127 
L 304.648209 71.573362 
L 304.479136 70.925597 
L 304.310064 70.277832 
L 304.140992 69.630067 
L 303.97192 68.982302 
L 303.802848 68.334537 
L 303.633776 67.686772 
L 303.464704 67.039007 
L 303.295632 66.391242 
L 303.12656 65.743477 
L 302.957488 65.095712 
L 302.788416 64.447946 
L 302.619344 63.800181 
L 302.450271 63.152416 
L 302.281199 62.504651 
L 302.112127 61.856886 
L 301.943055 61.209121 
L 301.773983 60.561356 
L 301.604911 59.913591 
L 301.435839 59.265826 
L 301.266767 58.618061 
L 301.097695 57.970296 
L 300.928623 57.322531 
L 300.759551 56.674766 
L 300.590478 56.027 
L 300.421406 55.379235 
L 300.252334 54.73147 
L 300.083262 54.083705 
L 299.91419 53.43594 
L 299.745118 52.788175 
L 299.576046 52.14041 
L 299.406974 51.492645 
L 299.237902 50.84488 
L 299.06883 50.197115 
L 298.899758 49.54935 
L 298.730686 48.901585 
L 298.561613 48.253819 
" clip-path="url(#p5aecbcb65c)" style="fill: none; stroke: #000000; stroke-width: 1.5; stroke-linecap: square"/>
   </g>
   <g id="line2d_12">
    <path d="M 289.43015 51.362691 
L 289.609835 51.286825 
L 289.789742 51.211488 
L 289.969871 51.13668 
L 290.150218 51.062403 
L 290.330784 50.988657 
L 290.511566 50.915443 
L 290.692562 50.842761 
L 290.873772 50.770612 
L 291.055193 50.698996 
L 291.236824 50.627915 
L 291.418663 50.557369 
L 291.60071 50.487358 
L 291.782961 50.417883 
L 291.965416 50.348944 
L 292.148074 50.280543 
L 292.330931 50.21268 
L 292.513988 50.145355 
L 292.697242 50.07857 
L 292.880692 50.012323 
L 293.064336 49.946617 
L 293.248172 49.881452 
L 293.4322 49.816828 
L 293.616417 49.752746 
L 293.800822 49.689206 
L 293.985412 49.626209 
L 294.170188 49.563756 
L 294.355146 49.501846 
L 294.540286 49.440482 
L 294.725606 49.379662 
L 294.911103 49.319388 
L 295.096778 49.25966 
L 295.282627 49.200479 
L 295.46865 49.141845 
L 295.654844 49.083759 
L 295.841209 49.02622 
L 296.027742 48.969231 
L 296.214442 48.912791 
L 296.401307 48.8569 
L 296.588336 48.80156 
L 296.775527 48.74677 
L 296.962879 48.692531 
L 297.150389 48.638844 
L 297.338056 48.585709 
L 297.525879 48.533127 
L 297.713856 48.481097 
L 297.901985 48.429621 
L 298.090265 48.378699 
L 298.278694 48.328331 
L 298.46727 48.278518 
L 298.655993 48.22926 
L 298.844859 48.180557 
L 299.033868 48.132411 
L 299.223017 48.084821 
L 299.412306 48.037788 
L 299.601733 47.991312 
L 299.791295 47.945394 
L 299.980992 47.900034 
L 300.170821 47.855232 
L 300.360781 47.810989 
L 300.550871 47.767305 
L 300.741089 47.724181 
L 300.931432 47.681617 
L 301.1219 47.639613 
L 301.312491 47.59817 
L 301.503203 47.557288 
L 301.694035 47.516968 
L 301.884984 47.477209 
L 302.076049 47.438012 
L 302.267229 47.399378 
L 302.458522 47.361306 
L 302.649926 47.323798 
L 302.84144 47.286853 
L 303.033061 47.250472 
L 303.224789 47.214655 
L 303.416621 47.179402 
L 303.608556 47.144714 
L 303.800593 47.110591 
L 303.992729 47.077033 
L 304.184963 47.044041 
L 304.377293 47.011615 
L 304.569718 46.979754 
L 304.762236 46.948461 
L 304.954845 46.917734 
L 305.147543 46.887573 
L 305.34033 46.85798 
L 305.533203 46.828955 
L 305.72616 46.800497 
L 305.9192 46.772608 
L 306.112322 46.745286 
L 306.305523 46.718533 
L 306.498802 46.692349 
L 306.692157 46.666733 
L 306.885587 46.641687 
L 307.079089 46.61721 
L 307.272663 46.593302 
L 307.466307 46.569964 
L 307.660018 46.547197 
L 307.853795 46.524999 
L 308.047637 46.503372 
" clip-path="url(#p5aecbcb65c)" style="fill: none; stroke: #000000; stroke-width: 1.5; stroke-linecap: square"/>
   </g>
   <g id="patch_6">
    <path d="M 315.29975 43.092813 
C 306.200703 43.092813 297.190134 44.885126 288.783711 48.367181 
C 280.377288 51.849235 272.738495 56.953313 266.304498 63.38731 
C 259.8705 69.821308 254.766423 77.4601 251.284368 85.866523 
C 247.802314 94.272946 246.01 103.283516 246.01 112.382563 
C 246.01 121.481609 247.802314 130.492179 251.284368 138.898602 
C 254.766423 147.305025 259.8705 154.943817 266.304498 161.377815 
C 272.738495 167.811812 280.377288 172.91589 288.783711 176.397944 
C 297.190134 179.879999 306.200703 181.672312 315.29975 181.672312 
C 324.398797 181.672312 333.409366 179.879999 341.815789 176.397944 
C 350.222212 172.91589 357.861005 167.811812 364.295002 161.377815 
C 370.729 154.943817 375.833077 147.305025 379.315132 138.898602 
C 382.797186 130.492179 384.5895 121.481609 384.5895 112.382563 
C 384.5895 103.283516 382.797186 94.272946 379.315132 85.866523 
C 375.833077 77.4601 370.729 69.821308 364.295002 63.38731 
C 357.861005 56.953313 350.222212 51.849235 341.815789 48.367181 
C 333.409366 44.885126 324.398797 43.092813 315.29975 43.092813 
" style="fill: none; stroke: #000000; stroke-width: 0.8; stroke-linejoin: miter; stroke-linecap: square"/>
   </g>
   <g id="text_11">
    <g id="patch_7">
     <path d="M 284.34975 136.289438 
L 346.24975 136.289438 
L 346.24975 88.475688 
L 284.34975 88.475688 
z
" style="fill: #ffffff; stroke: #000000; stroke-linejoin: miter"/>
    </g>
    <!-- $\mu$ = -14.63$^\degree$ -->
    <g transform="translate(286.64975 99.075688)">
     <text>
      <tspan style="font: oblique 10px 'DejaVu Sans'" x="0" y="-0.9765625">μ</tspan>
      <tspan style="font: 10px 'DejaVu Sans'" x="6.362305 9.541016 17.919922 21.098633 24.707031 31.069336 37.431641 40.610352 46.972656" y="-0.9765625"> = -14.63</tspan>
      <tspan style="font: 7px 'DejaVu Sans'" x="53.430664" y="-4.8046875">°</tspan>
     </text>
    </g>
    <!-- $s0$ = 30.10$^\degree$ -->
    <g transform="translate(285.84975 110.293813)">
     <text>
      <tspan style="font: oblique 10px 'DejaVu Sans'" x="0" y="-0.9765625">s</tspan>
      <tspan style="font: 10px 'DejaVu Sans'" x="5.209961 11.572266 14.750977 23.129883 26.308594 32.670898 39.033203 42.211914 48.574219" y="-0.9765625">0 = 30.10</tspan>
      <tspan style="font: 7px 'DejaVu Sans'" x="55.032227" y="-4.8046875">°</tspan>
     </text>
    </g>
    <!-- $V = 0.84$ -->
    <g transform="translate(294.69975 121.491625)">
     <text>
      <tspan style="font: oblique 10px 'DejaVu Sans'" x="0" y="-0.578125">V</tspan>
      <tspan style="font: 10px 'DejaVu Sans'" x="8.789062 19.116211 25.478516 28.407227 34.769531" y="-0.578125">=0.84</tspan>
     </text>
    </g>
    <!-- $p$ &lt; 1e-06 -->
    <g transform="translate(290.29975 132.689437)">
     <text>
      <tspan style="font: oblique 10px 'DejaVu Sans'" x="0" y="-0.578125">p</tspan>
      <tspan style="font: 10px 'DejaVu Sans'" x="6.347656 9.526367 17.905273 21.083984 27.446289 33.598633 37.207031 43.569336" y="-0.578125"> &lt; 1e-06</tspan>
     </text>
    </g>
   </g>
   <g id="text_12">
    <!-- B) Exit 1 $\rightarrow$ Exit 3 -->
    <g transform="translate(261.53975 16.318125)">
     <text>
      <tspan style="font: 12px 'DejaVu Sans'" x="0 8.232422 12.914062 16.728516 24.310547 31.412109 34.746094 39.451172 43.265625 50.900391 57.052734 69.445312 73.259766 80.841797 87.943359 91.277344 95.982422 99.796875" y="-0.875">B) Exit 1 → Exit 3</tspan>
     </text>
    </g>
   </g>
  </g>
  <g id="axes_3">
   <g id="patch_8">
    <path d="M 173.9895 322.982562 
C 173.9895 313.883516 172.197186 304.872946 168.715132 296.466523 
C 165.233077 288.0601 160.129 280.421308 153.695002 273.98731 
C 147.261005 267.553313 139.622212 262.449235 131.215789 258.967181 
C 122.809366 255.485126 113.798797 253.692812 104.69975 253.692812 
C 95.600703 253.692812 86.590134 255.485126 78.183711 258.967181 
C 69.777288 262.449235 62.138495 267.553313 55.704498 273.98731 
C 49.2705 280.421308 44.166423 288.0601 40.684368 296.466523 
C 37.202314 304.872946 35.41 313.883516 35.41 322.982562 
C 35.41 332.081609 37.202314 341.092179 40.684368 349.498602 
C 44.166423 357.905025 49.2705 365.543817 55.704498 371.977815 
C 62.138495 378.411812 69.777288 383.51589 78.183711 386.997944 
C 86.590134 390.479999 95.600703 392.272312 104.69975 392.272312 
C 113.798797 392.272312 122.809366 390.479999 131.215789 386.997944 
C 139.622212 383.51589 147.261005 378.411812 153.695002 371.977815 
C 160.129 365.543817 165.233077 357.905025 168.715132 349.498602 
C 172.197186 341.092179 173.9895 332.081609 173.9895 322.982562 
M 104.69975 322.982562 
C 104.69975 322.982562 104.69975 322.982562 104.69975 322.982562 
C 104.69975 322.982562 104.69975 322.982562 104.69975 322.982562 
C 104.69975 322.982562 104.69975 322.982562 104.69975 322.982562 
C 104.69975 322.982562 104.69975 322.982562 104.69975 322.982562 
C 104.69975 322.982562 104.69975 322.982562 104.69975 322.982562 
C 104.69975 322.982562 104.69975 322.982562 104.69975 322.982562 
C 104.69975 322.982562 104.69975 322.982562 104.69975 322.982562 
C 104.69975 322.982562 104.69975 322.982562 104.69975 322.982562 
C 104.69975 322.982562 104.69975 322.982562 104.69975 322.982562 
C 104.69975 322.982562 104.69975 322.982562 104.69975 322.982562 
C 104.69975 322.982562 104.69975 322.982562 104.69975 322.982562 
C 104.69975 322.982562 104.69975 322.982562 104.69975 322.982562 
C 104.69975 322.982562 104.69975 322.982562 104.69975 322.982562 
C 104.69975 322.982562 104.69975 322.982562 104.69975 322.982562 
C 104.69975 322.982562 104.69975 322.982562 104.69975 322.982562 
C 104.69975 322.982562 104.69975 322.982562 104.69975 322.982562 
z
" style="fill: #ffffff"/>
   </g>
   <g id="PathCollection_3">
    <g clip-path="url(#p959b2c901d)">
     <use xlink:href="#m6512616957" x="44.447813" y="322.934582" style="fill: #1f77b4; stroke: #000000"/>
     <use xlink:href="#m6512616957" x="44.679861" y="317.699455" style="fill: #1f77b4; stroke: #000000"/>
     <use xlink:href="#m6512616957" x="50.104754" y="297.49365" style="fill: #1f77b4; stroke: #000000"/>
     <use xlink:href="#m6512616957" x="52.525977" y="292.846277" style="fill: #1f77b4; stroke: #000000"/>
     <use xlink:href="#m6512616957" x="58.569824" y="284.222684" style="fill: #1f77b4; stroke: #000000"/>
     <use xlink:href="#m6512616957" x="63.182817" y="288.098672" style="fill: #1f77b4; stroke: #000000"/>
     <use xlink:href="#m6512616957" x="62.11215" y="280.361035" style="fill: #1f77b4; stroke: #000000"/>
     <use xlink:href="#m6512616957" x="70.183365" y="273.597166" style="fill: #1f77b4; stroke: #000000"/>
     <use xlink:href="#m6512616957" x="84.096096" y="266.362887" style="fill: #1f77b4; stroke: #000000"/>
     <use xlink:href="#m6512616957" x="86.156461" y="272.024854" style="fill: #1f77b4; stroke: #000000"/>
     <use xlink:href="#m6512616957" x="88.216826" y="277.686822" style="fill: #1f77b4; stroke: #000000"/>
     <use xlink:href="#m6512616957" x="89.151925" y="264.771194" style="fill: #1f77b4; stroke: #000000"/>
     <use xlink:href="#m6512616957" x="90.706707" y="270.592331" style="fill: #1f77b4; stroke: #000000"/>
     <use xlink:href="#m6512616957" x="99.46444" y="262.958486" style="fill: #1f77b4; stroke: #000000"/>
     <use xlink:href="#m6512616957" x="109.93506" y="262.958486" style="fill: #1f77b4; stroke: #000000"/>
     <use xlink:href="#m6512616957" x="109.411529" y="268.960893" style="fill: #1f77b4; stroke: #000000"/>
     <use xlink:href="#m6512616957" x="115.130769" y="263.640401" style="fill: #1f77b4; stroke: #000000"/>
     <use xlink:href="#m6512616957" x="114.087667" y="269.574617" style="fill: #1f77b4; stroke: #000000"/>
     <use xlink:href="#m6512616957" x="134.794479" y="270.784808" style="fill: #1f77b4; stroke: #000000"/>
     <use xlink:href="#m6512616957" x="154.023064" y="288.377521" style="fill: #1f77b4; stroke: #000000"/>
    </g>
   </g>
   <g id="matplotlib.axis_5">
    <g id="xtick_9">
     <g id="line2d_13">
      <path d="M 104.69975 322.982562 
L 104.69975 253.692812 
" clip-path="url(#p959b2c901d)" style="fill: none; stroke: #b0b0b0; stroke-width: 0.8; stroke-linecap: square"/>
     </g>
     <g id="text_13">
      <!-- 0$^\degree$ -->
      <g transform="translate(97.48975 243.555937)">
       <text>
        <tspan style="font: 14px 'DejaVu Sans'" x="0" y="-0.3671875">0</tspan>
        <tspan style="font: 9.8px 'DejaVu Sans'" x="9.041211" y="-5.7265625">°</tspan>
       </text>
      </g>
     </g>
    </g>
    <g id="xtick_10">
     <g id="line2d_14">
      <path d="M 104.69975 322.982562 
L 173.9895 322.982562 
" clip-path="url(#p959b2c901d)" style="fill: none; stroke: #b0b0b0; stroke-width: 0.8; stroke-linecap: square"/>
     </g>
     <g id="text_14">
      <!-- 90$^\degree$ -->
      <g transform="translate(176.3695 326.845687)">
       <text>
        <tspan style="font: 14px 'DejaVu Sans'" x="0 8.907227" y="-0.3671875">90</tspan>
        <tspan style="font: 9.8px 'DejaVu Sans'" x="17.948438" y="-5.7265625">°</tspan>
       </text>
      </g>
     </g>
    </g>
    <g id="xtick_11">
     <g id="line2d_15">
      <path d="M 104.69975 322.982562 
L 104.69975 392.272312 
" clip-path="url(#p959b2c901d)" style="fill: none; stroke: #b0b0b0; stroke-width: 0.8; stroke-linecap: square"/>
     </g>
     <g id="text_15">
      <!-- 180$^\degree$ -->
      <g transform="translate(88.59975 410.135437)">
       <text>
        <tspan style="font: 14px 'DejaVu Sans'" x="0 8.907227 17.814453" y="-0.3671875">180</tspan>
        <tspan style="font: 9.8px 'DejaVu Sans'" x="26.855664" y="-5.7265625">°</tspan>
       </text>
      </g>
     </g>
    </g>
    <g id="xtick_12">
     <g id="line2d_16">
      <path d="M 104.69975 322.982562 
L 35.41 322.982562 
" clip-path="url(#p959b2c901d)" style="fill: none; stroke: #b0b0b0; stroke-width: 0.8; stroke-linecap: square"/>
     </g>
     <g id="text_16">
      <!-- -90$^\degree$ -->
      <g transform="translate(7.2 326.845687)">
       <text>
        <tspan style="font: 14px 'DejaVu Sans'" x="0 5.051758 13.958984" y="-0.3671875">-90</tspan>
        <tspan style="font: 9.8px 'DejaVu Sans'" x="23.000195" y="-5.7265625">°</tspan>
       </text>
      </g>
     </g>
    </g>
   </g>
   <g id="matplotlib.axis_6"/>
   <g id="line2d_17">
    <path d="M 104.69975 322.982562 
L 104.437717 322.366508 
L 104.175683 321.750453 
L 103.91365 321.134398 
L 103.651616 320.518344 
L 103.389583 319.902289 
L 103.127549 319.286234 
L 102.865516 318.670179 
L 102.603482 318.054125 
L 102.341449 317.43807 
L 102.079415 316.822015 
L 101.817382 316.205961 
L 101.555348 315.589906 
L 101.293315 314.973851 
L 101.031281 314.357796 
L 100.769248 313.741742 
L 100.507214 313.125687 
L 100.245181 312.509632 
L 99.983147 311.893577 
L 99.721114 311.277523 
L 99.45908 310.661468 
L 99.197047 310.045413 
L 98.935013 309.429359 
L 98.67298 308.813304 
L 98.410946 308.197249 
L 98.148913 307.581194 
L 97.886879 306.96514 
L 97.624846 306.349085 
L 97.362812 305.73303 
L 97.100779 305.116976 
L 96.838745 304.500921 
L 96.576712 303.884866 
L 96.314678 303.268811 
L 96.052645 302.652757 
L 95.790611 302.036702 
L 95.528578 301.420647 
L 95.266544 300.804592 
L 95.004511 300.188538 
L 94.742477 299.572483 
L 94.480444 298.956428 
L 94.21841 298.340374 
L 93.956377 297.724319 
L 93.694344 297.108264 
L 93.43231 296.492209 
L 93.170277 295.876155 
L 92.908243 295.2601 
L 92.64621 294.644045 
L 92.384176 294.02799 
L 92.122143 293.411936 
L 91.860109 292.795881 
L 91.598076 292.179826 
L 91.336042 291.563772 
L 91.074009 290.947717 
L 90.811975 290.331662 
L 90.549942 289.715607 
L 90.287908 289.099553 
L 90.025875 288.483498 
L 89.763841 287.867443 
L 89.501808 287.251389 
L 89.239774 286.635334 
L 88.977741 286.019279 
L 88.715707 285.403224 
L 88.453674 284.78717 
L 88.19164 284.171115 
L 87.929607 283.55506 
L 87.667573 282.939005 
L 87.40554 282.322951 
L 87.143506 281.706896 
L 86.881473 281.090841 
L 86.619439 280.474787 
L 86.357406 279.858732 
L 86.095372 279.242677 
L 85.833339 278.626622 
L 85.571305 278.010568 
L 85.309272 277.394513 
L 85.047238 276.778458 
L 84.785205 276.162404 
L 84.523171 275.546349 
L 84.261138 274.930294 
L 83.999104 274.314239 
L 83.737071 273.698185 
L 83.475038 273.08213 
L 83.213004 272.466075 
L 82.950971 271.85002 
L 82.688937 271.233966 
L 82.426904 270.617911 
L 82.16487 270.001856 
L 81.902837 269.385802 
L 81.640803 268.769747 
L 81.37877 268.153692 
L 81.116736 267.537637 
L 80.854703 266.921583 
L 80.592669 266.305528 
L 80.330636 265.689473 
L 80.068602 265.073418 
L 79.806569 264.457364 
L 79.544535 263.841309 
L 79.282502 263.225254 
L 79.020468 262.6092 
L 78.758435 261.993145 
" clip-path="url(#p959b2c901d)" style="fill: none; stroke: #000000; stroke-width: 1.5; stroke-linecap: square"/>
   </g>
   <g id="line2d_18">
    <path d="M 69.234824 266.992386 
L 69.418783 266.876286 
L 69.603122 266.760791 
L 69.78784 266.645901 
L 69.972933 266.531618 
L 70.158401 266.417944 
L 70.344241 266.304878 
L 70.530451 266.192424 
L 70.717029 266.080581 
L 70.903973 265.969351 
L 71.091281 265.858735 
L 71.278951 265.748734 
L 71.466981 265.63935 
L 71.655369 265.530584 
L 71.844114 265.422437 
L 72.033212 265.31491 
L 72.222662 265.208004 
L 72.412461 265.10172 
L 72.602609 264.99606 
L 72.793103 264.891025 
L 72.98394 264.786615 
L 73.175119 264.682833 
L 73.366637 264.579678 
L 73.558493 264.477152 
L 73.750684 264.375257 
L 73.943209 264.273993 
L 74.136065 264.173362 
L 74.329251 264.073364 
L 74.522763 263.974001 
L 74.716601 263.875273 
L 74.910762 263.777182 
L 75.105243 263.679729 
L 75.300044 263.582915 
L 75.495161 263.48674 
L 75.690592 263.391207 
L 75.886337 263.296315 
L 76.082391 263.202067 
L 76.278754 263.108462 
L 76.475423 263.015503 
L 76.672396 262.923189 
L 76.869671 262.831522 
L 77.067246 262.740504 
L 77.265118 262.650134 
L 77.463286 262.560415 
L 77.661748 262.471346 
L 77.860501 262.382929 
L 78.059542 262.295165 
L 78.258871 262.208054 
L 78.458485 262.121599 
L 78.658381 262.035799 
L 78.858558 261.950655 
L 79.059013 261.866169 
L 79.259745 261.782342 
L 79.46075 261.699173 
L 79.662028 261.616665 
L 79.863575 261.534818 
L 80.065389 261.453633 
L 80.26747 261.373111 
L 80.469813 261.293252 
L 80.672417 261.214058 
L 80.87528 261.135529 
L 81.0784 261.057667 
L 81.281774 260.980471 
L 81.485401 260.903944 
L 81.689277 260.828085 
L 81.893402 260.752896 
L 82.097772 260.678377 
L 82.302385 260.60453 
L 82.50724 260.531354 
L 82.712334 260.458851 
L 82.917665 260.387022 
L 83.12323 260.315867 
L 83.329028 260.245387 
L 83.535056 260.175583 
L 83.741312 260.106456 
L 83.947794 260.038006 
L 84.1545 259.970234 
L 84.361426 259.90314 
L 84.568572 259.836727 
L 84.775935 259.770993 
L 84.983512 259.705941 
L 85.191302 259.64157 
L 85.399302 259.577881 
L 85.60751 259.514876 
L 85.815923 259.452554 
L 86.02454 259.390916 
L 86.233358 259.329964 
L 86.442375 259.269697 
L 86.651589 259.210117 
L 86.860997 259.151224 
L 87.070598 259.093018 
L 87.280388 259.035501 
L 87.490366 258.978672 
L 87.700529 258.922533 
L 87.910875 258.867084 
L 88.121402 258.812326 
L 88.332108 258.758259 
L 88.54299 258.704883 
L 88.754047 258.652201 
L 88.965275 258.600211 
" clip-path="url(#p959b2c901d)" style="fill: none; stroke: #000000; stroke-width: 1.5; stroke-linecap: square"/>
   </g>
   <g id="patch_9">
    <path d="M 104.69975 253.692812 
C 95.600703 253.692812 86.590134 255.485126 78.183711 258.967181 
C 69.777288 262.449235 62.138495 267.553313 55.704498 273.98731 
C 49.2705 280.421308 44.166423 288.0601 40.684368 296.466523 
C 37.202314 304.872946 35.41 313.883516 35.41 322.982562 
C 35.41 332.081609 37.202314 341.092179 40.684368 349.498602 
C 44.166423 357.905025 49.2705 365.543817 55.704498 371.977815 
C 62.138495 378.411812 69.777288 383.51589 78.183711 386.997944 
C 86.590134 390.479999 95.600703 392.272312 104.69975 392.272312 
C 113.798797 392.272312 122.809366 390.479999 131.215789 386.997944 
C 139.622212 383.51589 147.261005 378.411812 153.695002 371.977815 
C 160.129 365.543817 165.233077 357.905025 168.715132 349.498602 
C 172.197186 341.092179 173.9895 332.081609 173.9895 322.982562 
C 173.9895 313.883516 172.197186 304.872946 168.715132 296.466523 
C 165.233077 288.0601 160.129 280.421308 153.695002 273.98731 
C 147.261005 267.553313 139.622212 262.449235 131.215789 258.967181 
C 122.809366 255.485126 113.798797 253.692812 104.69975 253.692812 
" style="fill: none; stroke: #000000; stroke-width: 0.8; stroke-linejoin: miter; stroke-linecap: square"/>
   </g>
   <g id="text_17">
    <g id="patch_10">
     <path d="M 74.14975 346.889437 
L 135.24975 346.889437 
L 135.24975 299.075687 
L 74.14975 299.075687 
z
" style="fill: #ffffff; stroke: #000000; stroke-linejoin: miter"/>
    </g>
    <!-- $\mu$ = -23.04$^\degree$ -->
    <g transform="translate(76.04975 309.675687)">
     <text>
      <tspan style="font: oblique 10px 'DejaVu Sans'" x="0" y="-0.9765625">μ</tspan>
      <tspan style="font: 10px 'DejaVu Sans'" x="6.362305 9.541016 17.919922 21.098633 24.707031 31.069336 37.431641 40.610352 46.972656" y="-0.9765625"> = -23.04</tspan>
      <tspan style="font: 7px 'DejaVu Sans'" x="53.430664" y="-4.8046875">°</tspan>
     </text>
    </g>
    <!-- $s0$ = 36.79$^\degree$ -->
    <g transform="translate(75.64975 320.893812)">
     <text>
      <tspan style="font: oblique 10px 'DejaVu Sans'" x="0" y="-0.9765625">s</tspan>
      <tspan style="font: 10px 'DejaVu Sans'" x="5.209961 11.572266 14.750977 23.129883 26.308594 32.670898 39.033203 41.461914 47.824219" y="-0.9765625">0 = 36.79</tspan>
      <tspan style="font: 7px 'DejaVu Sans'" x="54.282227" y="-4.8046875">°</tspan>
     </text>
    </g>
    <!-- $V = 0.75$ -->
    <g transform="translate(84.34975 332.091625)">
     <text>
      <tspan style="font: oblique 10px 'DejaVu Sans'" x="0" y="-0.578125">V</tspan>
      <tspan style="font: 10px 'DejaVu Sans'" x="8.789062 19.116211 25.478516 27.907227 34.269531" y="-0.578125">=0.75</tspan>
     </text>
    </g>
    <!-- $p$ &lt; 1e-05 -->
    <g transform="translate(79.69975 343.289437)">
     <text>
      <tspan style="font: oblique 10px 'DejaVu Sans'" x="0" y="-0.578125">p</tspan>
      <tspan style="font: 10px 'DejaVu Sans'" x="6.347656 9.526367 17.905273 21.083984 27.446289 33.598633 37.207031 43.569336" y="-0.578125"> &lt; 1e-05</tspan>
     </text>
    </g>
   </g>
   <g id="text_18">
    <!-- C) Exit 1 $\rightarrow$ Exit 4 -->
    <g transform="translate(50.87975 226.918125)">
     <text>
      <tspan style="font: 12px 'DejaVu Sans'" x="0 8.378906 13.060547 16.875 24.457031 31.558594 34.892578 39.597656 43.412109 51.046875 57.199219 69.591797 73.40625 80.988281 88.089844 91.423828 96.128906 99.943359" y="-0.875">C) Exit 1 → Exit 4</tspan>
     </text>
    </g>
   </g>
  </g>
  <g id="axes_4">
   <g id="patch_11">
    <path d="M 384.5895 322.982562 
C 384.5895 313.883516 382.797186 304.872946 379.315132 296.466523 
C 375.833077 288.0601 370.729 280.421308 364.295002 273.98731 
C 357.861005 267.553313 350.222212 262.449235 341.815789 258.967181 
C 333.409366 255.485126 324.398797 253.692812 315.29975 253.692812 
C 306.200703 253.692812 297.190134 255.485126 288.783711 258.967181 
C 280.377288 262.449235 272.738495 267.553313 266.304498 273.98731 
C 259.8705 280.421308 254.766423 288.0601 251.284368 296.466523 
C 247.802314 304.872946 246.01 313.883516 246.01 322.982562 
C 246.01 332.081609 247.802314 341.092179 251.284368 349.498602 
C 254.766423 357.905025 259.8705 365.543817 266.304498 371.977815 
C 272.738495 378.411812 280.377288 383.51589 288.783711 386.997944 
C 297.190134 390.479999 306.200703 392.272312 315.29975 392.272312 
C 324.398797 392.272312 333.409366 390.479999 341.815789 386.997944 
C 350.222212 383.51589 357.861005 378.411812 364.295002 371.977815 
C 370.729 365.543817 375.833077 357.905025 379.315132 349.498602 
C 382.797186 341.092179 384.5895 332.081609 384.5895 322.982562 
M 315.29975 322.982562 
C 315.29975 322.982562 315.29975 322.982562 315.29975 322.982562 
C 315.29975 322.982562 315.29975 322.982562 315.29975 322.982562 
C 315.29975 322.982562 315.29975 322.982562 315.29975 322.982562 
C 315.29975 322.982562 315.29975 322.982562 315.29975 322.982562 
C 315.29975 322.982562 315.29975 322.982562 315.29975 322.982562 
C 315.29975 322.982562 315.29975 322.982562 315.29975 322.982562 
C 315.29975 322.982562 315.29975 322.982562 315.29975 322.982562 
C 315.29975 322.982562 315.29975 322.982562 315.29975 322.982562 
C 315.29975 322.982562 315.29975 322.982562 315.29975 322.982562 
C 315.29975 322.982562 315.29975 322.982562 315.29975 322.982562 
C 315.29975 322.982562 315.29975 322.982562 315.29975 322.982562 
C 315.29975 322.982562 315.29975 322.982562 315.29975 322.982562 
C 315.29975 322.982562 315.29975 322.982562 315.29975 322.982562 
C 315.29975 322.982562 315.29975 322.982562 315.29975 322.982562 
C 315.29975 322.982562 315.29975 322.982562 315.29975 322.982562 
C 315.29975 322.982562 315.29975 322.982562 315.29975 322.982562 
z
" style="fill: #ffffff"/>
   </g>
   <g id="PathCollection_4">
    <defs>
     <path id="mb515f0cbf3" d="M 0 2.738613 
C 0.726289 2.738613 1.422928 2.450055 1.936492 1.936492 
C 2.450055 1.422928 2.738613 0.726289 2.738613 0 
C 2.738613 -0.726289 2.450055 -1.422928 1.936492 -1.936492 
C 1.422928 -2.450055 0.726289 -2.738613 0 -2.738613 
C -0.726289 -2.738613 -1.422928 -2.450055 -1.936492 -1.936492 
C -2.450055 -1.422928 -2.738613 -0.726289 -2.738613 0 
C -2.738613 0.726289 -2.450055 1.422928 -1.936492 1.936492 
C -1.422928 2.450055 -0.726289 2.738613 0 2.738613 
z
" style="stroke: #000000"/>
    </defs>
    <g clip-path="url(#pfb49f023c1)">
     <use xlink:href="#mb515f0cbf3" x="315.29975" y="262.730606" style="fill: #d62728; stroke: #000000"/>
     <use xlink:href="#mb515f0cbf3" x="320.551054" y="262.959883" style="fill: #d62728; stroke: #000000"/>
     <use xlink:href="#mb515f0cbf3" x="330.894104" y="264.783642" style="fill: #d62728; stroke: #000000"/>
     <use xlink:href="#mb515f0cbf3" x="335.907133" y="266.364244" style="fill: #d62728; stroke: #000000"/>
     <use xlink:href="#mb515f0cbf3" x="333.846395" y="272.026075" style="fill: #d62728; stroke: #000000"/>
     <use xlink:href="#mb515f0cbf3" x="349.858853" y="273.627049" style="fill: #d62728; stroke: #000000"/>
     <use xlink:href="#mb515f0cbf3" x="357.904317" y="280.377995" style="fill: #d62728; stroke: #000000"/>
     <use xlink:href="#mb515f0cbf3" x="361.455426" y="284.253351" style="fill: #d62728; stroke: #000000"/>
     <use xlink:href="#mb515f0cbf3" x="356.839859" y="288.126272" style="fill: #d62728; stroke: #000000"/>
     <use xlink:href="#mb515f0cbf3" x="352.224291" y="291.999194" style="fill: #d62728; stroke: #000000"/>
     <use xlink:href="#mb515f0cbf3" x="364.655263" y="288.42346" style="fill: #d62728; stroke: #000000"/>
     <use xlink:href="#mb515f0cbf3" x="367.479475" y="292.856584" style="fill: #d62728; stroke: #000000"/>
     <use xlink:href="#mb515f0cbf3" x="369.906567" y="297.518985" style="fill: #d62728; stroke: #000000"/>
     <use xlink:href="#mb515f0cbf3" x="364.445886" y="300.065343" style="fill: #d62728; stroke: #000000"/>
     <use xlink:href="#mb515f0cbf3" x="374.636344" y="312.51992" style="fill: #d62728; stroke: #000000"/>
     <use xlink:href="#mb515f0cbf3" x="375.32243" y="317.731258" style="fill: #d62728; stroke: #000000"/>
     <use xlink:href="#mb515f0cbf3" x="369.320162" y="318.256389" style="fill: #d62728; stroke: #000000"/>
     <use xlink:href="#mb515f0cbf3" x="375.551707" y="322.982562" style="fill: #d62728; stroke: #000000"/>
     <use xlink:href="#mb515f0cbf3" x="375.32243" y="328.233867" style="fill: #d62728; stroke: #000000"/>
     <use xlink:href="#mb515f0cbf3" x="373.498671" y="338.576916" style="fill: #d62728; stroke: #000000"/>
     <use xlink:href="#mb515f0cbf3" x="371.918069" y="343.589945" style="fill: #d62728; stroke: #000000"/>
     <use xlink:href="#mb515f0cbf3" x="345.425728" y="375.162287" style="fill: #d62728; stroke: #000000"/>
     <use xlink:href="#mb515f0cbf3" x="335.907133" y="379.600881" style="fill: #d62728; stroke: #000000"/>
     <use xlink:href="#mb515f0cbf3" x="325.762392" y="382.319156" style="fill: #d62728; stroke: #000000"/>
     <use xlink:href="#mb515f0cbf3" x="310.048446" y="383.005242" style="fill: #d62728; stroke: #000000"/>
     <use xlink:href="#mb515f0cbf3" x="265.944237" y="357.541665" style="fill: #d62728; stroke: #000000"/>
     <use xlink:href="#mb515f0cbf3" x="258.681431" y="343.589945" style="fill: #d62728; stroke: #000000"/>
     <use xlink:href="#mb515f0cbf3" x="257.100829" y="338.576916" style="fill: #d62728; stroke: #000000"/>
     <use xlink:href="#mb515f0cbf3" x="262.920721" y="337.017481" style="fill: #d62728; stroke: #000000"/>
     <use xlink:href="#mb515f0cbf3" x="255.047793" y="322.982562" style="fill: #d62728; stroke: #000000"/>
     <use xlink:href="#mb515f0cbf3" x="257.100829" y="307.388209" style="fill: #d62728; stroke: #000000"/>
     <use xlink:href="#mb515f0cbf3" x="260.692933" y="297.518985" style="fill: #d62728; stroke: #000000"/>
     <use xlink:href="#mb515f0cbf3" x="263.120025" y="292.856584" style="fill: #d62728; stroke: #000000"/>
     <use xlink:href="#mb515f0cbf3" x="268.337998" y="295.869182" style="fill: #d62728; stroke: #000000"/>
     <use xlink:href="#mb515f0cbf3" x="269.144074" y="284.253351" style="fill: #d62728; stroke: #000000"/>
     <use xlink:href="#mb515f0cbf3" x="280.740647" y="273.627049" style="fill: #d62728; stroke: #000000"/>
     <use xlink:href="#mb515f0cbf3" x="284.196558" y="278.5626" style="fill: #d62728; stroke: #000000"/>
     <use xlink:href="#mb515f0cbf3" x="289.836173" y="268.375745" style="fill: #d62728; stroke: #000000"/>
     <use xlink:href="#mb515f0cbf3" x="292.382531" y="273.836427" style="fill: #d62728; stroke: #000000"/>
     <use xlink:href="#mb515f0cbf3" x="304.837108" y="263.645969" style="fill: #d62728; stroke: #000000"/>
    </g>
   </g>
   <g id="matplotlib.axis_7">
    <g id="xtick_13">
     <g id="line2d_19">
      <path d="M 315.29975 322.982562 
L 315.29975 253.692812 
" clip-path="url(#pfb49f023c1)" style="fill: none; stroke: #b0b0b0; stroke-width: 0.8; stroke-linecap: square"/>
     </g>
     <g id="text_19">
      <!-- 0$^\degree$ -->
      <g transform="translate(308.08975 243.555937)">
       <text>
        <tspan style="font: 14px 'DejaVu Sans'" x="0" y="-0.3671875">0</tspan>
        <tspan style="font: 9.8px 'DejaVu Sans'" x="9.041211" y="-5.7265625">°</tspan>
       </text>
      </g>
     </g>
    </g>
    <g id="xtick_14">
     <g id="line2d_20">
      <path d="M 315.29975 322.982562 
L 384.5895 322.982562 
" clip-path="url(#pfb49f023c1)" style="fill: none; stroke: #b0b0b0; stroke-width: 0.8; stroke-linecap: square"/>
     </g>
     <g id="text_20">
      <!-- 90$^\degree$ -->
      <g transform="translate(386.9695 326.845687)">
       <text>
        <tspan style="font: 14px 'DejaVu Sans'" x="0 8.907227" y="-0.3671875">90</tspan>
        <tspan style="font: 9.8px 'DejaVu Sans'" x="17.948438" y="-5.7265625">°</tspan>
       </text>
      </g>
     </g>
    </g>
    <g id="xtick_15">
     <g id="line2d_21">
      <path d="M 315.29975 322.982562 
L 315.29975 392.272312 
" clip-path="url(#pfb49f023c1)" style="fill: none; stroke: #b0b0b0; stroke-width: 0.8; stroke-linecap: square"/>
     </g>
     <g id="text_21">
      <!-- 180$^\degree$ -->
      <g transform="translate(299.19975 410.135437)">
       <text>
        <tspan style="font: 14px 'DejaVu Sans'" x="0 8.907227 17.814453" y="-0.3671875">180</tspan>
        <tspan style="font: 9.8px 'DejaVu Sans'" x="26.855664" y="-5.7265625">°</tspan>
       </text>
      </g>
     </g>
    </g>
    <g id="xtick_16">
     <g id="line2d_22">
      <path d="M 315.29975 322.982562 
L 246.01 322.982562 
" clip-path="url(#pfb49f023c1)" style="fill: none; stroke: #b0b0b0; stroke-width: 0.8; stroke-linecap: square"/>
     </g>
     <g id="text_22">
      <!-- -90$^\degree$ -->
      <g transform="translate(217.8 326.845687)">
       <text>
        <tspan style="font: 14px 'DejaVu Sans'" x="0 5.051758 13.958984" y="-0.3671875">-90</tspan>
        <tspan style="font: 9.8px 'DejaVu Sans'" x="23.000195" y="-5.7265625">°</tspan>
       </text>
      </g>
     </g>
    </g>
   </g>
   <g id="matplotlib.axis_8"/>
   <g id="line2d_23">
    <path d="M 315.29975 322.982562 
L 315.554038 322.363271 
L 315.808326 321.743979 
L 316.062614 321.124687 
L 316.316902 320.505395 
L 316.571191 319.886103 
L 316.825479 319.266811 
L 317.079767 318.647519 
L 317.334055 318.028227 
L 317.588343 317.408935 
L 317.842631 316.789643 
L 318.096919 316.170351 
L 318.351207 315.551059 
L 318.605495 314.931767 
L 318.859784 314.312475 
L 319.114072 313.693183 
L 319.36836 313.073891 
L 319.622648 312.454599 
L 319.876936 311.835307 
L 320.131224 311.216015 
L 320.385512 310.596723 
L 320.6398 309.977431 
L 320.894088 309.358139 
L 321.148376 308.738847 
L 321.402665 308.119556 
L 321.656953 307.500264 
L 321.911241 306.880972 
L 322.165529 306.26168 
L 322.419817 305.642388 
L 322.674105 305.023096 
L 322.928393 304.403804 
L 323.182681 303.784512 
L 323.436969 303.16522 
L 323.691258 302.545928 
L 323.945546 301.926636 
L 324.199834 301.307344 
L 324.454122 300.688052 
L 324.70841 300.06876 
L 324.962698 299.449468 
L 325.216986 298.830176 
L 325.471274 298.210884 
L 325.725562 297.591592 
L 325.979851 296.9723 
L 326.234139 296.353008 
L 326.488427 295.733716 
L 326.742715 295.114424 
L 326.997003 294.495132 
L 327.251291 293.87584 
L 327.505579 293.256549 
L 327.759867 292.637257 
L 328.014155 292.017965 
L 328.268443 291.398673 
L 328.522732 290.779381 
L 328.77702 290.160089 
L 329.031308 289.540797 
L 329.285596 288.921505 
L 329.539884 288.302213 
L 329.794172 287.682921 
L 330.04846 287.063629 
L 330.302748 286.444337 
L 330.557036 285.825045 
L 330.811325 285.205753 
L 331.065613 284.586461 
L 331.319901 283.967169 
L 331.574189 283.347877 
L 331.828477 282.728585 
L 332.082765 282.109293 
L 332.337053 281.490001 
L 332.591341 280.870709 
L 332.845629 280.251417 
L 333.099918 279.632125 
L 333.354206 279.012833 
L 333.608494 278.393542 
L 333.862782 277.77425 
L 334.11707 277.154958 
L 334.371358 276.535666 
L 334.625646 275.916374 
L 334.879934 275.297082 
L 335.134222 274.67779 
L 335.38851 274.058498 
L 335.642799 273.439206 
L 335.897087 272.819914 
L 336.151375 272.200622 
L 336.405663 271.58133 
L 336.659951 270.962038 
L 336.914239 270.342746 
L 337.168527 269.723454 
L 337.422815 269.104162 
L 337.677103 268.48487 
L 337.931392 267.865578 
L 338.18568 267.246286 
L 338.439968 266.626994 
L 338.694256 266.007702 
L 338.948544 265.38841 
L 339.202832 264.769118 
L 339.45712 264.149826 
L 339.711408 263.530535 
L 339.965696 262.911243 
L 340.219985 262.291951 
L 340.474273 261.672659 
" clip-path="url(#pfb49f023c1)" style="fill: none; stroke: #000000; stroke-width: 1.5; stroke-linecap: square"/>
   </g>
   <g id="line2d_24">
    <path d="M 315.348371 256.705428 
L 315.869057 256.707855 
L 316.389708 256.714373 
L 316.910291 256.724981 
L 317.430775 256.739679 
L 317.951128 256.758465 
L 318.471317 256.781338 
L 318.99131 256.808298 
L 319.511075 256.839342 
L 320.030581 256.874468 
L 320.549794 256.913675 
L 321.068683 256.956959 
L 321.587217 257.004319 
L 322.105362 257.05575 
L 322.623087 257.111251 
L 323.14036 257.170818 
L 323.657149 257.234446 
L 324.173423 257.302133 
L 324.689148 257.373873 
L 325.204294 257.449663 
L 325.718829 257.529498 
L 326.232721 257.613372 
L 326.745938 257.701281 
L 327.258448 257.79322 
L 327.770221 257.889181 
L 328.281224 257.989161 
L 328.791425 258.093152 
L 329.300794 258.201148 
L 329.809298 258.313142 
L 330.316907 258.429128 
L 330.82359 258.549098 
L 331.329314 258.673045 
L 331.834048 258.800962 
L 332.337762 258.932839 
L 332.840425 259.06867 
L 333.342005 259.208446 
L 333.842471 259.352158 
L 334.341793 259.499797 
L 334.83994 259.651355 
L 335.33688 259.806821 
L 335.832584 259.966187 
L 336.327021 260.129442 
L 336.820159 260.296576 
L 337.31197 260.46758 
L 337.802421 260.642442 
L 338.291484 260.821151 
L 338.779128 261.003698 
L 339.265323 261.190069 
L 339.750038 261.380255 
L 340.233245 261.574243 
L 340.714912 261.772021 
L 341.195011 261.973577 
L 341.673511 262.178898 
L 342.150384 262.387972 
L 342.6256 262.600787 
L 343.099128 262.817328 
L 343.570942 263.037582 
L 344.04101 263.261537 
L 344.509304 263.489177 
L 344.975795 263.72049 
L 345.440455 263.95546 
L 345.903254 264.194074 
L 346.364165 264.436316 
L 346.823158 264.682171 
L 347.280206 264.931625 
L 347.735279 265.184662 
L 348.188351 265.441266 
L 348.639393 265.701421 
L 349.088377 265.965113 
L 349.535275 266.232323 
L 349.980061 266.503036 
L 350.422706 266.777235 
L 350.863183 267.054903 
L 351.301465 267.336023 
L 351.737525 267.620577 
L 352.171337 267.908549 
L 352.602872 268.199919 
L 353.032105 268.494671 
L 353.459009 268.792786 
L 353.883558 269.094246 
L 354.305725 269.399032 
L 354.725485 269.707125 
L 355.142812 270.018506 
L 355.557679 270.333156 
L 355.970062 270.651055 
L 356.379934 270.972185 
L 356.787271 271.296525 
L 357.192048 271.624055 
L 357.594238 271.954755 
L 357.993818 272.288604 
L 358.390763 272.625582 
L 358.785049 272.965668 
L 359.17665 273.308842 
L 359.565544 273.655081 
L 359.951705 274.004365 
L 360.33511 274.356672 
L 360.715736 274.71198 
L 361.093558 275.070267 
L 361.468554 275.431512 
L 361.840701 275.795691 
" clip-path="url(#pfb49f023c1)" style="fill: none; stroke: #000000; stroke-width: 1.5; stroke-linecap: square"/>
   </g>
   <g id="patch_12">
    <path d="M 315.29975 253.692812 
C 306.200703 253.692812 297.190134 255.485126 288.783711 258.967181 
C 280.377288 262.449235 272.738495 267.553313 266.304498 273.98731 
C 259.8705 280.421308 254.766423 288.0601 251.284368 296.466523 
C 247.802314 304.872946 246.01 313.883516 246.01 322.982562 
C 246.01 332.081609 247.802314 341.092179 251.284368 349.498602 
C 254.766423 357.905025 259.8705 365.543817 266.304498 371.977815 
C 272.738495 378.411812 280.377288 383.51589 288.783711 386.997944 
C 297.190134 390.479999 306.200703 392.272312 315.29975 392.272312 
C 324.398797 392.272312 333.409366 390.479999 341.815789 386.997944 
C 350.222212 383.51589 357.861005 378.411812 364.295002 371.977815 
C 370.729 365.543817 375.833077 357.905025 379.315132 349.498602 
C 382.797186 341.092179 384.5895 332.081609 384.5895 322.982562 
C 384.5895 313.883516 382.797186 304.872946 379.315132 296.466523 
C 375.833077 288.0601 370.729 280.421308 364.295002 273.98731 
C 357.861005 267.553313 350.222212 262.449235 341.815789 258.967181 
C 333.409366 255.485126 324.398797 253.692812 315.29975 253.692812 
" style="fill: none; stroke: #000000; stroke-width: 0.8; stroke-linejoin: miter; stroke-linecap: square"/>
   </g>
   <g id="text_23">
    <g id="patch_13">
     <path d="M 284.49975 346.889437 
L 346.09975 346.889437 
L 346.09975 299.075687 
L 284.49975 299.075687 
z
" style="fill: #ffffff; stroke: #000000; stroke-linejoin: miter"/>
    </g>
    <!-- $\mu$ = 22.32$^\degree$ -->
    <g transform="translate(288.49975 309.675687)">
     <text>
      <tspan style="font: oblique 10px 'DejaVu Sans'" x="0" y="-0.9765625">μ</tspan>
      <tspan style="font: 10px 'DejaVu Sans'" x="6.362305 9.541016 17.919922 21.098633 27.460938 33.823242 37.001953 43.364258" y="-0.9765625"> = 22.32</tspan>
      <tspan style="font: 7px 'DejaVu Sans'" x="49.822266" y="-4.8046875">°</tspan>
     </text>
    </g>
    <!-- $s0$ = 87.87$^\degree$ -->
    <g transform="translate(285.99975 320.893812)">
     <text>
      <tspan style="font: oblique 10px 'DejaVu Sans'" x="0" y="-0.9765625">s</tspan>
      <tspan style="font: 10px 'DejaVu Sans'" x="5.209961 11.572266 14.750977 23.129883 26.308594 32.670898 39.033203 41.961914 48.324219" y="-0.9765625">0 = 87.87</tspan>
      <tspan style="font: 7px 'DejaVu Sans'" x="54.782227" y="-4.8046875">°</tspan>
     </text>
    </g>
    <!-- $V = 0.29$ -->
    <g transform="translate(294.94975 332.091625)">
     <text>
      <tspan style="font: oblique 10px 'DejaVu Sans'" x="0" y="-0.578125">V</tspan>
      <tspan style="font: 10px 'DejaVu Sans'" x="8.789062 19.116211 25.478516 28.157227 34.394531" y="-0.578125">=0.29</tspan>
     </text>
    </g>
    <!-- $p$ &lt; 0.01 -->
    <g transform="translate(293.59975 343.289437)">
     <text>
      <tspan style="font: oblique 10px 'DejaVu Sans'" x="0" y="-0.578125">p</tspan>
      <tspan style="font: 10px 'DejaVu Sans'" x="6.347656 9.526367 17.905273 21.083984 27.446289 30.625 36.987305" y="-0.578125"> &lt; 0.01</tspan>
     </text>
    </g>
   </g>
   <g id="text_24">
    <text style="font: 12px 'DejaVu Sans', 'Bitstream Vera Sans', 'Computer Modern Sans Serif', 'Lucida Grande', 'Verdana', 'Geneva', 'Lucid', 'Arial', 'Helvetica', 'Avant Garde', sans-serif; text-anchor: middle" x="315.29975" y="226.918125" transform="rotate(-0 315.29975 226.918125)">D) Dacke et al. (2019)</text>
   </g>
  </g>
 </g>
 <defs>
  <clipPath id="p53a50b1e65">
   <path d="M 173.9895 112.382562 
C 173.9895 103.283516 172.197186 94.272946 168.715132 85.866523 
C 165.233077 77.4601 160.129 69.821308 153.695002 63.38731 
C 147.261005 56.953313 139.622212 51.849235 131.215789 48.367181 
C 122.809366 44.885126 113.798797 43.092813 104.69975 43.092813 
C 95.600703 43.092813 86.590134 44.885126 78.183711 48.367181 
C 69.777288 51.849235 62.138495 56.953313 55.704498 63.38731 
C 49.2705 69.821308 44.166423 77.4601 40.684368 85.866523 
C 37.202314 94.272946 35.41 103.283516 35.41 112.382562 
C 35.41 121.481609 37.202314 130.492179 40.684368 138.898602 
C 44.166423 147.305025 49.2705 154.943817 55.704498 161.377815 
C 62.138495 167.811812 69.777288 172.91589 78.183711 176.397944 
C 86.590134 179.879999 95.600703 181.672312 104.69975 181.672312 
C 113.798797 181.672312 122.809366 179.879999 131.215789 176.397944 
C 139.622212 172.91589 147.261005 167.811812 153.695002 161.377815 
C 160.129 154.943817 165.233077 147.305025 168.715132 138.898602 
C 172.197186 130.492179 173.9895 121.481609 173.9895 112.382563 
M 104.69975 112.382562 
C 104.69975 112.382562 104.69975 112.382562 104.69975 112.382562 
C 104.69975 112.382562 104.69975 112.382562 104.69975 112.382562 
C 104.69975 112.382562 104.69975 112.382562 104.69975 112.382562 
C 104.69975 112.382562 104.69975 112.382562 104.69975 112.382562 
C 104.69975 112.382562 104.69975 112.382562 104.69975 112.382562 
C 104.69975 112.382562 104.69975 112.382562 104.69975 112.382562 
C 104.69975 112.382562 104.69975 112.382562 104.69975 112.382562 
C 104.69975 112.382562 104.69975 112.382562 104.69975 112.382562 
C 104.69975 112.382562 104.69975 112.382562 104.69975 112.382562 
C 104.69975 112.382562 104.69975 112.382562 104.69975 112.382562 
C 104.69975 112.382562 104.69975 112.382562 104.69975 112.382562 
C 104.69975 112.382562 104.69975 112.382562 104.69975 112.382562 
C 104.69975 112.382562 104.69975 112.382562 104.69975 112.382562 
C 104.69975 112.382562 104.69975 112.382562 104.69975 112.382562 
C 104.69975 112.382562 104.69975 112.382562 104.69975 112.382562 
C 104.69975 112.382562 104.69975 112.382562 104.69975 112.382562 
z
"/>
  </clipPath>
  <clipPath id="p5aecbcb65c">
   <path d="M 384.5895 112.382562 
C 384.5895 103.283516 382.797186 94.272946 379.315132 85.866523 
C 375.833077 77.4601 370.729 69.821308 364.295002 63.38731 
C 357.861005 56.953313 350.222212 51.849235 341.815789 48.367181 
C 333.409366 44.885126 324.398797 43.092813 315.29975 43.092813 
C 306.200703 43.092813 297.190134 44.885126 288.783711 48.367181 
C 280.377288 51.849235 272.738495 56.953313 266.304498 63.38731 
C 259.8705 69.821308 254.766423 77.4601 251.284368 85.866523 
C 247.802314 94.272946 246.01 103.283516 246.01 112.382562 
C 246.01 121.481609 247.802314 130.492179 251.284368 138.898602 
C 254.766423 147.305025 259.8705 154.943817 266.304498 161.377815 
C 272.738495 167.811812 280.377288 172.91589 288.783711 176.397944 
C 297.190134 179.879999 306.200703 181.672312 315.29975 181.672312 
C 324.398797 181.672312 333.409366 179.879999 341.815789 176.397944 
C 350.222212 172.91589 357.861005 167.811812 364.295002 161.377815 
C 370.729 154.943817 375.833077 147.305025 379.315132 138.898602 
C 382.797186 130.492179 384.5895 121.481609 384.5895 112.382563 
M 315.29975 112.382562 
C 315.29975 112.382562 315.29975 112.382562 315.29975 112.382562 
C 315.29975 112.382562 315.29975 112.382562 315.29975 112.382562 
C 315.29975 112.382562 315.29975 112.382562 315.29975 112.382562 
C 315.29975 112.382562 315.29975 112.382562 315.29975 112.382562 
C 315.29975 112.382562 315.29975 112.382562 315.29975 112.382562 
C 315.29975 112.382562 315.29975 112.382562 315.29975 112.382562 
C 315.29975 112.382562 315.29975 112.382562 315.29975 112.382562 
C 315.29975 112.382562 315.29975 112.382562 315.29975 112.382562 
C 315.29975 112.382562 315.29975 112.382562 315.29975 112.382562 
C 315.29975 112.382562 315.29975 112.382562 315.29975 112.382562 
C 315.29975 112.382562 315.29975 112.382562 315.29975 112.382562 
C 315.29975 112.382562 315.29975 112.382562 315.29975 112.382562 
C 315.29975 112.382562 315.29975 112.382562 315.29975 112.382562 
C 315.29975 112.382562 315.29975 112.382562 315.29975 112.382562 
C 315.29975 112.382562 315.29975 112.382562 315.29975 112.382562 
C 315.29975 112.382562 315.29975 112.382562 315.29975 112.382562 
z
"/>
  </clipPath>
  <clipPath id="p959b2c901d">
   <path d="M 173.9895 322.982562 
C 173.9895 313.883516 172.197186 304.872946 168.715132 296.466523 
C 165.233077 288.0601 160.129 280.421308 153.695002 273.98731 
C 147.261005 267.553313 139.622212 262.449235 131.215789 258.967181 
C 122.809366 255.485126 113.798797 253.692812 104.69975 253.692812 
C 95.600703 253.692812 86.590134 255.485126 78.183711 258.967181 
C 69.777288 262.449235 62.138495 267.553313 55.704498 273.98731 
C 49.2705 280.421308 44.166423 288.0601 40.684368 296.466523 
C 37.202314 304.872946 35.41 313.883516 35.41 322.982562 
C 35.41 332.081609 37.202314 341.092179 40.684368 349.498602 
C 44.166423 357.905025 49.2705 365.543817 55.704498 371.977815 
C 62.138495 378.411812 69.777288 383.51589 78.183711 386.997944 
C 86.590134 390.479999 95.600703 392.272312 104.69975 392.272312 
C 113.798797 392.272312 122.809366 390.479999 131.215789 386.997944 
C 139.622212 383.51589 147.261005 378.411812 153.695002 371.977815 
C 160.129 365.543817 165.233077 357.905025 168.715132 349.498602 
C 172.197186 341.092179 173.9895 332.081609 173.9895 322.982562 
M 104.69975 322.982562 
C 104.69975 322.982562 104.69975 322.982562 104.69975 322.982562 
C 104.69975 322.982562 104.69975 322.982562 104.69975 322.982562 
C 104.69975 322.982562 104.69975 322.982562 104.69975 322.982562 
C 104.69975 322.982562 104.69975 322.982562 104.69975 322.982562 
C 104.69975 322.982562 104.69975 322.982562 104.69975 322.982562 
C 104.69975 322.982562 104.69975 322.982562 104.69975 322.982562 
C 104.69975 322.982562 104.69975 322.982562 104.69975 322.982562 
C 104.69975 322.982562 104.69975 322.982562 104.69975 322.982562 
C 104.69975 322.982562 104.69975 322.982562 104.69975 322.982562 
C 104.69975 322.982562 104.69975 322.982562 104.69975 322.982562 
C 104.69975 322.982562 104.69975 322.982562 104.69975 322.982562 
C 104.69975 322.982562 104.69975 322.982562 104.69975 322.982562 
C 104.69975 322.982562 104.69975 322.982562 104.69975 322.982562 
C 104.69975 322.982562 104.69975 322.982562 104.69975 322.982562 
C 104.69975 322.982562 104.69975 322.982562 104.69975 322.982562 
C 104.69975 322.982562 104.69975 322.982562 104.69975 322.982562 
z
"/>
  </clipPath>
  <clipPath id="pfb49f023c1">
   <path d="M 384.5895 322.982562 
C 384.5895 313.883516 382.797186 304.872946 379.315132 296.466523 
C 375.833077 288.0601 370.729 280.421308 364.295002 273.98731 
C 357.861005 267.553313 350.222212 262.449235 341.815789 258.967181 
C 333.409366 255.485126 324.398797 253.692812 315.29975 253.692812 
C 306.200703 253.692812 297.190134 255.485126 288.783711 258.967181 
C 280.377288 262.449235 272.738495 267.553313 266.304498 273.98731 
C 259.8705 280.421308 254.766423 288.0601 251.284368 296.466523 
C 247.802314 304.872946 246.01 313.883516 246.01 322.982562 
C 246.01 332.081609 247.802314 341.092179 251.284368 349.498602 
C 254.766423 357.905025 259.8705 365.543817 266.304498 371.977815 
C 272.738495 378.411812 280.377288 383.51589 288.783711 386.997944 
C 297.190134 390.479999 306.200703 392.272312 315.29975 392.272312 
C 324.398797 392.272312 333.409366 390.479999 341.815789 386.997944 
C 350.222212 383.51589 357.861005 378.411812 364.295002 371.977815 
C 370.729 365.543817 375.833077 357.905025 379.315132 349.498602 
C 382.797186 341.092179 384.5895 332.081609 384.5895 322.982562 
M 315.29975 322.982562 
C 315.29975 322.982562 315.29975 322.982562 315.29975 322.982562 
C 315.29975 322.982562 315.29975 322.982562 315.29975 322.982562 
C 315.29975 322.982562 315.29975 322.982562 315.29975 322.982562 
C 315.29975 322.982562 315.29975 322.982562 315.29975 322.982562 
C 315.29975 322.982562 315.29975 322.982562 315.29975 322.982562 
C 315.29975 322.982562 315.29975 322.982562 315.29975 322.982562 
C 315.29975 322.982562 315.29975 322.982562 315.29975 322.982562 
C 315.29975 322.982562 315.29975 322.982562 315.29975 322.982562 
C 315.29975 322.982562 315.29975 322.982562 315.29975 322.982562 
C 315.29975 322.982562 315.29975 322.982562 315.29975 322.982562 
C 315.29975 322.982562 315.29975 322.982562 315.29975 322.982562 
C 315.29975 322.982562 315.29975 322.982562 315.29975 322.982562 
C 315.29975 322.982562 315.29975 322.982562 315.29975 322.982562 
C 315.29975 322.982562 315.29975 322.982562 315.29975 322.982562 
C 315.29975 322.982562 315.29975 322.982562 315.29975 322.982562 
C 315.29975 322.982562 315.29975 322.982562 315.29975 322.982562 
z
"/>
  </clipPath>
 </defs>
</svg>
