<?xml version="1.0" encoding="utf-8" standalone="no"?>
<!DOCTYPE svg PUBLIC "-//W3C//DTD SVG 1.1//EN"
  "http://www.w3.org/Graphics/SVG/1.1/DTD/svg11.dtd">
<svg xmlns:xlink="http://www.w3.org/1999/xlink" width="417.4095pt" height="420.247pt" viewBox="0 0 417.4095 420.247" xmlns="http://www.w3.org/2000/svg" version="1.1">
 <metadata>
  <rdf:RDF xmlns:dc="http://purl.org/dc/elements/1.1/" xmlns:cc="http://creativecommons.org/ns#" xmlns:rdf="http://www.w3.org/1999/02/22-rdf-syntax-ns#">
   <cc:Work>
    <dc:type rdf:resource="http://purl.org/dc/dcmitype/StillImage"/>
    <dc:date>2025-03-10T14:44:40.447218</dc:date>
    <dc:format>image/svg+xml</dc:format>
    <dc:creator>
     <cc:Agent>
      <dc:title>Matplotlib v3.7.5, https://matplotlib.org/</dc:title>
     </cc:Agent>
    </dc:creator>
   </cc:Work>
  </rdf:RDF>
 </metadata>
 <defs>
  <style type="text/css">*{stroke-linejoin: round; stroke-linecap: butt}</style>
 </defs>
 <g id="figure_1">
  <g id="patch_1">
   <path d="M 0 420.247 
L 417.4095 420.247 
L 417.4095 0 
L 0 0 
z
" style="fill: #ffffff"/>
  </g>
  <g id="axes_1">
   <g id="patch_2">
    <path d="M 173.9895 112.382562 
C 173.9895 103.283516 172.197186 94.272946 168.715132 85.866523 
C 165.233077 77.4601 160.129 69.821308 153.695002 63.38731 
C 147.261005 56.953313 139.622212 51.849235 131.215789 48.367181 
C 122.809366 44.885126 113.798797 43.092813 104.69975 43.092813 
C 95.600703 43.092813 86.590134 44.885126 78.183711 48.367181 
C 69.777288 51.849235 62.138495 56.953313 55.704498 63.38731 
C 49.2705 69.821308 44.166423 77.4601 40.684368 85.866523 
C 37.202314 94.272946 35.41 103.283516 35.41 112.382562 
C 35.41 121.481609 37.202314 130.492179 40.684368 138.898602 
C 44.166423 147.305025 49.2705 154.943817 55.704498 161.377815 
C 62.138495 167.811812 69.777288 172.91589 78.183711 176.397944 
C 86.590134 179.879999 95.600703 181.672312 104.69975 181.672312 
C 113.798797 181.672312 122.809366 179.879999 131.215789 176.397944 
C 139.622212 172.91589 147.261005 167.811812 153.695002 161.377815 
C 160.129 154.943817 165.233077 147.305025 168.715132 138.898602 
C 172.197186 130.492179 173.9895 121.481609 173.9895 112.382563 
M 104.69975 112.382562 
C 104.69975 112.382562 104.69975 112.382562 104.69975 112.382562 
C 104.69975 112.382562 104.69975 112.382562 104.69975 112.382562 
C 104.69975 112.382562 104.69975 112.382562 104.69975 112.382562 
C 104.69975 112.382562 104.69975 112.382562 104.69975 112.382562 
C 104.69975 112.382562 104.69975 112.382562 104.69975 112.382562 
C 104.69975 112.382562 104.69975 112.382562 104.69975 112.382562 
C 104.69975 112.382562 104.69975 112.382562 104.69975 112.382562 
C 104.69975 112.382562 104.69975 112.382562 104.69975 112.382562 
C 104.69975 112.382562 104.69975 112.382562 104.69975 112.382562 
C 104.69975 112.382562 104.69975 112.382562 104.69975 112.382562 
C 104.69975 112.382562 104.69975 112.382562 104.69975 112.382562 
C 104.69975 112.382562 104.69975 112.382562 104.69975 112.382562 
C 104.69975 112.382562 104.69975 112.382562 104.69975 112.382562 
C 104.69975 112.382562 104.69975 112.382562 104.69975 112.382562 
C 104.69975 112.382562 104.69975 112.382562 104.69975 112.382562 
C 104.69975 112.382562 104.69975 112.382562 104.69975 112.382562 
z
" style="fill: #ffffff"/>
   </g>
   <g id="PathCollection_1">
    <defs>
     <path id="m6b870648dc" d="M 0 2.738613 
C 0.726289 2.738613 1.422928 2.450055 1.936492 1.936492 
C 2.450055 1.422928 2.738613 0.726289 2.738613 0 
C 2.738613 -0.726289 2.450055 -1.422928 1.936492 -1.936492 
C 1.422928 -2.450055 0.726289 -2.738613 0 -2.738613 
C -0.726289 -2.738613 -1.422928 -2.450055 -1.936492 -1.936492 
C -2.450055 -1.422928 -2.738613 -0.726289 -2.738613 0 
C -2.738613 0.726289 -2.450055 1.422928 -1.936492 1.936492 
C -1.422928 2.450055 -0.726289 2.738613 0 2.738613 
z
" style="stroke: #000000"/>
    </defs>
    <g clip-path="url(#p9c8c4c1cd7)">
     <use xlink:href="#m6b870648dc" x="65.976618" y="66.221786" style="fill: #1f77b4; stroke: #000000"/>
     <use xlink:href="#m6b870648dc" x="70.183365" y="62.997166" style="fill: #1f77b4; stroke: #000000"/>
     <use xlink:href="#m6b870648dc" x="74.605021" y="60.184808" style="fill: #1f77b4; stroke: #000000"/>
     <use xlink:href="#m6b870648dc" x="77.614494" y="65.404584" style="fill: #1f77b4; stroke: #000000"/>
     <use xlink:href="#m6b870648dc" x="94.268731" y="53.040401" style="fill: #1f77b4; stroke: #000000"/>
     <use xlink:href="#m6b870648dc" x="104.69975" y="52.130606" style="fill: #1f77b4; stroke: #000000"/>
     <use xlink:href="#m6b870648dc" x="104.69975" y="58.155802" style="fill: #1f77b4; stroke: #000000"/>
     <use xlink:href="#m6b870648dc" x="115.130769" y="53.040401" style="fill: #1f77b4; stroke: #000000"/>
     <use xlink:href="#m6b870648dc" x="114.087667" y="58.974617" style="fill: #1f77b4; stroke: #000000"/>
     <use xlink:href="#m6b870648dc" x="113.044565" y="64.908833" style="fill: #1f77b4; stroke: #000000"/>
     <use xlink:href="#m6b870648dc" x="130.145179" y="57.767286" style="fill: #1f77b4; stroke: #000000"/>
     <use xlink:href="#m6b870648dc" x="127.600636" y="63.228814" style="fill: #1f77b4; stroke: #000000"/>
     <use xlink:href="#m6b870648dc" x="134.794479" y="60.184808" style="fill: #1f77b4; stroke: #000000"/>
     <use xlink:href="#m6b870648dc" x="139.216135" y="62.997166" style="fill: #1f77b4; stroke: #000000"/>
     <use xlink:href="#m6b870648dc" x="135.764497" y="67.935705" style="fill: #1f77b4; stroke: #000000"/>
     <use xlink:href="#m6b870648dc" x="143.422882" y="66.221786" style="fill: #1f77b4; stroke: #000000"/>
     <use xlink:href="#m6b870648dc" x="147.28735" y="69.761035" style="fill: #1f77b4; stroke: #000000"/>
     <use xlink:href="#m6b870648dc" x="150.829676" y="73.622684" style="fill: #1f77b4; stroke: #000000"/>
     <use xlink:href="#m6b870648dc" x="154.023064" y="77.777521" style="fill: #1f77b4; stroke: #000000"/>
     <use xlink:href="#m6b870648dc" x="156.873523" y="82.246277" style="fill: #1f77b4; stroke: #000000"/>
    </g>
   </g>
   <g id="matplotlib.axis_1">
    <g id="xtick_1">
     <g id="line2d_1">
      <path d="M 104.69975 112.382563 
L 104.69975 43.092813 
" clip-path="url(#p9c8c4c1cd7)" style="fill: none; stroke: #b0b0b0; stroke-width: 0.8; stroke-linecap: square"/>
     </g>
     <g id="text_1">
      <!-- 0$^\degree$ -->
      <g transform="translate(97.48975 32.955938)">
       <text>
        <tspan style="font: 14px 'DejaVu Sans'" x="0" y="-0.3671875">0</tspan>
        <tspan style="font: 9.8px 'DejaVu Sans'" x="9.041211" y="-5.7265625">°</tspan>
       </text>
      </g>
     </g>
    </g>
    <g id="xtick_2">
     <g id="line2d_2">
      <path d="M 104.69975 112.382563 
L 173.9895 112.382563 
" clip-path="url(#p9c8c4c1cd7)" style="fill: none; stroke: #b0b0b0; stroke-width: 0.8; stroke-linecap: square"/>
     </g>
     <g id="text_2">
      <!-- 90$^\degree$ -->
      <g transform="translate(176.3695 116.245688)">
       <text>
        <tspan style="font: 14px 'DejaVu Sans'" x="0 8.907227" y="-0.3671875">90</tspan>
        <tspan style="font: 9.8px 'DejaVu Sans'" x="17.948438" y="-5.7265625">°</tspan>
       </text>
      </g>
     </g>
    </g>
    <g id="xtick_3">
     <g id="line2d_3">
      <path d="M 104.69975 112.382563 
L 104.69975 181.672312 
" clip-path="url(#p9c8c4c1cd7)" style="fill: none; stroke: #b0b0b0; stroke-width: 0.8; stroke-linecap: square"/>
     </g>
     <g id="text_3">
      <!-- 180$^\degree$ -->
      <g transform="translate(88.59975 199.535437)">
       <text>
        <tspan style="font: 14px 'DejaVu Sans'" x="0 8.907227 17.814453" y="-0.3671875">180</tspan>
        <tspan style="font: 9.8px 'DejaVu Sans'" x="26.855664" y="-5.7265625">°</tspan>
       </text>
      </g>
     </g>
    </g>
    <g id="xtick_4">
     <g id="line2d_4">
      <path d="M 104.69975 112.382563 
L 35.41 112.382563 
" clip-path="url(#p9c8c4c1cd7)" style="fill: none; stroke: #b0b0b0; stroke-width: 0.8; stroke-linecap: square"/>
     </g>
     <g id="text_4">
      <!-- -90$^\degree$ -->
      <g transform="translate(7.2 116.245688)">
       <text>
        <tspan style="font: 14px 'DejaVu Sans'" x="0 5.051758 13.958984" y="-0.3671875">-90</tspan>
        <tspan style="font: 9.8px 'DejaVu Sans'" x="23.000195" y="-5.7265625">°</tspan>
       </text>
      </g>
     </g>
    </g>
   </g>
   <g id="matplotlib.axis_2"/>
   <g id="line2d_5">
    <path d="M 104.69975 112.382563 
L 104.870437 111.735221 
L 105.041124 111.08788 
L 105.211812 110.440538 
L 105.382499 109.793197 
L 105.553186 109.145856 
L 105.723873 108.498514 
L 105.89456 107.851173 
L 106.065248 107.203832 
L 106.235935 106.55649 
L 106.406622 105.909149 
L 106.577309 105.261807 
L 106.747996 104.614466 
L 106.918683 103.967125 
L 107.089371 103.319783 
L 107.260058 102.672442 
L 107.430745 102.025101 
L 107.601432 101.377759 
L 107.772119 100.730418 
L 107.942807 100.083076 
L 108.113494 99.435735 
L 108.284181 98.788394 
L 108.454868 98.141052 
L 108.625555 97.493711 
L 108.796243 96.84637 
L 108.96693 96.199028 
L 109.137617 95.551687 
L 109.308304 94.904345 
L 109.478991 94.257004 
L 109.649678 93.609663 
L 109.820366 92.962321 
L 109.991053 92.31498 
L 110.16174 91.667639 
L 110.332427 91.020297 
L 110.503114 90.372956 
L 110.673802 89.725614 
L 110.844489 89.078273 
L 111.015176 88.430932 
L 111.185863 87.78359 
L 111.35655 87.136249 
L 111.527238 86.488908 
L 111.697925 85.841566 
L 111.868612 85.194225 
L 112.039299 84.546883 
L 112.209986 83.899542 
L 112.380673 83.252201 
L 112.551361 82.604859 
L 112.722048 81.957518 
L 112.892735 81.310177 
L 113.063422 80.662835 
L 113.234109 80.015494 
L 113.404797 79.368152 
L 113.575484 78.720811 
L 113.746171 78.07347 
L 113.916858 77.426128 
L 114.087545 76.778787 
L 114.258233 76.131446 
L 114.42892 75.484104 
L 114.599607 74.836763 
L 114.770294 74.189421 
L 114.940981 73.54208 
L 115.111668 72.894739 
L 115.282356 72.247397 
L 115.453043 71.600056 
L 115.62373 70.952715 
L 115.794417 70.305373 
L 115.965104 69.658032 
L 116.135792 69.01069 
L 116.306479 68.363349 
L 116.477166 67.716008 
L 116.647853 67.068666 
L 116.81854 66.421325 
L 116.989228 65.773984 
L 117.159915 65.126642 
L 117.330602 64.479301 
L 117.501289 63.831959 
L 117.671976 63.184618 
L 117.842663 62.537277 
L 118.013351 61.889935 
L 118.184038 61.242594 
L 118.354725 60.595253 
L 118.525412 59.947911 
L 118.696099 59.30057 
L 118.866787 58.653228 
L 119.037474 58.005887 
L 119.208161 57.358546 
L 119.378848 56.711204 
L 119.549535 56.063863 
L 119.720223 55.416522 
L 119.89091 54.76918 
L 120.061597 54.121839 
L 120.232284 53.474497 
L 120.402971 52.827156 
L 120.573658 52.179815 
L 120.744346 51.532473 
L 120.915033 50.885132 
L 121.08572 50.237791 
L 121.256407 49.590449 
L 121.427094 48.943108 
L 121.597782 48.295766 
" clip-path="url(#p9c8c4c1cd7)" style="fill: none; stroke: #000000; stroke-width: 1.5; stroke-linecap: square"/>
   </g>
   <g id="line2d_6">
    <path d="M 112.04198 46.513355 
L 112.23729 46.535418 
L 112.432534 46.558061 
L 112.62771 46.581283 
L 112.822816 46.605084 
L 113.017851 46.629463 
L 113.212812 46.65442 
L 113.407699 46.679956 
L 113.602509 46.706069 
L 113.797241 46.73276 
L 113.991892 46.760028 
L 114.186462 46.787874 
L 114.380949 46.816296 
L 114.57535 46.845295 
L 114.769665 46.87487 
L 114.963891 46.905022 
L 115.158026 46.935749 
L 115.35207 46.967052 
L 115.54602 46.998931 
L 115.739875 47.031384 
L 115.933632 47.064412 
L 116.127291 47.098015 
L 116.320849 47.132191 
L 116.514305 47.166942 
L 116.707658 47.202266 
L 116.900904 47.238163 
L 117.094043 47.274634 
L 117.287074 47.311677 
L 117.479993 47.349292 
L 117.6728 47.387479 
L 117.865493 47.426238 
L 118.05807 47.465568 
L 118.25053 47.505469 
L 118.442871 47.545941 
L 118.63509 47.586983 
L 118.827188 47.628594 
L 119.01916 47.670775 
L 119.211007 47.713526 
L 119.402727 47.756845 
L 119.594317 47.800732 
L 119.785776 47.845188 
L 119.977102 47.890211 
L 120.168294 47.935801 
L 120.35935 47.981958 
L 120.550268 48.028682 
L 120.741047 48.075971 
L 120.931685 48.123826 
L 121.12218 48.172246 
L 121.31253 48.221231 
L 121.502735 48.27078 
L 121.692791 48.320893 
L 121.882699 48.37157 
L 122.072455 48.422809 
L 122.262058 48.474611 
L 122.451507 48.526975 
L 122.640799 48.579901 
L 122.829934 48.633387 
L 123.01891 48.687435 
L 123.207724 48.742042 
L 123.396376 48.79721 
L 123.584863 48.852936 
L 123.773184 48.909221 
L 123.961337 48.966065 
L 124.149321 49.023466 
L 124.337134 49.081425 
L 124.524774 49.13994 
L 124.71224 49.199011 
L 124.89953 49.258638 
L 125.086642 49.318821 
L 125.273575 49.379557 
L 125.460326 49.440848 
L 125.646896 49.502693 
L 125.833281 49.565091 
L 126.01948 49.628041 
L 126.205492 49.691543 
L 126.391314 49.755596 
L 126.576946 49.8202 
L 126.762385 49.885354 
L 126.947631 49.951058 
L 127.13268 50.017311 
L 127.317533 50.084113 
L 127.502186 50.151462 
L 127.686639 50.219359 
L 127.87089 50.287803 
L 128.054937 50.356792 
L 128.238778 50.426328 
L 128.422413 50.496408 
L 128.605839 50.567032 
L 128.789054 50.6382 
L 128.972058 50.709911 
L 129.154848 50.782164 
L 129.337423 50.854959 
L 129.519782 50.928296 
L 129.701922 51.002172 
L 129.883843 51.076589 
L 130.065541 51.151545 
L 130.247017 51.227039 
L 130.428268 51.303071 
L 130.609293 51.379641 
L 130.79009 51.456746 
" clip-path="url(#p9c8c4c1cd7)" style="fill: none; stroke: #000000; stroke-width: 1.5; stroke-linecap: square"/>
   </g>
   <g id="patch_3">
    <path d="M 104.69975 43.092813 
C 95.600703 43.092813 86.590134 44.885126 78.183711 48.367181 
C 69.777288 51.849235 62.138495 56.953313 55.704498 63.38731 
C 49.2705 69.821308 44.166423 77.4601 40.684368 85.866523 
C 37.202314 94.272946 35.41 103.283516 35.41 112.382563 
C 35.41 121.481609 37.202314 130.492179 40.684368 138.898602 
C 44.166423 147.305025 49.2705 154.943817 55.704498 161.377815 
C 62.138495 167.811812 69.777288 172.91589 78.183711 176.397944 
C 86.590134 179.879999 95.600703 181.672312 104.69975 181.672312 
C 113.798797 181.672312 122.809366 179.879999 131.215789 176.397944 
C 139.622212 172.91589 147.261005 167.811812 153.695002 161.377815 
C 160.129 154.943817 165.233077 147.305025 168.715132 138.898602 
C 172.197186 130.492179 173.9895 121.481609 173.9895 112.382563 
C 173.9895 103.283516 172.197186 94.272946 168.715132 85.866523 
C 165.233077 77.4601 160.129 69.821308 153.695002 63.38731 
C 147.261005 56.953313 139.622212 51.849235 131.215789 48.367181 
C 122.809366 44.885126 113.798797 43.092813 104.69975 43.092813 
" style="fill: none; stroke: #000000; stroke-width: 0.8; stroke-linejoin: miter; stroke-linecap: square"/>
   </g>
   <g id="text_5">
    <g id="patch_4">
     <path d="M 73.74975 136.289438 
L 135.64975 136.289438 
L 135.64975 88.475688 
L 73.74975 88.475688 
z
" style="fill: #ffffff; stroke: #000000; stroke-linejoin: miter"/>
    </g>
    <!-- $\mu$ = 14.77$^\degree$ -->
    <g transform="translate(78.34975 99.075688)">
     <text>
      <tspan style="font: oblique 10px 'DejaVu Sans'" x="0" y="-0.9765625">μ</tspan>
      <tspan style="font: 10px 'DejaVu Sans'" x="6.362305 9.541016 17.919922 21.098633 27.460938 33.823242 36.251953 42.489258" y="-0.9765625"> = 14.77</tspan>
      <tspan style="font: 7px 'DejaVu Sans'" x="48.947266" y="-4.8046875">°</tspan>
     </text>
    </g>
    <!-- $s0$ = 30.60$^\degree$ -->
    <g transform="translate(75.24975 110.293813)">
     <text>
      <tspan style="font: oblique 10px 'DejaVu Sans'" x="0" y="-0.9765625">s</tspan>
      <tspan style="font: 10px 'DejaVu Sans'" x="5.209961 11.572266 14.750977 23.129883 26.308594 32.670898 39.033203 42.211914 48.574219" y="-0.9765625">0 = 30.60</tspan>
      <tspan style="font: 7px 'DejaVu Sans'" x="55.032227" y="-4.8046875">°</tspan>
     </text>
    </g>
    <!-- $V = 0.84$ -->
    <g transform="translate(84.09975 121.491625)">
     <text>
      <tspan style="font: oblique 10px 'DejaVu Sans'" x="0" y="-0.578125">V</tspan>
      <tspan style="font: 10px 'DejaVu Sans'" x="8.789062 19.116211 25.478516 28.407227 34.769531" y="-0.578125">=0.84</tspan>
     </text>
    </g>
    <!-- $p$ &lt; 1e-06 -->
    <g transform="translate(79.69975 132.689437)">
     <text>
      <tspan style="font: oblique 10px 'DejaVu Sans'" x="0" y="-0.578125">p</tspan>
      <tspan style="font: 10px 'DejaVu Sans'" x="6.347656 9.526367 17.905273 21.083984 27.446289 33.598633 37.207031 43.569336" y="-0.578125"> &lt; 1e-06</tspan>
     </text>
    </g>
   </g>
   <g id="text_6">
    <!-- A) Exit 1 $\rightarrow$ Exit 2 -->
    <g transform="translate(50.93975 16.318125)">
     <text>
      <tspan style="font: 12px 'DejaVu Sans'" x="0 8.208984 12.890625 16.705078 24.287109 31.388672 34.722656 39.427734 43.242188 50.876953 57.029297 69.421875 73.236328 80.818359 87.919922 91.253906 95.958984 99.773438" y="-0.875">A) Exit 1 → Exit 2</tspan>
     </text>
    </g>
   </g>
  </g>
  <g id="axes_2">
   <g id="patch_5">
    <path d="M 384.5895 112.382562 
C 384.5895 103.283516 382.797186 94.272946 379.315132 85.866523 
C 375.833077 77.4601 370.729 69.821308 364.295002 63.38731 
C 357.861005 56.953313 350.222212 51.849235 341.815789 48.367181 
C 333.409366 44.885126 324.398797 43.092813 315.29975 43.092813 
C 306.200703 43.092813 297.190134 44.885126 288.783711 48.367181 
C 280.377288 51.849235 272.738495 56.953313 266.304498 63.38731 
C 259.8705 69.821308 254.766423 77.4601 251.284368 85.866523 
C 247.802314 94.272946 246.01 103.283516 246.01 112.382562 
C 246.01 121.481609 247.802314 130.492179 251.284368 138.898602 
C 254.766423 147.305025 259.8705 154.943817 266.304498 161.377815 
C 272.738495 167.811812 280.377288 172.91589 288.783711 176.397944 
C 297.190134 179.879999 306.200703 181.672312 315.29975 181.672312 
C 324.398797 181.672312 333.409366 179.879999 341.815789 176.397944 
C 350.222212 172.91589 357.861005 167.811812 364.295002 161.377815 
C 370.729 154.943817 375.833077 147.305025 379.315132 138.898602 
C 382.797186 130.492179 384.5895 121.481609 384.5895 112.382563 
M 315.29975 112.382562 
C 315.29975 112.382562 315.29975 112.382562 315.29975 112.382562 
C 315.29975 112.382562 315.29975 112.382562 315.29975 112.382562 
C 315.29975 112.382562 315.29975 112.382562 315.29975 112.382562 
C 315.29975 112.382562 315.29975 112.382562 315.29975 112.382562 
C 315.29975 112.382562 315.29975 112.382562 315.29975 112.382562 
C 315.29975 112.382562 315.29975 112.382562 315.29975 112.382562 
C 315.29975 112.382562 315.29975 112.382562 315.29975 112.382562 
C 315.29975 112.382562 315.29975 112.382562 315.29975 112.382562 
C 315.29975 112.382562 315.29975 112.382562 315.29975 112.382562 
C 315.29975 112.382562 315.29975 112.382562 315.29975 112.382562 
C 315.29975 112.382562 315.29975 112.382562 315.29975 112.382562 
C 315.29975 112.382562 315.29975 112.382562 315.29975 112.382562 
C 315.29975 112.382562 315.29975 112.382562 315.29975 112.382562 
C 315.29975 112.382562 315.29975 112.382562 315.29975 112.382562 
C 315.29975 112.382562 315.29975 112.382562 315.29975 112.382562 
C 315.29975 112.382562 315.29975 112.382562 315.29975 112.382562 
z
" style="fill: #ffffff"/>
   </g>
   <g id="PathCollection_2">
    <g clip-path="url(#p6c6531b822)">
     <use xlink:href="#m6b870648dc" x="276.576618" y="66.221786" style="fill: #1f77b4; stroke: #000000"/>
     <use xlink:href="#m6b870648dc" x="299.751925" y="54.171194" style="fill: #1f77b4; stroke: #000000"/>
     <use xlink:href="#m6b870648dc" x="301.306707" y="59.992331" style="fill: #1f77b4; stroke: #000000"/>
     <use xlink:href="#m6b870648dc" x="304.868731" y="53.040401" style="fill: #1f77b4; stroke: #000000"/>
     <use xlink:href="#m6b870648dc" x="310.06444" y="52.358486" style="fill: #1f77b4; stroke: #000000"/>
     <use xlink:href="#m6b870648dc" x="310.587971" y="58.360893" style="fill: #1f77b4; stroke: #000000"/>
     <use xlink:href="#m6b870648dc" x="315.29975" y="52.130606" style="fill: #1f77b4; stroke: #000000"/>
     <use xlink:href="#m6b870648dc" x="325.730769" y="53.040401" style="fill: #1f77b4; stroke: #000000"/>
     <use xlink:href="#m6b870648dc" x="324.687667" y="58.974617" style="fill: #1f77b4; stroke: #000000"/>
     <use xlink:href="#m6b870648dc" x="323.644565" y="64.908833" style="fill: #1f77b4; stroke: #000000"/>
     <use xlink:href="#m6b870648dc" x="330.847575" y="54.171194" style="fill: #1f77b4; stroke: #000000"/>
     <use xlink:href="#m6b870648dc" x="335.903404" y="55.762887" style="fill: #1f77b4; stroke: #000000"/>
     <use xlink:href="#m6b870648dc" x="333.843039" y="61.424854" style="fill: #1f77b4; stroke: #000000"/>
     <use xlink:href="#m6b870648dc" x="340.745179" y="57.767286" style="fill: #1f77b4; stroke: #000000"/>
     <use xlink:href="#m6b870648dc" x="345.394479" y="60.184808" style="fill: #1f77b4; stroke: #000000"/>
     <use xlink:href="#m6b870648dc" x="342.385006" y="65.404584" style="fill: #1f77b4; stroke: #000000"/>
     <use xlink:href="#m6b870648dc" x="349.816135" y="62.997166" style="fill: #1f77b4; stroke: #000000"/>
     <use xlink:href="#m6b870648dc" x="346.364497" y="67.935705" style="fill: #1f77b4; stroke: #000000"/>
     <use xlink:href="#m6b870648dc" x="354.022882" y="66.221786" style="fill: #1f77b4; stroke: #000000"/>
     <use xlink:href="#m6b870648dc" x="350.150569" y="70.837863" style="fill: #1f77b4; stroke: #000000"/>
    </g>
   </g>
   <g id="matplotlib.axis_3">
    <g id="xtick_5">
     <g id="line2d_7">
      <path d="M 315.29975 112.382563 
L 315.29975 43.092813 
" clip-path="url(#p6c6531b822)" style="fill: none; stroke: #b0b0b0; stroke-width: 0.8; stroke-linecap: square"/>
     </g>
     <g id="text_7">
      <!-- 0$^\degree$ -->
      <g transform="translate(308.08975 32.955938)">
       <text>
        <tspan style="font: 14px 'DejaVu Sans'" x="0" y="-0.3671875">0</tspan>
        <tspan style="font: 9.8px 'DejaVu Sans'" x="9.041211" y="-5.7265625">°</tspan>
       </text>
      </g>
     </g>
    </g>
    <g id="xtick_6">
     <g id="line2d_8">
      <path d="M 315.29975 112.382563 
L 384.5895 112.382563 
" clip-path="url(#p6c6531b822)" style="fill: none; stroke: #b0b0b0; stroke-width: 0.8; stroke-linecap: square"/>
     </g>
     <g id="text_8">
      <!-- 90$^\degree$ -->
      <g transform="translate(386.9695 116.245688)">
       <text>
        <tspan style="font: 14px 'DejaVu Sans'" x="0 8.907227" y="-0.3671875">90</tspan>
        <tspan style="font: 9.8px 'DejaVu Sans'" x="17.948438" y="-5.7265625">°</tspan>
       </text>
      </g>
     </g>
    </g>
    <g id="xtick_7">
     <g id="line2d_9">
      <path d="M 315.29975 112.382563 
L 315.29975 181.672312 
" clip-path="url(#p6c6531b822)" style="fill: none; stroke: #b0b0b0; stroke-width: 0.8; stroke-linecap: square"/>
     </g>
     <g id="text_9">
      <!-- 180$^\degree$ -->
      <g transform="translate(299.19975 199.535437)">
       <text>
        <tspan style="font: 14px 'DejaVu Sans'" x="0 8.907227 17.814453" y="-0.3671875">180</tspan>
        <tspan style="font: 9.8px 'DejaVu Sans'" x="26.855664" y="-5.7265625">°</tspan>
       </text>
      </g>
     </g>
    </g>
    <g id="xtick_8">
     <g id="line2d_10">
      <path d="M 315.29975 112.382563 
L 246.01 112.382563 
" clip-path="url(#p6c6531b822)" style="fill: none; stroke: #b0b0b0; stroke-width: 0.8; stroke-linecap: square"/>
     </g>
     <g id="text_10">
      <!-- -90$^\degree$ -->
      <g transform="translate(217.8 116.245688)">
       <text>
        <tspan style="font: 14px 'DejaVu Sans'" x="0 5.051758 13.958984" y="-0.3671875">-90</tspan>
        <tspan style="font: 9.8px 'DejaVu Sans'" x="23.000195" y="-5.7265625">°</tspan>
       </text>
      </g>
     </g>
    </g>
   </g>
   <g id="matplotlib.axis_4"/>
   <g id="line2d_11">
    <path d="M 315.29975 112.382563 
L 315.436233 111.727156 
L 315.572716 111.07175 
L 315.709198 110.416344 
L 315.845681 109.760937 
L 315.982164 109.105531 
L 316.118647 108.450125 
L 316.255129 107.794718 
L 316.391612 107.139312 
L 316.528095 106.483906 
L 316.664578 105.828499 
L 316.80106 105.173093 
L 316.937543 104.517687 
L 317.074026 103.86228 
L 317.210509 103.206874 
L 317.346991 102.551468 
L 317.483474 101.896062 
L 317.619957 101.240655 
L 317.75644 100.585249 
L 317.892922 99.929843 
L 318.029405 99.274436 
L 318.165888 98.61903 
L 318.302371 97.963624 
L 318.438853 97.308217 
L 318.575336 96.652811 
L 318.711819 95.997405 
L 318.848302 95.341998 
L 318.984784 94.686592 
L 319.121267 94.031186 
L 319.25775 93.37578 
L 319.394233 92.720373 
L 319.530715 92.064967 
L 319.667198 91.409561 
L 319.803681 90.754154 
L 319.940164 90.098748 
L 320.076646 89.443342 
L 320.213129 88.787935 
L 320.349612 88.132529 
L 320.486095 87.477123 
L 320.622577 86.821716 
L 320.75906 86.16631 
L 320.895543 85.510904 
L 321.032026 84.855498 
L 321.168508 84.200091 
L 321.304991 83.544685 
L 321.441474 82.889279 
L 321.577957 82.233872 
L 321.714439 81.578466 
L 321.850922 80.92306 
L 321.987405 80.267653 
L 322.123888 79.612247 
L 322.26037 78.956841 
L 322.396853 78.301434 
L 322.533336 77.646028 
L 322.669819 76.990622 
L 322.806301 76.335216 
L 322.942784 75.679809 
L 323.079267 75.024403 
L 323.21575 74.368997 
L 323.352232 73.71359 
L 323.488715 73.058184 
L 323.625198 72.402778 
L 323.761681 71.747371 
L 323.898163 71.091965 
L 324.034646 70.436559 
L 324.171129 69.781152 
L 324.307612 69.125746 
L 324.444094 68.47034 
L 324.580577 67.814934 
L 324.71706 67.159527 
L 324.853543 66.504121 
L 324.990025 65.848715 
L 325.126508 65.193308 
L 325.262991 64.537902 
L 325.399474 63.882496 
L 325.535956 63.227089 
L 325.672439 62.571683 
L 325.808922 61.916277 
L 325.945405 61.26087 
L 326.081887 60.605464 
L 326.21837 59.950058 
L 326.354853 59.294652 
L 326.491336 58.639245 
L 326.627818 57.983839 
L 326.764301 57.328433 
L 326.900784 56.673026 
L 327.037267 56.01762 
L 327.173749 55.362214 
L 327.310232 54.706807 
L 327.446715 54.051401 
L 327.583198 53.395995 
L 327.71968 52.740588 
L 327.856163 52.085182 
L 327.992646 51.429776 
L 328.129129 50.774369 
L 328.265611 50.118963 
L 328.402094 49.463557 
L 328.538577 48.808151 
L 328.67506 48.152744 
L 328.811542 47.497338 
" clip-path="url(#p6c6531b822)" style="fill: none; stroke: #000000; stroke-width: 1.5; stroke-linecap: square"/>
   </g>
   <g id="line2d_12">
    <path d="M 323.022929 46.556934 
L 323.140622 46.570849 
L 323.258291 46.584975 
L 323.375934 46.599311 
L 323.493551 46.613858 
L 323.611143 46.628615 
L 323.728707 46.643582 
L 323.846245 46.658759 
L 323.963755 46.674147 
L 324.081238 46.689744 
L 324.198692 46.705552 
L 324.316118 46.72157 
L 324.433516 46.737797 
L 324.550884 46.754235 
L 324.668222 46.770882 
L 324.785531 46.787739 
L 324.902809 46.804806 
L 325.020056 46.822082 
L 325.137273 46.839569 
L 325.254458 46.857264 
L 325.371611 46.87517 
L 325.488732 46.893284 
L 325.60582 46.911608 
L 325.722876 46.930142 
L 325.839898 46.948885 
L 325.956886 46.967837 
L 326.07384 46.986998 
L 326.19076 47.006368 
L 326.307645 47.025947 
L 326.424495 47.045736 
L 326.541309 47.065733 
L 326.658087 47.085939 
L 326.774829 47.106354 
L 326.891535 47.126977 
L 327.008203 47.147809 
L 327.124834 47.16885 
L 327.241427 47.190099 
L 327.357981 47.211557 
L 327.474498 47.233223 
L 327.590975 47.255098 
L 327.707413 47.27718 
L 327.823811 47.299471 
L 327.940169 47.32197 
L 328.056487 47.344677 
L 328.172764 47.367592 
L 328.289 47.390715 
L 328.405195 47.414045 
L 328.521347 47.437584 
L 328.637457 47.46133 
L 328.753525 47.485283 
L 328.869549 47.509444 
L 328.98553 47.533813 
L 329.101468 47.558389 
L 329.217361 47.583172 
L 329.33321 47.608162 
L 329.449014 47.63336 
L 329.564772 47.658764 
L 329.680485 47.684376 
L 329.796152 47.710194 
L 329.911773 47.736219 
L 330.027347 47.762451 
L 330.142874 47.78889 
L 330.258353 47.815535 
L 330.373785 47.842386 
L 330.489168 47.869444 
L 330.604503 47.896708 
L 330.719789 47.924178 
L 330.835026 47.951855 
L 330.950213 47.979737 
L 331.065349 48.007825 
L 331.180436 48.03612 
L 331.295471 48.064619 
L 331.410456 48.093325 
L 331.525389 48.122236 
L 331.64027 48.151353 
L 331.755099 48.180675 
L 331.869875 48.210202 
L 331.984599 48.239934 
L 332.099269 48.269872 
L 332.213885 48.300015 
L 332.328447 48.330362 
L 332.442955 48.360914 
L 332.557407 48.391671 
L 332.671805 48.422633 
L 332.786147 48.453799 
L 332.900433 48.485169 
L 333.014663 48.516744 
L 333.128837 48.548523 
L 333.242953 48.580506 
L 333.357012 48.612694 
L 333.471013 48.645085 
L 333.584956 48.677679 
L 333.698841 48.710478 
L 333.812667 48.74348 
L 333.926433 48.776686 
L 334.04014 48.810095 
L 334.153787 48.843707 
L 334.267374 48.877522 
L 334.3809 48.911541 
L 334.494366 48.945762 
" clip-path="url(#p6c6531b822)" style="fill: none; stroke: #000000; stroke-width: 1.5; stroke-linecap: square"/>
   </g>
   <g id="patch_6">
    <path d="M 315.29975 43.092813 
C 306.200703 43.092813 297.190134 44.885126 288.783711 48.367181 
C 280.377288 51.849235 272.738495 56.953313 266.304498 63.38731 
C 259.8705 69.821308 254.766423 77.4601 251.284368 85.866523 
C 247.802314 94.272946 246.01 103.283516 246.01 112.382563 
C 246.01 121.481609 247.802314 130.492179 251.284368 138.898602 
C 254.766423 147.305025 259.8705 154.943817 266.304498 161.377815 
C 272.738495 167.811812 280.377288 172.91589 288.783711 176.397944 
C 297.190134 179.879999 306.200703 181.672312 315.29975 181.672312 
C 324.398797 181.672312 333.409366 179.879999 341.815789 176.397944 
C 350.222212 172.91589 357.861005 167.811812 364.295002 161.377815 
C 370.729 154.943817 375.833077 147.305025 379.315132 138.898602 
C 382.797186 130.492179 384.5895 121.481609 384.5895 112.382563 
C 384.5895 103.283516 382.797186 94.272946 379.315132 85.866523 
C 375.833077 77.4601 370.729 69.821308 364.295002 63.38731 
C 357.861005 56.953313 350.222212 51.849235 341.815789 48.367181 
C 333.409366 44.885126 324.398797 43.092813 315.29975 43.092813 
" style="fill: none; stroke: #000000; stroke-width: 0.8; stroke-linejoin: miter; stroke-linecap: square"/>
   </g>
   <g id="text_11">
    <g id="patch_7">
     <path d="M 284.34975 136.289438 
L 346.24975 136.289438 
L 346.24975 88.475688 
L 284.34975 88.475688 
z
" style="fill: #ffffff; stroke: #000000; stroke-linejoin: miter"/>
    </g>
    <!-- $\mu$ = 11.76$^\degree$ -->
    <g transform="translate(288.84975 99.075688)">
     <text>
      <tspan style="font: oblique 10px 'DejaVu Sans'" x="0" y="-0.9765625">μ</tspan>
      <tspan style="font: 10px 'DejaVu Sans'" x="6.362305 9.541016 17.919922 21.098633 27.460938 33.823242 36.251953 42.614258" y="-0.9765625"> = 11.76</tspan>
      <tspan style="font: 7px 'DejaVu Sans'" x="49.072266" y="-4.8046875">°</tspan>
     </text>
    </g>
    <!-- $s0$ = 21.18$^\degree$ -->
    <g transform="translate(285.84975 110.293813)">
     <text>
      <tspan style="font: oblique 10px 'DejaVu Sans'" x="0" y="-0.9765625">s</tspan>
      <tspan style="font: 10px 'DejaVu Sans'" x="5.209961 11.572266 14.750977 23.129883 26.308594 32.670898 39.033203 42.211914 48.574219" y="-0.9765625">0 = 21.18</tspan>
      <tspan style="font: 7px 'DejaVu Sans'" x="55.032227" y="-4.8046875">°</tspan>
     </text>
    </g>
    <!-- $V = 0.91$ -->
    <g transform="translate(294.59975 121.491625)">
     <text>
      <tspan style="font: oblique 10px 'DejaVu Sans'" x="0" y="-0.578125">V</tspan>
      <tspan style="font: 10px 'DejaVu Sans'" x="8.789062 19.116211 25.478516 28.657227 35.019531" y="-0.578125">=0.91</tspan>
     </text>
    </g>
    <!-- $p$ &lt; 1e-06 -->
    <g transform="translate(290.29975 132.689437)">
     <text>
      <tspan style="font: oblique 10px 'DejaVu Sans'" x="0" y="-0.578125">p</tspan>
      <tspan style="font: 10px 'DejaVu Sans'" x="6.347656 9.526367 17.905273 21.083984 27.446289 33.598633 37.207031 43.569336" y="-0.578125"> &lt; 1e-06</tspan>
     </text>
    </g>
   </g>
   <g id="text_12">
    <!-- B) Exit 1 $\rightarrow$ Exit 3 -->
    <g transform="translate(261.53975 16.318125)">
     <text>
      <tspan style="font: 12px 'DejaVu Sans'" x="0 8.232422 12.914062 16.728516 24.310547 31.412109 34.746094 39.451172 43.265625 50.900391 57.052734 69.445312 73.259766 80.841797 87.943359 91.277344 95.982422 99.796875" y="-0.875">B) Exit 1 → Exit 3</tspan>
     </text>
    </g>
   </g>
  </g>
  <g id="axes_3">
   <g id="patch_8">
    <path d="M 173.9895 322.982562 
C 173.9895 313.883516 172.197186 304.872946 168.715132 296.466523 
C 165.233077 288.0601 160.129 280.421308 153.695002 273.98731 
C 147.261005 267.553313 139.622212 262.449235 131.215789 258.967181 
C 122.809366 255.485126 113.798797 253.692812 104.69975 253.692812 
C 95.600703 253.692812 86.590134 255.485126 78.183711 258.967181 
C 69.777288 262.449235 62.138495 267.553313 55.704498 273.98731 
C 49.2705 280.421308 44.166423 288.0601 40.684368 296.466523 
C 37.202314 304.872946 35.41 313.883516 35.41 322.982562 
C 35.41 332.081609 37.202314 341.092179 40.684368 349.498602 
C 44.166423 357.905025 49.2705 365.543817 55.704498 371.977815 
C 62.138495 378.411812 69.777288 383.51589 78.183711 386.997944 
C 86.590134 390.479999 95.600703 392.272312 104.69975 392.272312 
C 113.798797 392.272312 122.809366 390.479999 131.215789 386.997944 
C 139.622212 383.51589 147.261005 378.411812 153.695002 371.977815 
C 160.129 365.543817 165.233077 357.905025 168.715132 349.498602 
C 172.197186 341.092179 173.9895 332.081609 173.9895 322.982562 
M 104.69975 322.982562 
C 104.69975 322.982562 104.69975 322.982562 104.69975 322.982562 
C 104.69975 322.982562 104.69975 322.982562 104.69975 322.982562 
C 104.69975 322.982562 104.69975 322.982562 104.69975 322.982562 
C 104.69975 322.982562 104.69975 322.982562 104.69975 322.982562 
C 104.69975 322.982562 104.69975 322.982562 104.69975 322.982562 
C 104.69975 322.982562 104.69975 322.982562 104.69975 322.982562 
C 104.69975 322.982562 104.69975 322.982562 104.69975 322.982562 
C 104.69975 322.982562 104.69975 322.982562 104.69975 322.982562 
C 104.69975 322.982562 104.69975 322.982562 104.69975 322.982562 
C 104.69975 322.982562 104.69975 322.982562 104.69975 322.982562 
C 104.69975 322.982562 104.69975 322.982562 104.69975 322.982562 
C 104.69975 322.982562 104.69975 322.982562 104.69975 322.982562 
C 104.69975 322.982562 104.69975 322.982562 104.69975 322.982562 
C 104.69975 322.982562 104.69975 322.982562 104.69975 322.982562 
C 104.69975 322.982562 104.69975 322.982562 104.69975 322.982562 
C 104.69975 322.982562 104.69975 322.982562 104.69975 322.982562 
z
" style="fill: #ffffff"/>
   </g>
   <g id="PathCollection_3">
    <g clip-path="url(#pd083ffe352)">
     <use xlink:href="#m6b870648dc" x="84.096096" y="266.362887" style="fill: #1f77b4; stroke: #000000"/>
     <use xlink:href="#m6b870648dc" x="86.156461" y="272.024854" style="fill: #1f77b4; stroke: #000000"/>
     <use xlink:href="#m6b870648dc" x="94.268731" y="263.640401" style="fill: #1f77b4; stroke: #000000"/>
     <use xlink:href="#m6b870648dc" x="95.311833" y="269.574617" style="fill: #1f77b4; stroke: #000000"/>
     <use xlink:href="#m6b870648dc" x="99.46444" y="262.958486" style="fill: #1f77b4; stroke: #000000"/>
     <use xlink:href="#m6b870648dc" x="104.69975" y="262.730606" style="fill: #1f77b4; stroke: #000000"/>
     <use xlink:href="#m6b870648dc" x="120.247575" y="264.771194" style="fill: #1f77b4; stroke: #000000"/>
     <use xlink:href="#m6b870648dc" x="130.145179" y="268.367286" style="fill: #1f77b4; stroke: #000000"/>
     <use xlink:href="#m6b870648dc" x="139.216135" y="273.597166" style="fill: #1f77b4; stroke: #000000"/>
     <use xlink:href="#m6b870648dc" x="150.829676" y="284.222684" style="fill: #1f77b4; stroke: #000000"/>
     <use xlink:href="#m6b870648dc" x="146.216683" y="288.098672" style="fill: #1f77b4; stroke: #000000"/>
     <use xlink:href="#m6b870648dc" x="154.023064" y="288.377521" style="fill: #1f77b4; stroke: #000000"/>
     <use xlink:href="#m6b870648dc" x="149.090733" y="291.838025" style="fill: #1f77b4; stroke: #000000"/>
     <use xlink:href="#m6b870648dc" x="159.294746" y="297.49365" style="fill: #1f77b4; stroke: #000000"/>
     <use xlink:href="#m6b870648dc" x="162.883095" y="307.330196" style="fill: #1f77b4; stroke: #000000"/>
     <use xlink:href="#m6b870648dc" x="164.033586" y="312.504291" style="fill: #1f77b4; stroke: #000000"/>
     <use xlink:href="#m6b870648dc" x="158.100202" y="313.552118" style="fill: #1f77b4; stroke: #000000"/>
     <use xlink:href="#m6b870648dc" x="164.719639" y="317.699455" style="fill: #1f77b4; stroke: #000000"/>
     <use xlink:href="#m6b870648dc" x="158.71765" y="318.227766" style="fill: #1f77b4; stroke: #000000"/>
     <use xlink:href="#m6b870648dc" x="152.715661" y="318.756077" style="fill: #1f77b4; stroke: #000000"/>
    </g>
   </g>
   <g id="matplotlib.axis_5">
    <g id="xtick_9">
     <g id="line2d_13">
      <path d="M 104.69975 322.982562 
L 104.69975 253.692812 
" clip-path="url(#pd083ffe352)" style="fill: none; stroke: #b0b0b0; stroke-width: 0.8; stroke-linecap: square"/>
     </g>
     <g id="text_13">
      <!-- 0$^\degree$ -->
      <g transform="translate(97.48975 243.555937)">
       <text>
        <tspan style="font: 14px 'DejaVu Sans'" x="0" y="-0.3671875">0</tspan>
        <tspan style="font: 9.8px 'DejaVu Sans'" x="9.041211" y="-5.7265625">°</tspan>
       </text>
      </g>
     </g>
    </g>
    <g id="xtick_10">
     <g id="line2d_14">
      <path d="M 104.69975 322.982562 
L 173.9895 322.982562 
" clip-path="url(#pd083ffe352)" style="fill: none; stroke: #b0b0b0; stroke-width: 0.8; stroke-linecap: square"/>
     </g>
     <g id="text_14">
      <!-- 90$^\degree$ -->
      <g transform="translate(176.3695 326.845687)">
       <text>
        <tspan style="font: 14px 'DejaVu Sans'" x="0 8.907227" y="-0.3671875">90</tspan>
        <tspan style="font: 9.8px 'DejaVu Sans'" x="17.948438" y="-5.7265625">°</tspan>
       </text>
      </g>
     </g>
    </g>
    <g id="xtick_11">
     <g id="line2d_15">
      <path d="M 104.69975 322.982562 
L 104.69975 392.272312 
" clip-path="url(#pd083ffe352)" style="fill: none; stroke: #b0b0b0; stroke-width: 0.8; stroke-linecap: square"/>
     </g>
     <g id="text_15">
      <!-- 180$^\degree$ -->
      <g transform="translate(88.59975 410.135437)">
       <text>
        <tspan style="font: 14px 'DejaVu Sans'" x="0 8.907227 17.814453" y="-0.3671875">180</tspan>
        <tspan style="font: 9.8px 'DejaVu Sans'" x="26.855664" y="-5.7265625">°</tspan>
       </text>
      </g>
     </g>
    </g>
    <g id="xtick_12">
     <g id="line2d_16">
      <path d="M 104.69975 322.982562 
L 35.41 322.982562 
" clip-path="url(#pd083ffe352)" style="fill: none; stroke: #b0b0b0; stroke-width: 0.8; stroke-linecap: square"/>
     </g>
     <g id="text_16">
      <!-- -90$^\degree$ -->
      <g transform="translate(7.2 326.845687)">
       <text>
        <tspan style="font: 14px 'DejaVu Sans'" x="0 5.051758 13.958984" y="-0.3671875">-90</tspan>
        <tspan style="font: 9.8px 'DejaVu Sans'" x="23.000195" y="-5.7265625">°</tspan>
       </text>
      </g>
     </g>
    </g>
   </g>
   <g id="matplotlib.axis_6"/>
   <g id="line2d_17">
    <path d="M 104.69975 322.982562 
L 105.126148 322.466452 
L 105.552546 321.950342 
L 105.978943 321.434231 
L 106.405341 320.918121 
L 106.831739 320.402011 
L 107.258137 319.8859 
L 107.684535 319.36979 
L 108.110932 318.85368 
L 108.53733 318.337569 
L 108.963728 317.821459 
L 109.390126 317.305349 
L 109.816524 316.789238 
L 110.242922 316.273128 
L 110.669319 315.757018 
L 111.095717 315.240907 
L 111.522115 314.724797 
L 111.948513 314.208687 
L 112.374911 313.692576 
L 112.801308 313.176466 
L 113.227706 312.660356 
L 113.654104 312.144245 
L 114.080502 311.628135 
L 114.5069 311.112025 
L 114.933297 310.595914 
L 115.359695 310.079804 
L 115.786093 309.563694 
L 116.212491 309.047583 
L 116.638889 308.531473 
L 117.065287 308.015363 
L 117.491684 307.499252 
L 117.918082 306.983142 
L 118.34448 306.467032 
L 118.770878 305.950921 
L 119.197276 305.434811 
L 119.623673 304.918701 
L 120.050071 304.40259 
L 120.476469 303.88648 
L 120.902867 303.37037 
L 121.329265 302.854259 
L 121.755662 302.338149 
L 122.18206 301.822039 
L 122.608458 301.305928 
L 123.034856 300.789818 
L 123.461254 300.273708 
L 123.887651 299.757597 
L 124.314049 299.241487 
L 124.740447 298.725377 
L 125.166845 298.209266 
L 125.593243 297.693156 
L 126.019641 297.177046 
L 126.446038 296.660935 
L 126.872436 296.144825 
L 127.298834 295.628715 
L 127.725232 295.112604 
L 128.15163 294.596494 
L 128.578027 294.080384 
L 129.004425 293.564273 
L 129.430823 293.048163 
L 129.857221 292.532053 
L 130.283619 292.015942 
L 130.710016 291.499832 
L 131.136414 290.983722 
L 131.562812 290.467611 
L 131.98921 289.951501 
L 132.415608 289.435391 
L 132.842006 288.91928 
L 133.268403 288.40317 
L 133.694801 287.88706 
L 134.121199 287.370949 
L 134.547597 286.854839 
L 134.973995 286.338729 
L 135.400392 285.822618 
L 135.82679 285.306508 
L 136.253188 284.790398 
L 136.679586 284.274287 
L 137.105984 283.758177 
L 137.532381 283.242067 
L 137.958779 282.725956 
L 138.385177 282.209846 
L 138.811575 281.693736 
L 139.237973 281.177625 
L 139.66437 280.661515 
L 140.090768 280.145405 
L 140.517166 279.629294 
L 140.943564 279.113184 
L 141.369962 278.597074 
L 141.79636 278.080963 
L 142.222757 277.564853 
L 142.649155 277.048743 
L 143.075553 276.532632 
L 143.501951 276.016522 
L 143.928349 275.500412 
L 144.354746 274.984301 
L 144.781144 274.468191 
L 145.207542 273.952081 
L 145.63394 273.43597 
L 146.060338 272.91986 
L 146.486735 272.40375 
L 146.913133 271.887639 
" clip-path="url(#pd083ffe352)" style="fill: none; stroke: #000000; stroke-width: 1.5; stroke-linecap: square"/>
   </g>
   <g id="line2d_18">
    <path d="M 137.764463 265.542284 
L 137.959438 265.654959 
L 138.154028 265.768297 
L 138.348232 265.882295 
L 138.542048 265.996952 
L 138.735473 266.112267 
L 138.928505 266.228239 
L 139.121142 266.344866 
L 139.313382 266.462147 
L 139.505222 266.58008 
L 139.69666 266.698664 
L 139.887694 266.817898 
L 140.078322 266.937781 
L 140.268541 267.05831 
L 140.45835 267.179485 
L 140.647746 267.301305 
L 140.836727 267.423767 
L 141.025291 267.546871 
L 141.213436 267.670614 
L 141.401159 267.794996 
L 141.588458 267.920015 
L 141.775332 268.04567 
L 141.961777 268.171959 
L 142.147792 268.298881 
L 142.333375 268.426434 
L 142.518524 268.554617 
L 142.703236 268.683428 
L 142.887509 268.812866 
L 143.071341 268.94293 
L 143.254731 269.073617 
L 143.437675 269.204927 
L 143.620172 269.336857 
L 143.802219 269.469407 
L 143.983816 269.602575 
L 144.164959 269.736359 
L 144.345646 269.870757 
L 144.525875 270.005769 
L 144.705645 270.141392 
L 144.884953 270.277626 
L 145.063797 270.414467 
L 145.242175 270.551916 
L 145.420085 270.68997 
L 145.597525 270.828627 
L 145.774492 270.967887 
L 145.950986 271.107747 
L 146.127003 271.248206 
L 146.302542 271.389263 
L 146.477601 271.530915 
L 146.652177 271.67316 
L 146.826269 271.815999 
L 146.999875 271.959428 
L 147.172993 272.103445 
L 147.34562 272.248051 
L 147.517755 272.393242 
L 147.689395 272.539017 
L 147.860539 272.685374 
L 148.031185 272.832312 
L 148.201331 272.979829 
L 148.370975 273.127923 
L 148.540114 273.276593 
L 148.708747 273.425837 
L 148.876872 273.575653 
L 149.044488 273.726039 
L 149.211591 273.876993 
L 149.37818 274.028515 
L 149.544254 274.180602 
L 149.70981 274.333252 
L 149.874846 274.486464 
L 150.039361 274.640235 
L 150.203352 274.794565 
L 150.366818 274.949451 
L 150.529757 275.104892 
L 150.692167 275.260885 
L 150.854046 275.417429 
L 151.015391 275.574523 
L 151.176203 275.732163 
L 151.336477 275.890349 
L 151.496214 276.049079 
L 151.65541 276.208351 
L 151.814064 276.368162 
L 151.972174 276.528512 
L 152.129738 276.689398 
L 152.286755 276.850818 
L 152.443223 277.012771 
L 152.599139 277.175255 
L 152.754502 277.338267 
L 152.909311 277.501807 
L 153.063563 277.665871 
L 153.217256 277.830459 
L 153.37039 277.995568 
L 153.522962 278.161196 
L 153.67497 278.327342 
L 153.826412 278.494003 
L 153.977288 278.661178 
L 154.127594 278.828864 
L 154.27733 278.99706 
L 154.426494 279.165764 
L 154.575084 279.334974 
L 154.723098 279.504688 
L 154.870534 279.674903 
" clip-path="url(#pd083ffe352)" style="fill: none; stroke: #000000; stroke-width: 1.5; stroke-linecap: square"/>
   </g>
   <g id="patch_9">
    <path d="M 104.69975 253.692812 
C 95.600703 253.692812 86.590134 255.485126 78.183711 258.967181 
C 69.777288 262.449235 62.138495 267.553313 55.704498 273.98731 
C 49.2705 280.421308 44.166423 288.0601 40.684368 296.466523 
C 37.202314 304.872946 35.41 313.883516 35.41 322.982562 
C 35.41 332.081609 37.202314 341.092179 40.684368 349.498602 
C 44.166423 357.905025 49.2705 365.543817 55.704498 371.977815 
C 62.138495 378.411812 69.777288 383.51589 78.183711 386.997944 
C 86.590134 390.479999 95.600703 392.272312 104.69975 392.272312 
C 113.798797 392.272312 122.809366 390.479999 131.215789 386.997944 
C 139.622212 383.51589 147.261005 378.411812 153.695002 371.977815 
C 160.129 365.543817 165.233077 357.905025 168.715132 349.498602 
C 172.197186 341.092179 173.9895 332.081609 173.9895 322.982562 
C 173.9895 313.883516 172.197186 304.872946 168.715132 296.466523 
C 165.233077 288.0601 160.129 280.421308 153.695002 273.98731 
C 147.261005 267.553313 139.622212 262.449235 131.215789 258.967181 
C 122.809366 255.485126 113.798797 253.692812 104.69975 253.692812 
" style="fill: none; stroke: #000000; stroke-width: 0.8; stroke-linejoin: miter; stroke-linecap: square"/>
   </g>
   <g id="text_17">
    <g id="patch_10">
     <path d="M 74.14975 346.889437 
L 135.24975 346.889437 
L 135.24975 299.075687 
L 74.14975 299.075687 
z
" style="fill: #ffffff; stroke: #000000; stroke-linejoin: miter"/>
    </g>
    <!-- $\mu$ = 39.56$^\degree$ -->
    <g transform="translate(77.89975 309.675687)">
     <text>
      <tspan style="font: oblique 10px 'DejaVu Sans'" x="0" y="-0.9765625">μ</tspan>
      <tspan style="font: 10px 'DejaVu Sans'" x="6.362305 9.541016 17.919922 21.098633 27.460938 33.823242 37.001953 43.364258" y="-0.9765625"> = 39.56</tspan>
      <tspan style="font: 7px 'DejaVu Sans'" x="49.822266" y="-4.8046875">°</tspan>
     </text>
    </g>
    <!-- $s0$ = 38.75$^\degree$ -->
    <g transform="translate(75.64975 320.893812)">
     <text>
      <tspan style="font: oblique 10px 'DejaVu Sans'" x="0" y="-0.9765625">s</tspan>
      <tspan style="font: 10px 'DejaVu Sans'" x="5.209961 11.572266 14.750977 23.129883 26.308594 32.670898 39.033203 41.461914 47.824219" y="-0.9765625">0 = 38.75</tspan>
      <tspan style="font: 7px 'DejaVu Sans'" x="54.282227" y="-4.8046875">°</tspan>
     </text>
    </g>
    <!-- $V = 0.61$ -->
    <g transform="translate(83.99975 332.091625)">
     <text>
      <tspan style="font: oblique 10px 'DejaVu Sans'" x="0" y="-0.578125">V</tspan>
      <tspan style="font: 10px 'DejaVu Sans'" x="8.789062 19.116211 25.478516 28.657227 35.019531" y="-0.578125">=0.61</tspan>
     </text>
    </g>
    <!-- $p$ &lt; 0.0001 -->
    <g transform="translate(76.64975 343.289437)">
     <text>
      <tspan style="font: oblique 10px 'DejaVu Sans'" x="0" y="-0.578125">p</tspan>
      <tspan style="font: 10px 'DejaVu Sans'" x="6.347656 9.526367 17.905273 21.083984 27.446289 30.625 36.987305 43.349609 49.711914" y="-0.578125"> &lt; 0.0001</tspan>
     </text>
    </g>
   </g>
   <g id="text_18">
    <!-- C) Exit 1 $\rightarrow$ Exit 4 -->
    <g transform="translate(50.87975 226.918125)">
     <text>
      <tspan style="font: 12px 'DejaVu Sans'" x="0 8.378906 13.060547 16.875 24.457031 31.558594 34.892578 39.597656 43.412109 51.046875 57.199219 69.591797 73.40625 80.988281 88.089844 91.423828 96.128906 99.943359" y="-0.875">C) Exit 1 → Exit 4</tspan>
     </text>
    </g>
   </g>
  </g>
  <g id="axes_4">
   <g id="patch_11">
    <path d="M 384.5895 322.982562 
C 384.5895 313.883516 382.797186 304.872946 379.315132 296.466523 
C 375.833077 288.0601 370.729 280.421308 364.295002 273.98731 
C 357.861005 267.553313 350.222212 262.449235 341.815789 258.967181 
C 333.409366 255.485126 324.398797 253.692812 315.29975 253.692812 
C 306.200703 253.692812 297.190134 255.485126 288.783711 258.967181 
C 280.377288 262.449235 272.738495 267.553313 266.304498 273.98731 
C 259.8705 280.421308 254.766423 288.0601 251.284368 296.466523 
C 247.802314 304.872946 246.01 313.883516 246.01 322.982562 
C 246.01 332.081609 247.802314 341.092179 251.284368 349.498602 
C 254.766423 357.905025 259.8705 365.543817 266.304498 371.977815 
C 272.738495 378.411812 280.377288 383.51589 288.783711 386.997944 
C 297.190134 390.479999 306.200703 392.272312 315.29975 392.272312 
C 324.398797 392.272312 333.409366 390.479999 341.815789 386.997944 
C 350.222212 383.51589 357.861005 378.411812 364.295002 371.977815 
C 370.729 365.543817 375.833077 357.905025 379.315132 349.498602 
C 382.797186 341.092179 384.5895 332.081609 384.5895 322.982562 
M 315.29975 322.982562 
C 315.29975 322.982562 315.29975 322.982562 315.29975 322.982562 
C 315.29975 322.982562 315.29975 322.982562 315.29975 322.982562 
C 315.29975 322.982562 315.29975 322.982562 315.29975 322.982562 
C 315.29975 322.982562 315.29975 322.982562 315.29975 322.982562 
C 315.29975 322.982562 315.29975 322.982562 315.29975 322.982562 
C 315.29975 322.982562 315.29975 322.982562 315.29975 322.982562 
C 315.29975 322.982562 315.29975 322.982562 315.29975 322.982562 
C 315.29975 322.982562 315.29975 322.982562 315.29975 322.982562 
C 315.29975 322.982562 315.29975 322.982562 315.29975 322.982562 
C 315.29975 322.982562 315.29975 322.982562 315.29975 322.982562 
C 315.29975 322.982562 315.29975 322.982562 315.29975 322.982562 
C 315.29975 322.982562 315.29975 322.982562 315.29975 322.982562 
C 315.29975 322.982562 315.29975 322.982562 315.29975 322.982562 
C 315.29975 322.982562 315.29975 322.982562 315.29975 322.982562 
C 315.29975 322.982562 315.29975 322.982562 315.29975 322.982562 
C 315.29975 322.982562 315.29975 322.982562 315.29975 322.982562 
z
" style="fill: #ffffff"/>
   </g>
   <g id="PathCollection_4">
    <defs>
     <path id="m4c9be9b5c3" d="M 0 2.738613 
C 0.726289 2.738613 1.422928 2.450055 1.936492 1.936492 
C 2.450055 1.422928 2.738613 0.726289 2.738613 0 
C 2.738613 -0.726289 2.450055 -1.422928 1.936492 -1.936492 
C 1.422928 -2.450055 0.726289 -2.738613 0 -2.738613 
C -0.726289 -2.738613 -1.422928 -2.450055 -1.936492 -1.936492 
C -2.450055 -1.422928 -2.738613 -0.726289 -2.738613 0 
C -2.738613 0.726289 -2.450055 1.422928 -1.936492 1.936492 
C -1.422928 2.450055 -0.726289 2.738613 0 2.738613 
z
" style="stroke: #000000"/>
    </defs>
    <g clip-path="url(#pe8731bea80)">
     <use xlink:href="#m4c9be9b5c3" x="315.29975" y="262.730606" style="fill: #d62728; stroke: #000000"/>
     <use xlink:href="#m4c9be9b5c3" x="320.551054" y="262.959883" style="fill: #d62728; stroke: #000000"/>
     <use xlink:href="#m4c9be9b5c3" x="330.894104" y="264.783642" style="fill: #d62728; stroke: #000000"/>
     <use xlink:href="#m4c9be9b5c3" x="335.907133" y="266.364244" style="fill: #d62728; stroke: #000000"/>
     <use xlink:href="#m4c9be9b5c3" x="333.846395" y="272.026075" style="fill: #d62728; stroke: #000000"/>
     <use xlink:href="#m4c9be9b5c3" x="349.858853" y="273.627049" style="fill: #d62728; stroke: #000000"/>
     <use xlink:href="#m4c9be9b5c3" x="357.904317" y="280.377995" style="fill: #d62728; stroke: #000000"/>
     <use xlink:href="#m4c9be9b5c3" x="361.455426" y="284.253351" style="fill: #d62728; stroke: #000000"/>
     <use xlink:href="#m4c9be9b5c3" x="356.839859" y="288.126272" style="fill: #d62728; stroke: #000000"/>
     <use xlink:href="#m4c9be9b5c3" x="352.224291" y="291.999194" style="fill: #d62728; stroke: #000000"/>
     <use xlink:href="#m4c9be9b5c3" x="364.655263" y="288.42346" style="fill: #d62728; stroke: #000000"/>
     <use xlink:href="#m4c9be9b5c3" x="367.479475" y="292.856584" style="fill: #d62728; stroke: #000000"/>
     <use xlink:href="#m4c9be9b5c3" x="369.906567" y="297.518985" style="fill: #d62728; stroke: #000000"/>
     <use xlink:href="#m4c9be9b5c3" x="364.445886" y="300.065343" style="fill: #d62728; stroke: #000000"/>
     <use xlink:href="#m4c9be9b5c3" x="374.636344" y="312.51992" style="fill: #d62728; stroke: #000000"/>
     <use xlink:href="#m4c9be9b5c3" x="375.32243" y="317.731258" style="fill: #d62728; stroke: #000000"/>
     <use xlink:href="#m4c9be9b5c3" x="369.320162" y="318.256389" style="fill: #d62728; stroke: #000000"/>
     <use xlink:href="#m4c9be9b5c3" x="375.551707" y="322.982562" style="fill: #d62728; stroke: #000000"/>
     <use xlink:href="#m4c9be9b5c3" x="375.32243" y="328.233867" style="fill: #d62728; stroke: #000000"/>
     <use xlink:href="#m4c9be9b5c3" x="373.498671" y="338.576916" style="fill: #d62728; stroke: #000000"/>
     <use xlink:href="#m4c9be9b5c3" x="371.918069" y="343.589945" style="fill: #d62728; stroke: #000000"/>
     <use xlink:href="#m4c9be9b5c3" x="345.425728" y="375.162287" style="fill: #d62728; stroke: #000000"/>
     <use xlink:href="#m4c9be9b5c3" x="335.907133" y="379.600881" style="fill: #d62728; stroke: #000000"/>
     <use xlink:href="#m4c9be9b5c3" x="325.762392" y="382.319156" style="fill: #d62728; stroke: #000000"/>
     <use xlink:href="#m4c9be9b5c3" x="310.048446" y="383.005242" style="fill: #d62728; stroke: #000000"/>
     <use xlink:href="#m4c9be9b5c3" x="265.944237" y="357.541665" style="fill: #d62728; stroke: #000000"/>
     <use xlink:href="#m4c9be9b5c3" x="258.681431" y="343.589945" style="fill: #d62728; stroke: #000000"/>
     <use xlink:href="#m4c9be9b5c3" x="257.100829" y="338.576916" style="fill: #d62728; stroke: #000000"/>
     <use xlink:href="#m4c9be9b5c3" x="262.920721" y="337.017481" style="fill: #d62728; stroke: #000000"/>
     <use xlink:href="#m4c9be9b5c3" x="255.047793" y="322.982562" style="fill: #d62728; stroke: #000000"/>
     <use xlink:href="#m4c9be9b5c3" x="257.100829" y="307.388209" style="fill: #d62728; stroke: #000000"/>
     <use xlink:href="#m4c9be9b5c3" x="260.692933" y="297.518985" style="fill: #d62728; stroke: #000000"/>
     <use xlink:href="#m4c9be9b5c3" x="263.120025" y="292.856584" style="fill: #d62728; stroke: #000000"/>
     <use xlink:href="#m4c9be9b5c3" x="268.337998" y="295.869182" style="fill: #d62728; stroke: #000000"/>
     <use xlink:href="#m4c9be9b5c3" x="269.144074" y="284.253351" style="fill: #d62728; stroke: #000000"/>
     <use xlink:href="#m4c9be9b5c3" x="280.740647" y="273.627049" style="fill: #d62728; stroke: #000000"/>
     <use xlink:href="#m4c9be9b5c3" x="284.196558" y="278.5626" style="fill: #d62728; stroke: #000000"/>
     <use xlink:href="#m4c9be9b5c3" x="289.836173" y="268.375745" style="fill: #d62728; stroke: #000000"/>
     <use xlink:href="#m4c9be9b5c3" x="292.382531" y="273.836427" style="fill: #d62728; stroke: #000000"/>
     <use xlink:href="#m4c9be9b5c3" x="304.837108" y="263.645969" style="fill: #d62728; stroke: #000000"/>
    </g>
   </g>
   <g id="matplotlib.axis_7">
    <g id="xtick_13">
     <g id="line2d_19">
      <path d="M 315.29975 322.982562 
L 315.29975 253.692812 
" clip-path="url(#pe8731bea80)" style="fill: none; stroke: #b0b0b0; stroke-width: 0.8; stroke-linecap: square"/>
     </g>
     <g id="text_19">
      <!-- 0$^\degree$ -->
      <g transform="translate(308.08975 243.555937)">
       <text>
        <tspan style="font: 14px 'DejaVu Sans'" x="0" y="-0.3671875">0</tspan>
        <tspan style="font: 9.8px 'DejaVu Sans'" x="9.041211" y="-5.7265625">°</tspan>
       </text>
      </g>
     </g>
    </g>
    <g id="xtick_14">
     <g id="line2d_20">
      <path d="M 315.29975 322.982562 
L 384.5895 322.982562 
" clip-path="url(#pe8731bea80)" style="fill: none; stroke: #b0b0b0; stroke-width: 0.8; stroke-linecap: square"/>
     </g>
     <g id="text_20">
      <!-- 90$^\degree$ -->
      <g transform="translate(386.9695 326.845687)">
       <text>
        <tspan style="font: 14px 'DejaVu Sans'" x="0 8.907227" y="-0.3671875">90</tspan>
        <tspan style="font: 9.8px 'DejaVu Sans'" x="17.948438" y="-5.7265625">°</tspan>
       </text>
      </g>
     </g>
    </g>
    <g id="xtick_15">
     <g id="line2d_21">
      <path d="M 315.29975 322.982562 
L 315.29975 392.272312 
" clip-path="url(#pe8731bea80)" style="fill: none; stroke: #b0b0b0; stroke-width: 0.8; stroke-linecap: square"/>
     </g>
     <g id="text_21">
      <!-- 180$^\degree$ -->
      <g transform="translate(299.19975 410.135437)">
       <text>
        <tspan style="font: 14px 'DejaVu Sans'" x="0 8.907227 17.814453" y="-0.3671875">180</tspan>
        <tspan style="font: 9.8px 'DejaVu Sans'" x="26.855664" y="-5.7265625">°</tspan>
       </text>
      </g>
     </g>
    </g>
    <g id="xtick_16">
     <g id="line2d_22">
      <path d="M 315.29975 322.982562 
L 246.01 322.982562 
" clip-path="url(#pe8731bea80)" style="fill: none; stroke: #b0b0b0; stroke-width: 0.8; stroke-linecap: square"/>
     </g>
     <g id="text_22">
      <!-- -90$^\degree$ -->
      <g transform="translate(217.8 326.845687)">
       <text>
        <tspan style="font: 14px 'DejaVu Sans'" x="0 5.051758 13.958984" y="-0.3671875">-90</tspan>
        <tspan style="font: 9.8px 'DejaVu Sans'" x="23.000195" y="-5.7265625">°</tspan>
       </text>
      </g>
     </g>
    </g>
   </g>
   <g id="matplotlib.axis_8"/>
   <g id="line2d_23">
    <path d="M 315.29975 322.982562 
L 315.554038 322.363271 
L 315.808326 321.743979 
L 316.062614 321.124687 
L 316.316902 320.505395 
L 316.571191 319.886103 
L 316.825479 319.266811 
L 317.079767 318.647519 
L 317.334055 318.028227 
L 317.588343 317.408935 
L 317.842631 316.789643 
L 318.096919 316.170351 
L 318.351207 315.551059 
L 318.605495 314.931767 
L 318.859784 314.312475 
L 319.114072 313.693183 
L 319.36836 313.073891 
L 319.622648 312.454599 
L 319.876936 311.835307 
L 320.131224 311.216015 
L 320.385512 310.596723 
L 320.6398 309.977431 
L 320.894088 309.358139 
L 321.148376 308.738847 
L 321.402665 308.119556 
L 321.656953 307.500264 
L 321.911241 306.880972 
L 322.165529 306.26168 
L 322.419817 305.642388 
L 322.674105 305.023096 
L 322.928393 304.403804 
L 323.182681 303.784512 
L 323.436969 303.16522 
L 323.691258 302.545928 
L 323.945546 301.926636 
L 324.199834 301.307344 
L 324.454122 300.688052 
L 324.70841 300.06876 
L 324.962698 299.449468 
L 325.216986 298.830176 
L 325.471274 298.210884 
L 325.725562 297.591592 
L 325.979851 296.9723 
L 326.234139 296.353008 
L 326.488427 295.733716 
L 326.742715 295.114424 
L 326.997003 294.495132 
L 327.251291 293.87584 
L 327.505579 293.256549 
L 327.759867 292.637257 
L 328.014155 292.017965 
L 328.268443 291.398673 
L 328.522732 290.779381 
L 328.77702 290.160089 
L 329.031308 289.540797 
L 329.285596 288.921505 
L 329.539884 288.302213 
L 329.794172 287.682921 
L 330.04846 287.063629 
L 330.302748 286.444337 
L 330.557036 285.825045 
L 330.811325 285.205753 
L 331.065613 284.586461 
L 331.319901 283.967169 
L 331.574189 283.347877 
L 331.828477 282.728585 
L 332.082765 282.109293 
L 332.337053 281.490001 
L 332.591341 280.870709 
L 332.845629 280.251417 
L 333.099918 279.632125 
L 333.354206 279.012833 
L 333.608494 278.393542 
L 333.862782 277.77425 
L 334.11707 277.154958 
L 334.371358 276.535666 
L 334.625646 275.916374 
L 334.879934 275.297082 
L 335.134222 274.67779 
L 335.38851 274.058498 
L 335.642799 273.439206 
L 335.897087 272.819914 
L 336.151375 272.200622 
L 336.405663 271.58133 
L 336.659951 270.962038 
L 336.914239 270.342746 
L 337.168527 269.723454 
L 337.422815 269.104162 
L 337.677103 268.48487 
L 337.931392 267.865578 
L 338.18568 267.246286 
L 338.439968 266.626994 
L 338.694256 266.007702 
L 338.948544 265.38841 
L 339.202832 264.769118 
L 339.45712 264.149826 
L 339.711408 263.530535 
L 339.965696 262.911243 
L 340.219985 262.291951 
L 340.474273 261.672659 
" clip-path="url(#pe8731bea80)" style="fill: none; stroke: #000000; stroke-width: 1.5; stroke-linecap: square"/>
   </g>
   <g id="line2d_24">
    <path d="M 315.348371 256.705428 
L 315.869057 256.707855 
L 316.389708 256.714373 
L 316.910291 256.724981 
L 317.430775 256.739679 
L 317.951128 256.758465 
L 318.471317 256.781338 
L 318.99131 256.808298 
L 319.511075 256.839342 
L 320.030581 256.874468 
L 320.549794 256.913675 
L 321.068683 256.956959 
L 321.587217 257.004319 
L 322.105362 257.05575 
L 322.623087 257.111251 
L 323.14036 257.170818 
L 323.657149 257.234446 
L 324.173423 257.302133 
L 324.689148 257.373873 
L 325.204294 257.449663 
L 325.718829 257.529498 
L 326.232721 257.613372 
L 326.745938 257.701281 
L 327.258448 257.79322 
L 327.770221 257.889181 
L 328.281224 257.989161 
L 328.791425 258.093152 
L 329.300794 258.201148 
L 329.809298 258.313142 
L 330.316907 258.429128 
L 330.82359 258.549098 
L 331.329314 258.673045 
L 331.834048 258.800962 
L 332.337762 258.932839 
L 332.840425 259.06867 
L 333.342005 259.208446 
L 333.842471 259.352158 
L 334.341793 259.499797 
L 334.83994 259.651355 
L 335.33688 259.806821 
L 335.832584 259.966187 
L 336.327021 260.129442 
L 336.820159 260.296576 
L 337.31197 260.46758 
L 337.802421 260.642442 
L 338.291484 260.821151 
L 338.779128 261.003698 
L 339.265323 261.190069 
L 339.750038 261.380255 
L 340.233245 261.574243 
L 340.714912 261.772021 
L 341.195011 261.973577 
L 341.673511 262.178898 
L 342.150384 262.387972 
L 342.6256 262.600787 
L 343.099128 262.817328 
L 343.570942 263.037582 
L 344.04101 263.261537 
L 344.509304 263.489177 
L 344.975795 263.72049 
L 345.440455 263.95546 
L 345.903254 264.194074 
L 346.364165 264.436316 
L 346.823158 264.682171 
L 347.280206 264.931625 
L 347.735279 265.184662 
L 348.188351 265.441266 
L 348.639393 265.701421 
L 349.088377 265.965113 
L 349.535275 266.232323 
L 349.980061 266.503036 
L 350.422706 266.777235 
L 350.863183 267.054903 
L 351.301465 267.336023 
L 351.737525 267.620577 
L 352.171337 267.908549 
L 352.602872 268.199919 
L 353.032105 268.494671 
L 353.459009 268.792786 
L 353.883558 269.094246 
L 354.305725 269.399032 
L 354.725485 269.707125 
L 355.142812 270.018506 
L 355.557679 270.333156 
L 355.970062 270.651055 
L 356.379934 270.972185 
L 356.787271 271.296525 
L 357.192048 271.624055 
L 357.594238 271.954755 
L 357.993818 272.288604 
L 358.390763 272.625582 
L 358.785049 272.965668 
L 359.17665 273.308842 
L 359.565544 273.655081 
L 359.951705 274.004365 
L 360.33511 274.356672 
L 360.715736 274.71198 
L 361.093558 275.070267 
L 361.468554 275.431512 
L 361.840701 275.795691 
" clip-path="url(#pe8731bea80)" style="fill: none; stroke: #000000; stroke-width: 1.5; stroke-linecap: square"/>
   </g>
   <g id="patch_12">
    <path d="M 315.29975 253.692812 
C 306.200703 253.692812 297.190134 255.485126 288.783711 258.967181 
C 280.377288 262.449235 272.738495 267.553313 266.304498 273.98731 
C 259.8705 280.421308 254.766423 288.0601 251.284368 296.466523 
C 247.802314 304.872946 246.01 313.883516 246.01 322.982562 
C 246.01 332.081609 247.802314 341.092179 251.284368 349.498602 
C 254.766423 357.905025 259.8705 365.543817 266.304498 371.977815 
C 272.738495 378.411812 280.377288 383.51589 288.783711 386.997944 
C 297.190134 390.479999 306.200703 392.272312 315.29975 392.272312 
C 324.398797 392.272312 333.409366 390.479999 341.815789 386.997944 
C 350.222212 383.51589 357.861005 378.411812 364.295002 371.977815 
C 370.729 365.543817 375.833077 357.905025 379.315132 349.498602 
C 382.797186 341.092179 384.5895 332.081609 384.5895 322.982562 
C 384.5895 313.883516 382.797186 304.872946 379.315132 296.466523 
C 375.833077 288.0601 370.729 280.421308 364.295002 273.98731 
C 357.861005 267.553313 350.222212 262.449235 341.815789 258.967181 
C 333.409366 255.485126 324.398797 253.692812 315.29975 253.692812 
" style="fill: none; stroke: #000000; stroke-width: 0.8; stroke-linejoin: miter; stroke-linecap: square"/>
   </g>
   <g id="text_23">
    <g id="patch_13">
     <path d="M 284.49975 346.889437 
L 346.09975 346.889437 
L 346.09975 299.075687 
L 284.49975 299.075687 
z
" style="fill: #ffffff; stroke: #000000; stroke-linejoin: miter"/>
    </g>
    <!-- $\mu$ = 22.32$^\degree$ -->
    <g transform="translate(288.49975 309.675687)">
     <text>
      <tspan style="font: oblique 10px 'DejaVu Sans'" x="0" y="-0.9765625">μ</tspan>
      <tspan style="font: 10px 'DejaVu Sans'" x="6.362305 9.541016 17.919922 21.098633 27.460938 33.823242 37.001953 43.364258" y="-0.9765625"> = 22.32</tspan>
      <tspan style="font: 7px 'DejaVu Sans'" x="49.822266" y="-4.8046875">°</tspan>
     </text>
    </g>
    <!-- $s0$ = 87.87$^\degree$ -->
    <g transform="translate(285.99975 320.893812)">
     <text>
      <tspan style="font: oblique 10px 'DejaVu Sans'" x="0" y="-0.9765625">s</tspan>
      <tspan style="font: 10px 'DejaVu Sans'" x="5.209961 11.572266 14.750977 23.129883 26.308594 32.670898 39.033203 41.961914 48.324219" y="-0.9765625">0 = 87.87</tspan>
      <tspan style="font: 7px 'DejaVu Sans'" x="54.782227" y="-4.8046875">°</tspan>
     </text>
    </g>
    <!-- $V = 0.29$ -->
    <g transform="translate(294.94975 332.091625)">
     <text>
      <tspan style="font: oblique 10px 'DejaVu Sans'" x="0" y="-0.578125">V</tspan>
      <tspan style="font: 10px 'DejaVu Sans'" x="8.789062 19.116211 25.478516 28.157227 34.394531" y="-0.578125">=0.29</tspan>
     </text>
    </g>
    <!-- $p$ &lt; 0.01 -->
    <g transform="translate(293.59975 343.289437)">
     <text>
      <tspan style="font: oblique 10px 'DejaVu Sans'" x="0" y="-0.578125">p</tspan>
      <tspan style="font: 10px 'DejaVu Sans'" x="6.347656 9.526367 17.905273 21.083984 27.446289 30.625 36.987305" y="-0.578125"> &lt; 0.01</tspan>
     </text>
    </g>
   </g>
   <g id="text_24">
    <text style="font: 12px 'DejaVu Sans', 'Bitstream Vera Sans', 'Computer Modern Sans Serif', 'Lucida Grande', 'Verdana', 'Geneva', 'Lucid', 'Arial', 'Helvetica', 'Avant Garde', sans-serif; text-anchor: middle" x="315.29975" y="226.918125" transform="rotate(-0 315.29975 226.918125)">D) Dacke et al. (2019)</text>
   </g>
  </g>
 </g>
 <defs>
  <clipPath id="p9c8c4c1cd7">
   <path d="M 173.9895 112.382562 
C 173.9895 103.283516 172.197186 94.272946 168.715132 85.866523 
C 165.233077 77.4601 160.129 69.821308 153.695002 63.38731 
C 147.261005 56.953313 139.622212 51.849235 131.215789 48.367181 
C 122.809366 44.885126 113.798797 43.092813 104.69975 43.092813 
C 95.600703 43.092813 86.590134 44.885126 78.183711 48.367181 
C 69.777288 51.849235 62.138495 56.953313 55.704498 63.38731 
C 49.2705 69.821308 44.166423 77.4601 40.684368 85.866523 
C 37.202314 94.272946 35.41 103.283516 35.41 112.382562 
C 35.41 121.481609 37.202314 130.492179 40.684368 138.898602 
C 44.166423 147.305025 49.2705 154.943817 55.704498 161.377815 
C 62.138495 167.811812 69.777288 172.91589 78.183711 176.397944 
C 86.590134 179.879999 95.600703 181.672312 104.69975 181.672312 
C 113.798797 181.672312 122.809366 179.879999 131.215789 176.397944 
C 139.622212 172.91589 147.261005 167.811812 153.695002 161.377815 
C 160.129 154.943817 165.233077 147.305025 168.715132 138.898602 
C 172.197186 130.492179 173.9895 121.481609 173.9895 112.382563 
M 104.69975 112.382562 
C 104.69975 112.382562 104.69975 112.382562 104.69975 112.382562 
C 104.69975 112.382562 104.69975 112.382562 104.69975 112.382562 
C 104.69975 112.382562 104.69975 112.382562 104.69975 112.382562 
C 104.69975 112.382562 104.69975 112.382562 104.69975 112.382562 
C 104.69975 112.382562 104.69975 112.382562 104.69975 112.382562 
C 104.69975 112.382562 104.69975 112.382562 104.69975 112.382562 
C 104.69975 112.382562 104.69975 112.382562 104.69975 112.382562 
C 104.69975 112.382562 104.69975 112.382562 104.69975 112.382562 
C 104.69975 112.382562 104.69975 112.382562 104.69975 112.382562 
C 104.69975 112.382562 104.69975 112.382562 104.69975 112.382562 
C 104.69975 112.382562 104.69975 112.382562 104.69975 112.382562 
C 104.69975 112.382562 104.69975 112.382562 104.69975 112.382562 
C 104.69975 112.382562 104.69975 112.382562 104.69975 112.382562 
C 104.69975 112.382562 104.69975 112.382562 104.69975 112.382562 
C 104.69975 112.382562 104.69975 112.382562 104.69975 112.382562 
C 104.69975 112.382562 104.69975 112.382562 104.69975 112.382562 
z
"/>
  </clipPath>
  <clipPath id="p6c6531b822">
   <path d="M 384.5895 112.382562 
C 384.5895 103.283516 382.797186 94.272946 379.315132 85.866523 
C 375.833077 77.4601 370.729 69.821308 364.295002 63.38731 
C 357.861005 56.953313 350.222212 51.849235 341.815789 48.367181 
C 333.409366 44.885126 324.398797 43.092813 315.29975 43.092813 
C 306.200703 43.092813 297.190134 44.885126 288.783711 48.367181 
C 280.377288 51.849235 272.738495 56.953313 266.304498 63.38731 
C 259.8705 69.821308 254.766423 77.4601 251.284368 85.866523 
C 247.802314 94.272946 246.01 103.283516 246.01 112.382562 
C 246.01 121.481609 247.802314 130.492179 251.284368 138.898602 
C 254.766423 147.305025 259.8705 154.943817 266.304498 161.377815 
C 272.738495 167.811812 280.377288 172.91589 288.783711 176.397944 
C 297.190134 179.879999 306.200703 181.672312 315.29975 181.672312 
C 324.398797 181.672312 333.409366 179.879999 341.815789 176.397944 
C 350.222212 172.91589 357.861005 167.811812 364.295002 161.377815 
C 370.729 154.943817 375.833077 147.305025 379.315132 138.898602 
C 382.797186 130.492179 384.5895 121.481609 384.5895 112.382563 
M 315.29975 112.382562 
C 315.29975 112.382562 315.29975 112.382562 315.29975 112.382562 
C 315.29975 112.382562 315.29975 112.382562 315.29975 112.382562 
C 315.29975 112.382562 315.29975 112.382562 315.29975 112.382562 
C 315.29975 112.382562 315.29975 112.382562 315.29975 112.382562 
C 315.29975 112.382562 315.29975 112.382562 315.29975 112.382562 
C 315.29975 112.382562 315.29975 112.382562 315.29975 112.382562 
C 315.29975 112.382562 315.29975 112.382562 315.29975 112.382562 
C 315.29975 112.382562 315.29975 112.382562 315.29975 112.382562 
C 315.29975 112.382562 315.29975 112.382562 315.29975 112.382562 
C 315.29975 112.382562 315.29975 112.382562 315.29975 112.382562 
C 315.29975 112.382562 315.29975 112.382562 315.29975 112.382562 
C 315.29975 112.382562 315.29975 112.382562 315.29975 112.382562 
C 315.29975 112.382562 315.29975 112.382562 315.29975 112.382562 
C 315.29975 112.382562 315.29975 112.382562 315.29975 112.382562 
C 315.29975 112.382562 315.29975 112.382562 315.29975 112.382562 
C 315.29975 112.382562 315.29975 112.382562 315.29975 112.382562 
z
"/>
  </clipPath>
  <clipPath id="pd083ffe352">
   <path d="M 173.9895 322.982562 
C 173.9895 313.883516 172.197186 304.872946 168.715132 296.466523 
C 165.233077 288.0601 160.129 280.421308 153.695002 273.98731 
C 147.261005 267.553313 139.622212 262.449235 131.215789 258.967181 
C 122.809366 255.485126 113.798797 253.692812 104.69975 253.692812 
C 95.600703 253.692812 86.590134 255.485126 78.183711 258.967181 
C 69.777288 262.449235 62.138495 267.553313 55.704498 273.98731 
C 49.2705 280.421308 44.166423 288.0601 40.684368 296.466523 
C 37.202314 304.872946 35.41 313.883516 35.41 322.982562 
C 35.41 332.081609 37.202314 341.092179 40.684368 349.498602 
C 44.166423 357.905025 49.2705 365.543817 55.704498 371.977815 
C 62.138495 378.411812 69.777288 383.51589 78.183711 386.997944 
C 86.590134 390.479999 95.600703 392.272312 104.69975 392.272312 
C 113.798797 392.272312 122.809366 390.479999 131.215789 386.997944 
C 139.622212 383.51589 147.261005 378.411812 153.695002 371.977815 
C 160.129 365.543817 165.233077 357.905025 168.715132 349.498602 
C 172.197186 341.092179 173.9895 332.081609 173.9895 322.982562 
M 104.69975 322.982562 
C 104.69975 322.982562 104.69975 322.982562 104.69975 322.982562 
C 104.69975 322.982562 104.69975 322.982562 104.69975 322.982562 
C 104.69975 322.982562 104.69975 322.982562 104.69975 322.982562 
C 104.69975 322.982562 104.69975 322.982562 104.69975 322.982562 
C 104.69975 322.982562 104.69975 322.982562 104.69975 322.982562 
C 104.69975 322.982562 104.69975 322.982562 104.69975 322.982562 
C 104.69975 322.982562 104.69975 322.982562 104.69975 322.982562 
C 104.69975 322.982562 104.69975 322.982562 104.69975 322.982562 
C 104.69975 322.982562 104.69975 322.982562 104.69975 322.982562 
C 104.69975 322.982562 104.69975 322.982562 104.69975 322.982562 
C 104.69975 322.982562 104.69975 322.982562 104.69975 322.982562 
C 104.69975 322.982562 104.69975 322.982562 104.69975 322.982562 
C 104.69975 322.982562 104.69975 322.982562 104.69975 322.982562 
C 104.69975 322.982562 104.69975 322.982562 104.69975 322.982562 
C 104.69975 322.982562 104.69975 322.982562 104.69975 322.982562 
C 104.69975 322.982562 104.69975 322.982562 104.69975 322.982562 
z
"/>
  </clipPath>
  <clipPath id="pe8731bea80">
   <path d="M 384.5895 322.982562 
C 384.5895 313.883516 382.797186 304.872946 379.315132 296.466523 
C 375.833077 288.0601 370.729 280.421308 364.295002 273.98731 
C 357.861005 267.553313 350.222212 262.449235 341.815789 258.967181 
C 333.409366 255.485126 324.398797 253.692812 315.29975 253.692812 
C 306.200703 253.692812 297.190134 255.485126 288.783711 258.967181 
C 280.377288 262.449235 272.738495 267.553313 266.304498 273.98731 
C 259.8705 280.421308 254.766423 288.0601 251.284368 296.466523 
C 247.802314 304.872946 246.01 313.883516 246.01 322.982562 
C 246.01 332.081609 247.802314 341.092179 251.284368 349.498602 
C 254.766423 357.905025 259.8705 365.543817 266.304498 371.977815 
C 272.738495 378.411812 280.377288 383.51589 288.783711 386.997944 
C 297.190134 390.479999 306.200703 392.272312 315.29975 392.272312 
C 324.398797 392.272312 333.409366 390.479999 341.815789 386.997944 
C 350.222212 383.51589 357.861005 378.411812 364.295002 371.977815 
C 370.729 365.543817 375.833077 357.905025 379.315132 349.498602 
C 382.797186 341.092179 384.5895 332.081609 384.5895 322.982562 
M 315.29975 322.982562 
C 315.29975 322.982562 315.29975 322.982562 315.29975 322.982562 
C 315.29975 322.982562 315.29975 322.982562 315.29975 322.982562 
C 315.29975 322.982562 315.29975 322.982562 315.29975 322.982562 
C 315.29975 322.982562 315.29975 322.982562 315.29975 322.982562 
C 315.29975 322.982562 315.29975 322.982562 315.29975 322.982562 
C 315.29975 322.982562 315.29975 322.982562 315.29975 322.982562 
C 315.29975 322.982562 315.29975 322.982562 315.29975 322.982562 
C 315.29975 322.982562 315.29975 322.982562 315.29975 322.982562 
C 315.29975 322.982562 315.29975 322.982562 315.29975 322.982562 
C 315.29975 322.982562 315.29975 322.982562 315.29975 322.982562 
C 315.29975 322.982562 315.29975 322.982562 315.29975 322.982562 
C 315.29975 322.982562 315.29975 322.982562 315.29975 322.982562 
C 315.29975 322.982562 315.29975 322.982562 315.29975 322.982562 
C 315.29975 322.982562 315.29975 322.982562 315.29975 322.982562 
C 315.29975 322.982562 315.29975 322.982562 315.29975 322.982562 
C 315.29975 322.982562 315.29975 322.982562 315.29975 322.982562 
z
"/>
  </clipPath>
 </defs>
</svg>
